<?xml version="1.0" standalone="no"?>
<!DOCTYPE svg PUBLIC "-//W3C//DTD SVG 1.1//EN" "http://www.w3.org/Graphics/SVG/1.1/DTD/svg11.dtd" >
<svg>
<metadata>
Created by FontForge 20090622 at Mon Nov 13 15:53:28 2017
 By deploy user
Copyright (c) Mark Simonson, 2005. All rights reserved.
</metadata>
<defs>
<font id="ProximaNovaT-Thin" horiz-adv-x="528" >
  <font-face 
    font-family="Proxima Nova Th"
    font-weight="250"
    font-stretch="normal"
    units-per-em="1000"
    panose-1="2 0 5 6 3 0 0 2 0 4"
    ascent="790"
    descent="-210"
    x-height="483"
    cap-height="667"
    bbox="-171 -258 1059 906"
    underline-thickness="20"
    underline-position="-153"
    unicode-range="U+000D-U+FB04"
  />
<missing-glyph horiz-adv-x="527" 
d="M439 -90h-351v842h351v-842zM407 -60v782h-288v-782h288z" />
    <glyph glyph-name="f_f_j" unicode="ffj" horiz-adv-x="694" 
d="M376 0h-30v456h-80v27h80v51q0 67 32 105t89 38q35 0 57 -13l-13 -26q-21 12 -44 12q-91 0 -91 -116v-51h98v-27h-98v-456zM593 566q-11 0 -20 8.5t-9 20.5t9 20.5t20 8.5q12 0 20.5 -8.5t8.5 -20.5t-8.5 -20.5t-20.5 -8.5zM489 -196q-51 0 -92 38l19 25q32 -36 73 -36
q40 0 64.5 23t24.5 70v559h30v-559q0 -120 -119 -120zM130 0h-30v456h-80v27h80v51q0 67 32 105t89 38q45 0 82 -30l-18 -24q-29 27 -64 27q-91 0 -91 -116v-51h98v-27h-98v-456z" />
    <glyph glyph-name="f_j" unicode="fj" horiz-adv-x="448" 
d="M130 0h-30v456h-80v27h80v51q0 67 32 105t89 38q35 0 57 -13l-13 -26q-21 12 -44 12q-91 0 -91 -116v-51h98v-27h-98v-456zM347 566q-11 0 -20 8.5t-9 20.5t9 20.5t20 8.5q12 0 20.5 -8.5t8.5 -20.5t-8.5 -20.5t-20.5 -8.5zM243 -196q-51 0 -92 38l19 25q32 -36 73 -36
q40 0 64.5 23t24.5 70v559h30v-559q0 -120 -119 -120z" />
    <glyph glyph-name="f_f" unicode="ff" horiz-adv-x="492" 
d="M130 0h-30v456h-80v27h80v51q0 67 32 105t89 38q45 0 82 -30l-18 -24q-29 27 -64 27q-91 0 -91 -116v-51h98v-27h-98v-456zM376 0h-30v456h-80v27h80v51q0 67 32 105t89 38q45 0 82 -30l-18 -24q-29 27 -64 27q-91 0 -91 -116v-51h98v-27h-98v-456z" />
    <glyph glyph-name="fi" unicode="fi" horiz-adv-x="448" 
d="M130 0h-30v456h-80v27h80v51q0 67 32 105t89 38q35 0 57 -13l-13 -26q-21 12 -44 12q-91 0 -91 -116v-51h98v-27h-98v-456zM347 566q-11 0 -20 8.5t-9 20.5t9 20.5t20 8.5q12 0 20.5 -8.5t8.5 -20.5t-8.5 -20.5t-20.5 -8.5zM362 0h-30v483h30v-483z" />
    <glyph glyph-name="fl" unicode="fl" horiz-adv-x="448" 
d="M130 0h-30v456h-80v27h80v51q0 67 32 105t89 38q35 0 57 -13l-13 -26q-21 12 -44 12q-91 0 -91 -116v-51h98v-27h-98v-456zM362 0h-30v667h30v-667z" />
    <glyph glyph-name="f_f_i" unicode="ffi" horiz-adv-x="694" 
d="M376 0h-30v456h-80v27h80v51q0 67 32 105t89 38q35 0 57 -13l-13 -26q-21 12 -44 12q-91 0 -91 -116v-51h98v-27h-98v-456zM593 566q-11 0 -20 8.5t-9 20.5t9 20.5t20 8.5q12 0 20.5 -8.5t8.5 -20.5t-8.5 -20.5t-20.5 -8.5zM608 0h-30v483h30v-483zM130 0h-30v456h-80v27
h80v51q0 67 32 105t89 38q45 0 82 -30l-18 -24q-29 27 -64 27q-91 0 -91 -116v-51h98v-27h-98v-456z" />
    <glyph glyph-name="f_f_l" unicode="ffl" horiz-adv-x="694" 
d="M376 0h-30v456h-80v27h80v51q0 67 32 105t89 38q35 0 57 -13l-13 -26q-21 12 -44 12q-91 0 -91 -116v-51h98v-27h-98v-456zM608 0h-30v667h30v-667zM130 0h-30v456h-80v27h80v51q0 67 32 105t89 38q45 0 82 -30l-18 -24q-29 27 -64 27q-91 0 -91 -116v-51h98v-27h-98
v-456z" />
    <glyph glyph-name="f_b" unicode="fb" horiz-adv-x="812" 
d="M130 0h-30v456h-80v27h80v51q0 67 32 105t89 38q35 0 57 -13l-13 -26q-21 12 -44 12q-91 0 -91 -116v-51h98v-27h-98v-456zM362 111q24 -40 72 -68t102 -28q86 0 134.5 63.5t48.5 162.5t-48.5 163t-134.5 64q-54 0 -102 -29t-72 -69v-259zM362 0h-30v667h30v-267
q30 44 75.5 69.5t98.5 25.5q97 0 156.5 -70t59.5 -184q0 -115 -59 -184t-157 -69q-54 0 -101 26.5t-73 66.5v-81z" />
    <glyph glyph-name="f_h" unicode="fh" horiz-adv-x="774" 
d="M130 0h-30v456h-80v27h80v51q0 67 32 105t89 38q35 0 57 -13l-13 -26q-21 12 -44 12q-91 0 -91 -116v-51h98v-27h-98v-456zM688 0h-30v339q0 72 -32 100.5t-93 28.5q-48 0 -96 -26.5t-75 -64.5v-377h-30v667h30v-260q29 35 78 61.5t97 26.5q75 0 113 -36.5t38 -119.5
v-339z" />
    <glyph glyph-name="f_k" unicode="fk" horiz-adv-x="742" 
d="M130 0h-30v456h-80v27h80v51q0 67 32 105t89 38q35 0 57 -13l-13 -26q-21 12 -44 12q-91 0 -91 -116v-51h98v-27h-98v-456zM717 0h-43l-212 243l-100 -92v-151h-30v667h30v-478l315 294h43l-235 -218z" />
    <glyph glyph-name=".notdef" horiz-adv-x="527" 
d="M439 -90h-351v842h351v-842zM407 -60v782h-288v-782h288z" />
    <glyph glyph-name=".null" horiz-adv-x="0" 
 />
    <glyph glyph-name=".null" horiz-adv-x="0" 
 />
    <glyph glyph-name="nonmarkingreturn" horiz-adv-x="333" 
 />
    <glyph glyph-name="CR" unicode="&#xd;" horiz-adv-x="0" 
 />
    <glyph glyph-name="space" unicode=" " horiz-adv-x="260" 
 />
    <glyph glyph-name="exclam" unicode="!" horiz-adv-x="208" 
d="M114 161h-20l-11 506h42zM104 -9q-14 0 -23.5 9.5t-9.5 23.5q0 13 10 22.5t23 9.5t23 -9.5t10 -22.5q0 -14 -9.5 -23.5t-23.5 -9.5z" />
    <glyph glyph-name="quotedbl" unicode="&#x22;" horiz-adv-x="290" 
d="M99 443h-22q-15 197 -15 208t7.5 18.5t18.5 7.5t18.5 -7.5t7.5 -18.5zM213 443h-22q-15 197 -15 208t7.5 18.5t18.5 7.5t18.5 -7.5t7.5 -18.5z" />
    <glyph glyph-name="numbersign" unicode="#" horiz-adv-x="567" 
d="M267 0h-33l65 191h-125l-64 -191h-33l64 191h-115l9 29h116l76 227h-117l8 29h119l63 191h33l-63 -191h124l63 191h33l-64 -191h115l-7 -29h-117l-77 -227h120l-9 -29h-120zM307 220l77 227h-124l-76 -227h123z" />
    <glyph glyph-name="dollar" unicode="$" horiz-adv-x="575" 
d="M275 -100v88q-71 2 -128.5 31t-93.5 75l26 23q76 -94 196 -99v318q-39 11 -61 18t-52.5 21.5t-47 31t-28.5 42.5t-12 59q0 76 58.5 122t142.5 48v90h32v-91q122 -7 192 -93l-25 -23q-61 78 -167 86v-285q38 -11 62 -19.5t54.5 -25t48 -35t30 -48t12.5 -65.5
q0 -30 -10 -58t-32 -55.5t-64.5 -45.5t-100.5 -21v-89h-32zM479 169q0 29 -10 52t-24.5 38.5t-39 29t-45.5 21t-53 17.5v-309q48 3 83.5 18t54 38t26.5 46.5t8 48.5zM109 508q0 -30 12.5 -52.5t39 -38.5t50.5 -25t64 -21v277q-71 -2 -118.5 -41.5t-47.5 -98.5z" />
    <glyph glyph-name="percent" unicode="%" horiz-adv-x="709" 
d="M189 351q-67 0 -110 46t-43 116q0 71 43 117.5t110 46.5t110 -46.5t43 -117.5q0 -70 -43 -116t-110 -46zM163 0h-36l426 667h37zM520 -12q-67 0 -110 46t-43 116q0 71 43 117.5t110 46.5t110 -46.5t43 -117.5q0 -70 -43 -116t-110 -46zM189 378q53 0 86.5 39.5t33.5 95.5
q0 57 -33.5 97t-86.5 40q-52 0 -86 -40t-34 -97q0 -55 34 -95t86 -40zM520 15q53 0 86.5 39.5t33.5 95.5q0 57 -33.5 97t-86.5 40t-86.5 -40t-33.5 -97q0 -56 33.5 -95.5t86.5 -39.5z" />
    <glyph glyph-name="ampersand" unicode="&#x26;" horiz-adv-x="637" 
d="M591 0h-53q-34 29 -96 89q-80 -101 -199 -101q-84 0 -140 47t-56 132q0 73 40 119t111 86q-58 90 -58 155t43.5 107.5t105.5 42.5q60 0 95 -32t35 -90q0 -34 -12.5 -61.5t-40 -50.5t-49.5 -37.5t-62 -36.5q-7 -4 -11 -6q37 -53 94 -115q52 -58 100 -106q44 67 79 171
l32 -12q-50 -131 -86 -184q63 -61 128 -117zM243 18q98 0 174 96q-79 81 -105 112q-57 65 -97 120q-63 -36 -98 -77t-35 -102q0 -71 47 -110t114 -39zM175 527q0 -58 52 -138l48 26.5t40.5 26t37 32t21.5 36t10 45.5q0 44 -26.5 68t-68.5 24q-47 0 -80.5 -34t-33.5 -86z" />
    <glyph glyph-name="quotesingle" unicode="'" horiz-adv-x="176" 
d="M99 443h-22q-15 197 -15 208t7.5 18.5t18.5 7.5t18.5 -7.5t7.5 -18.5z" />
    <glyph glyph-name="parenleft" unicode="(" horiz-adv-x="206" 
d="M189 -187l-16 -12q-126 206 -126 442t126 442l16 -11q-54 -114 -80.5 -210t-26.5 -221q0 -124 26.5 -221t80.5 -209z" />
    <glyph glyph-name="parenright" unicode=")" horiz-adv-x="206" 
d="M33 -199l-16 12q54 112 80.5 209t26.5 221q0 125 -26.5 221t-80.5 210l16 11q126 -206 126 -442t-126 -442z" />
    <glyph glyph-name="asterisk" unicode="*" horiz-adv-x="330" 
d="M180 409h-30l6 119l-100 -65l-15 26l106 54l-106 54l15 26l100 -65l-6 119h30l-6 -119l100 65l15 -26l-106 -54l106 -54l-15 -26l-100 65z" />
    <glyph glyph-name="plus" unicode="+" horiz-adv-x="494" 
d="M465 322h-202v-222h-32v222h-202v30h202v216h32v-216h202v-30z" />
    <glyph glyph-name="comma" unicode="," horiz-adv-x="208" 
d="M142 3q0 -36 -18 -69.5t-44 -51.5l-22 18q24 18 38.5 43.5t14.5 48.5q-6 -1 -8 -1q-14 0 -23 9.5t-9 23.5q0 13 9 22.5t23 9.5q16 0 27.5 -14t11.5 -39z" />
    <glyph glyph-name="hyphen" unicode="-" horiz-adv-x="300" 
d="M270 227h-240v30h240v-30z" />
    <glyph glyph-name="period" unicode="." horiz-adv-x="208" 
d="M104 -9q-14 0 -23.5 9.5t-9.5 23.5q0 13 10 22.5t23 9.5t23 -9.5t10 -22.5q0 -14 -9.5 -23.5t-23.5 -9.5z" />
    <glyph glyph-name="slash" unicode="/" horiz-adv-x="268" 
d="M31 -20h-31l237 707h31z" />
    <glyph glyph-name="zero" unicode="0" horiz-adv-x="605" 
d="M303 -12q-63 0 -111 31.5t-74.5 83.5t-39.5 110.5t-13 119.5q0 62 13 120t39.5 109.5t74.5 83t111 31.5t110.5 -31.5t74 -83t39.5 -109.5t13 -120q0 -61 -13 -119.5t-39.5 -110.5t-74 -83.5t-110.5 -31.5zM303 18q55 0 96 29t63 76.5t32.5 100t10.5 109.5t-10.5 109.5
t-32.5 100t-63 76t-96 28.5t-96 -28.5t-63.5 -76t-33 -100t-10.5 -109.5t10.5 -109.5t33 -100.5t63.5 -76.5t96 -28.5z" />
    <glyph glyph-name="one" unicode="1" horiz-adv-x="277" 
d="M189 0h-32v621l-105 -115l-22 23l129 138h30v-667z" />
    <glyph glyph-name="two" unicode="2" horiz-adv-x="577" 
d="M480 0h-421v28l124 104.5t102.5 94.5t88 95t51 85.5t21.5 88.5q0 75 -49.5 113t-116.5 38q-62 0 -110 -24.5t-74 -65.5l-26 19q31 47 86.5 74t124.5 27q75 0 136 -45.5t61 -135.5q0 -33 -11.5 -67.5t-26.5 -63.5t-47 -67t-56.5 -63.5t-71.5 -68l-75 -66l-84 -70.5h374
v-30z" />
    <glyph glyph-name="three" unicode="3" horiz-adv-x="531" 
d="M252 -12q-75 0 -131.5 32t-84.5 80l28 16q61 -98 188 -98q83 0 132 42.5t49 116.5q0 77 -55 115t-138 38q-46 0 -56 -1v32q10 -1 56 -1q77 0 130 36t53 107q0 66 -49.5 105t-121.5 39q-58 0 -100.5 -22t-81.5 -68l-25 20q79 100 207 100q83 0 143 -46.5t60 -127.5
q0 -72 -45 -110.5t-97 -47.5q31 -3 64 -19.5t60.5 -56t27.5 -92.5q0 -83 -56.5 -136t-156.5 -53z" />
    <glyph glyph-name="four" unicode="4" horiz-adv-x="524" 
d="M385 0h-32v195h-315v33l305 439h42v-442h101v-30h-101v-195zM353 225v406l-280 -406h280z" />
    <glyph glyph-name="five" unicode="5" horiz-adv-x="574" 
d="M297 -12q-145 0 -216 112l26 19q67 -101 190 -101q77 0 128.5 51.5t51.5 128.5q0 83 -51 132.5t-129 49.5q-95 0 -168 -69l-27 16v340h364v-30h-332v-291q66 64 163 64q89 0 150.5 -56t61.5 -156q0 -94 -62.5 -152t-149.5 -58z" />
    <glyph glyph-name="six" unicode="6" horiz-adv-x="577" 
d="M297 -12q-62 0 -108.5 28.5t-72.5 78.5t-38.5 109.5t-12.5 128.5q0 65 12.5 123t39 109t74.5 81.5t112 30.5q112 0 175 -90l-24 -21q-56 81 -151 81q-56 0 -98 -28.5t-64.5 -77t-33 -103t-10.5 -115.5q0 -24 1 -36q25 42 81.5 80.5t121.5 38.5q94 0 152.5 -53.5
t58.5 -156.5q0 -83 -58 -145.5t-157 -62.5zM297 18q87 0 135 55.5t48 122.5q0 88 -49 134t-131 46q-59 0 -113 -36.5t-85 -93.5q4 -40 16 -78t34 -73t59.5 -56t85.5 -21z" />
    <glyph glyph-name="seven" unicode="7" horiz-adv-x="489" 
d="M158 0h-36l293 637h-379v30h417v-22z" />
    <glyph glyph-name="eight" unicode="8" horiz-adv-x="561" 
d="M281 -12q-95 0 -155 49.5t-60 127.5q0 68 50.5 114.5t122.5 64.5q-68 16 -115 57.5t-47 104.5q0 82 61 126.5t143 44.5q81 0 142.5 -45t61.5 -126q0 -63 -47 -104.5t-115 -57.5q72 -18 122 -64.5t50 -114.5q0 -77 -60.5 -127t-153.5 -50zM281 359q23 4 45.5 12t54.5 24
t52 45t20 66q0 65 -49.5 103t-122.5 38t-122.5 -38t-49.5 -103q0 -37 20 -66t52.5 -45.5t54.5 -23.5t45 -12zM281 18q74 0 128 40.5t54 106.5q0 40 -22 73t-54.5 51.5t-59.5 28.5t-46 12q-19 -2 -46.5 -12t-60 -28.5t-54.5 -51.5t-22 -73q0 -66 54 -106.5t129 -40.5z" />
    <glyph glyph-name="nine" unicode="9" horiz-adv-x="577" 
d="M274 -11q-112 0 -175 90l24 21q56 -81 151 -81q56 0 98 28.5t64.5 77t33 103t10.5 115.5q0 24 -1 36q-25 -42 -81.5 -80.5t-121.5 -38.5q-94 0 -152.5 53.5t-58.5 156.5q0 83 58 145.5t157 62.5q62 0 108.5 -28.5t72.5 -78.5t38.5 -109.5t12.5 -128.5q0 -65 -12.5 -123
t-39 -109t-74.5 -81.5t-112 -30.5zM277 290q59 0 113 36.5t85 93.5q-4 40 -16 78t-34 73t-59.5 56t-85.5 21q-87 0 -135 -55.5t-48 -122.5q0 -88 49 -134t131 -46z" />
    <glyph glyph-name="colon" unicode=":" horiz-adv-x="208" 
d="M104 425q-13 0 -23 9.5t-10 22.5t9.5 23t23.5 10t23.5 -10t9.5 -23t-10 -22.5t-23 -9.5zM104 -9q-14 0 -23.5 9.5t-9.5 23.5q0 13 10 22.5t23 9.5t23 -9.5t10 -22.5q0 -14 -9.5 -23.5t-23.5 -9.5z" />
    <glyph glyph-name="semicolon" unicode=";" horiz-adv-x="208" 
d="M104 425q-13 0 -23 9.5t-10 22.5t9.5 23t23.5 10t23.5 -10t9.5 -23t-10 -22.5t-23 -9.5zM142 3q0 -36 -18 -69.5t-44 -51.5l-22 18q24 18 38.5 43.5t14.5 48.5q-6 -1 -8 -1q-14 0 -23 9.5t-9 23.5q0 13 9 22.5t23 9.5q16 0 27.5 -14t11.5 -39z" />
    <glyph glyph-name="less" unicode="&#x3c;" horiz-adv-x="494" 
d="M465 90l-436 234v21l436 235v-36l-395 -210l395 -208v-36z" />
    <glyph glyph-name="equal" unicode="=" horiz-adv-x="494" 
d="M465 418h-436v30h436v-30zM465 220h-436v30h436v-30z" />
    <glyph glyph-name="greater" unicode="&#x3e;" horiz-adv-x="494" 
d="M465 324l-436 -234v36l395 208l-395 210v36l436 -235v-21z" />
    <glyph glyph-name="question" unicode="?" horiz-adv-x="467" 
d="M225 168q-44 33 -44 76q0 37 21.5 67t52.5 50.5l62 42t52.5 52t21.5 68.5q0 52 -40 87.5t-111 35.5q-68 0 -112.5 -25t-78.5 -73l-23 21q75 107 214 107q85 0 135.5 -44.5t50.5 -108.5q0 -36 -16 -66.5t-40 -50t-51.5 -39.5l-51.5 -36.5t-40 -39t-16 -48.5q0 -30 33 -53z
M222 -9q-14 0 -23.5 9.5t-9.5 23.5q0 13 10 22.5t23 9.5t23 -9.5t10 -22.5q0 -14 -9.5 -23.5t-23.5 -9.5z" />
    <glyph glyph-name="at" unicode="@" horiz-adv-x="783" 
d="M352 -70q-136 0 -226.5 90.5t-90.5 223.5q0 106 55.5 197.5t147 144t194.5 52.5q138 0 226.5 -94t88.5 -233q0 -105 -43.5 -165.5t-107.5 -60.5q-38 0 -62 26t-24 62v6q-28 -40 -74 -67t-97 -27q-68 0 -110 43t-42 115q0 106 75 181.5t168 75.5q49 0 82.5 -24.5
t48.5 -62.5l14 69h30l-62 -294q-1 -6 -1 -18q0 -26 15.5 -42t38.5 -16q17 0 36 9.5t39.5 30.5t33.5 62.5t13 97.5q0 127 -81 211.5t-208 84.5q-146 0 -255 -110.5t-109 -252.5q0 -122 82.5 -204t208.5 -82q97 0 188 57l16 -23q-98 -63 -208 -63zM339 112q56 0 102.5 32.5
t77.5 78.5l34 157q-11 36 -42.5 64.5t-80.5 28.5q-85 0 -147.5 -70.5t-62.5 -159.5q0 -58 31.5 -94.5t87.5 -36.5z" />
    <glyph glyph-name="A" unicode="A" horiz-adv-x="636" 
d="M615 0h-37l-74 179h-372l-74 -179h-37l278 667h38zM492 209l-174 421l-174 -421h348z" />
    <glyph glyph-name="B" unicode="B" horiz-adv-x="600" 
d="M343 0h-255v667h251q82 0 132 -44.5t50 -125.5q0 -60 -35 -101.5t-83 -51.5q53 -8 92 -57t39 -107q0 -85 -51.5 -132.5t-139.5 -47.5zM339 358q71 0 109 39t38 100q0 60 -38.5 100t-108.5 40h-219v-279h219zM343 30q73 0 114.5 40t41.5 109q0 61 -41 105t-115 44h-223
v-298h223z" />
    <glyph glyph-name="C" unicode="C" horiz-adv-x="667" 
d="M398 -12q-141 0 -237 97t-96 248t96 248t237 97t232 -105l-25 -22q-36 45 -90.5 71t-116.5 26q-127 0 -212.5 -88t-85.5 -227q0 -138 85.5 -226.5t212.5 -88.5q62 0 116.5 26t90.5 71l26 -21q-94 -106 -233 -106z" />
    <glyph glyph-name="D" unicode="D" horiz-adv-x="684" 
d="M286 0h-198v667h198q150 0 241 -97.5t91 -236.5q0 -140 -90.5 -236.5t-241.5 -96.5zM286 30q138 0 217.5 86t79.5 217q0 130 -80 217t-217 87h-166v-607h166z" />
    <glyph glyph-name="E" unicode="E" horiz-adv-x="558" 
d="M496 0h-408v667h408v-30h-376v-279h369v-30h-369v-298h376v-30z" />
    <glyph glyph-name="F" unicode="F" horiz-adv-x="533" 
d="M120 0h-32v667h408v-30h-376v-279h369v-30h-369v-328z" />
    <glyph glyph-name="G" unicode="G" horiz-adv-x="708" 
d="M398 -13q-141 0 -237 97t-96 249q0 151 96 248t237 97q144 0 244 -103l-21 -22q-39 45 -98 70t-125 25q-127 0 -212.5 -88t-85.5 -227q0 -138 85.5 -227t212.5 -89q67 0 122 26.5t90 63.5v183h-275v30h307v-226q-44 -49 -107.5 -78t-136.5 -29z" />
    <glyph glyph-name="H" unicode="H" horiz-adv-x="695" 
d="M607 0h-32v328h-455v-328h-32v667h32v-309h455v309h32v-667z" />
    <glyph glyph-name="I" unicode="I" horiz-adv-x="208" 
d="M120 0h-32v667h32v-667z" />
    <glyph glyph-name="J" unicode="J" horiz-adv-x="465" 
d="M185 -12q-107 0 -169 87l27 24q57 -81 142 -81q73 0 116.5 46.5t43.5 120.5v482h32v-482q0 -95 -55 -146t-137 -51z" />
    <glyph glyph-name="K" unicode="K" horiz-adv-x="571" 
d="M540 0h-43l-297 328l-80 -87v-241h-32v667h32v-385l347 385h43l-290 -319z" />
    <glyph glyph-name="L" unicode="L" horiz-adv-x="499" 
d="M455 0h-367v667h32v-637h335v-30z" />
    <glyph glyph-name="M" unicode="M" horiz-adv-x="770" 
d="M682 0h-32v629l-260 -629h-10l-260 629v-629h-32v667h51l246 -597l246 597h51v-667z" />
    <glyph glyph-name="N" unicode="N" horiz-adv-x="690" 
d="M602 0h-32l-450 615v-615h-32v667h32l450 -609v609h32v-667z" />
    <glyph glyph-name="O" unicode="O" horiz-adv-x="764" 
d="M382 -12q-143 0 -230 98.5t-87 246.5t87 246.5t230 98.5q142 0 229.5 -98.5t87.5 -246.5t-87.5 -246.5t-229.5 -98.5zM382 18q127 0 204.5 88.5t77.5 226.5q0 139 -77.5 227t-204.5 88q-128 0 -205 -88t-77 -227q0 -138 77 -226.5t205 -88.5z" />
    <glyph glyph-name="P" unicode="P" horiz-adv-x="555" 
d="M120 0h-32v667h231q90 0 142.5 -54.5t52.5 -134.5q0 -79 -53 -134t-142 -55h-199v-289zM318 319q73 0 117 44.5t44 114.5t-44 114.5t-117 44.5h-198v-318h198z" />
    <glyph glyph-name="Q" unicode="Q" horiz-adv-x="764" 
d="M382 -12q-143 0 -230 98.5t-87 246.5t87 246.5t230 98.5q142 0 229.5 -98.5t87.5 -246.5q0 -157 -98 -257l77 -76l-22 -23l-78 78q-83 -67 -196 -67zM382 18q100 0 173 59l-110 111l23 23l111 -112q85 88 85 234q0 139 -77.5 227t-204.5 88q-128 0 -205 -88t-77 -227
q0 -138 77 -226.5t205 -88.5z" />
    <glyph glyph-name="R" unicode="R" horiz-adv-x="579" 
d="M524 0h-41l-203 288h-160v-288h-32v667h230q85 0 141 -50.5t56 -138.5t-56.5 -139t-140.5 -51zM318 318q73 0 117.5 45t44.5 115t-44.5 114.5t-117.5 44.5h-198v-319h198z" />
    <glyph glyph-name="S" unicode="S" horiz-adv-x="575" 
d="M286 -12q-75 0 -135 29t-98 77l26 23q81 -99 207 -99q55 0 95 14.5t60 38t29 48t9 50.5q0 51 -30 85.5t-75 49.5l-97.5 31.5l-97.5 32t-75 51.5t-30 89q0 78 61 124t148 46q140 0 216 -94l-25 -23q-67 87 -191 87q-74 0 -124 -39.5t-50 -100.5q0 -38 22.5 -65t58 -42
t79 -27.5t86.5 -27t78.5 -34.5t58 -56.5t22.5 -86.5q0 -31 -11 -60.5t-35 -58t-71 -45.5t-111 -17z" />
    <glyph glyph-name="T" unicode="T" horiz-adv-x="559" 
d="M295 0h-32v637h-225v30h483v-30h-226v-637z" />
    <glyph glyph-name="U" unicode="U" horiz-adv-x="672" 
d="M336 -12q-120 0 -184 70t-64 195v414h32v-414q0 -112 56 -173.5t160 -61.5t160 61.5t56 173.5v414h32v-414q0 -125 -64 -195t-184 -70z" />
    <glyph glyph-name="V" unicode="V" horiz-adv-x="636" 
d="M337 0h-38l-278 667h37l260 -630l260 630h37z" />
    <glyph glyph-name="W" unicode="W" horiz-adv-x="852" 
d="M637 0h-38l-173 607l-173 -607h-38l-190 667h35l174 -619l175 619h34l175 -619l174 619h35z" />
    <glyph glyph-name="X" unicode="X" horiz-adv-x="638" 
d="M613 0h-42l-252 318l-252 -318h-42l276 342l-261 325h43l236 -299l236 299h43l-261 -324z" />
    <glyph glyph-name="Y" unicode="Y" horiz-adv-x="610" 
d="M321 0h-32v289l-268 378h41l243 -346l243 346h41l-268 -378v-289z" />
    <glyph glyph-name="Z" unicode="Z" horiz-adv-x="578" 
d="M525 0h-472v30l427 607h-427v30h465v-30l-428 -607h435v-30z" />
    <glyph glyph-name="bracketleft" unicode="[" horiz-adv-x="212" 
d="M195 -190h-161v868h161v-30h-131v-808h131v-30z" />
    <glyph glyph-name="backslash" unicode="\" horiz-adv-x="268" 
d="M237 -20l-237 707h31l237 -707h-31z" />
    <glyph glyph-name="bracketright" unicode="]" horiz-adv-x="212" 
d="M178 -190h-161v30h131v808h-131v30h161v-868z" />
    <glyph glyph-name="asciicircum" unicode="^" horiz-adv-x="424" 
d="M405 333h-34l-159 307l-159 -307h-34l180 334h26z" />
    <glyph glyph-name="underscore" unicode="_" horiz-adv-x="564" 
d="M567 -70h-570v30h570v-30z" />
    <glyph glyph-name="grave" unicode="`" horiz-adv-x="205" 
d="M205 556h-30l-175 144h45z" />
    <glyph glyph-name="a" unicode="a" horiz-adv-x="514" 
d="M428 0h-30v59q-65 -71 -167 -71q-68 0 -118.5 43.5t-50.5 117.5t50 117.5t119 43.5q102 0 167 -71v109q0 56 -39 88t-97 32q-92 0 -155 -76l-23 20q37 43 78 63t100 20q74 0 120 -37.5t46 -108.5v-349zM239 15q103 0 159 74v120q-56 74 -159 74q-65 0 -104.5 -38.5
t-39.5 -95.5t39.5 -95.5t104.5 -38.5z" />
    <glyph glyph-name="b" unicode="b" horiz-adv-x="566" 
d="M116 111q24 -40 72 -68t102 -28q86 0 134.5 63.5t48.5 162.5t-48.5 163t-134.5 64q-54 0 -102 -29t-72 -69v-259zM116 0h-30v667h30v-267q30 44 75.5 69.5t98.5 25.5q97 0 156.5 -70t59.5 -184q0 -115 -59 -184t-157 -69q-54 0 -101 26.5t-73 66.5v-81z" />
    <glyph glyph-name="c" unicode="c" horiz-adv-x="493" 
d="M288 -12q-102 0 -165 73.5t-63 180.5t63 180t165 73q56 0 94 -20t71 -61l-22 -18q-53 72 -141 72q-91 0 -144 -64.5t-53 -161.5q0 -98 53.5 -162.5t143.5 -64.5q87 0 141 73l22 -19q-33 -41 -71 -61t-94 -20z" />
    <glyph glyph-name="d" unicode="d" horiz-adv-x="566" 
d="M480 0h-30v81q-26 -40 -73 -66.5t-101 -26.5q-98 0 -157 69t-59 184q0 114 59.5 184t156.5 70q53 0 98.5 -25.5t75.5 -69.5v267h30v-667zM276 15q54 0 102 28t72 68v259q-24 40 -72 69t-102 29q-86 0 -134.5 -64t-48.5 -163t48.5 -162.5t134.5 -63.5z" />
    <glyph glyph-name="e" unicode="e" horiz-adv-x="571" 
d="M297 -12q-105 0 -171 71.5t-66 182.5q0 106 65 179.5t162 73.5q106 0 165 -73t59 -180v-10h-417q2 -92 57.5 -154.5t145.5 -62.5q100 0 168 73l18 -19q-78 -81 -186 -81zM479 259q0 49 -20 95.5t-65.5 80t-107.5 33.5q-87 0 -138 -64.5t-54 -144.5h385z" />
    <glyph glyph-name="f" unicode="f" horiz-adv-x="246" 
d="M130 0h-30v456h-80v27h80v51q0 67 32 105t89 38q45 0 82 -30l-18 -24q-29 27 -64 27q-91 0 -91 -116v-51h98v-27h-98v-456z" />
    <glyph glyph-name="g" unicode="g" horiz-adv-x="566" 
d="M276 -196q-63 0 -103.5 15t-81.5 58l22 25q31 -39 68.5 -55t94.5 -16q77 0 125.5 41.5t48.5 124.5v84q-27 -40 -73.5 -67.5t-100.5 -27.5q-98 0 -157 69.5t-59 184.5q0 114 59.5 184.5t156.5 70.5q53 0 98.5 -25.5t75.5 -69.5v83h30v-486q0 -99 -55.5 -146t-148.5 -47z
M276 13q54 0 102 29t72 69v259q-24 40 -72 69t-102 29q-86 0 -134.5 -64.5t-48.5 -163.5t48.5 -163t134.5 -64z" />
    <glyph glyph-name="h" unicode="h" 
d="M442 0h-30v339q0 72 -32 100.5t-93 28.5q-48 0 -96 -26.5t-75 -64.5v-377h-30v667h30v-260q29 35 78 61.5t97 26.5q75 0 113 -36.5t38 -119.5v-339z" />
    <glyph glyph-name="i" unicode="i" horiz-adv-x="202" 
d="M101 566q-11 0 -20 8.5t-9 20.5t9 20.5t20 8.5q12 0 20.5 -8.5t8.5 -20.5t-8.5 -20.5t-20.5 -8.5zM116 0h-30v483h30v-483z" />
    <glyph glyph-name="j" unicode="j" horiz-adv-x="202" 
d="M101 566q-11 0 -20 8.5t-9 20.5t9 20.5t20 8.5q12 0 20.5 -8.5t8.5 -20.5t-8.5 -20.5t-20.5 -8.5zM-3 -196q-51 0 -92 38l19 25q32 -36 73 -36q40 0 64.5 23t24.5 70v559h30v-559q0 -120 -119 -120z" />
    <glyph glyph-name="k" unicode="k" horiz-adv-x="496" 
d="M471 0h-43l-212 243l-100 -92v-151h-30v667h30v-478l315 294h43l-235 -218z" />
    <glyph glyph-name="l" unicode="l" horiz-adv-x="202" 
d="M116 0h-30v667h30v-667z" />
    <glyph glyph-name="m" unicode="m" horiz-adv-x="770" 
d="M684 0h-30v348q0 120 -104 120q-40 0 -83.5 -26.5t-66.5 -63.5v-378h-30v348q0 120 -104 120q-40 0 -82.5 -26.5t-67.5 -64.5v-377h-30v483h30v-76q18 29 63 58.5t92 29.5q53 0 85 -27t40 -65q22 36 66.5 64t92.5 28q129 0 129 -147v-348z" />
    <glyph glyph-name="n" unicode="n" 
d="M442 0h-30v337q0 72 -32 101.5t-93 29.5q-48 0 -96 -26.5t-75 -64.5v-377h-30v483h30v-76q29 35 78 61.5t97 26.5q75 0 113 -37.5t38 -120.5v-337z" />
    <glyph glyph-name="o" unicode="o" horiz-adv-x="570" 
d="M285 -12q-100 0 -162.5 72.5t-62.5 181.5q0 108 62.5 180.5t162.5 72.5q101 0 163 -72t62 -181t-62 -181.5t-163 -72.5zM285 15q89 0 140.5 66.5t51.5 160.5q0 93 -51.5 159.5t-140.5 66.5q-88 0 -140 -66.5t-52 -159.5q0 -94 52 -160.5t140 -66.5z" />
    <glyph glyph-name="p" unicode="p" horiz-adv-x="562" 
d="M290 -12q-53 0 -98.5 25.5t-75.5 69.5v-267h-30v667h30v-81q26 40 73 66.5t101 26.5q98 0 157 -69t59 -184q0 -114 -59.5 -184t-156.5 -70zM290 15q86 0 134.5 64t48.5 163t-48.5 162.5t-134.5 63.5q-54 0 -102 -28t-72 -68v-259q24 -40 72 -69t102 -29z" />
    <glyph glyph-name="q" unicode="q" horiz-adv-x="562" 
d="M272 15q54 0 102 29t72 69v259q-24 40 -72 68t-102 28q-86 0 -134.5 -63.5t-48.5 -162.5t48.5 -163t134.5 -64zM272 -12q-97 0 -156.5 70t-59.5 184q0 115 59 184t157 69q54 0 101 -26.5t73 -66.5v81h30v-667h-30v267q-30 -44 -75.5 -69.5t-98.5 -25.5z" />
    <glyph glyph-name="r" unicode="r" horiz-adv-x="304" 
d="M116 0h-30v483h30v-88q73 97 166 97v-36q-9 1 -24 1q-37 0 -81 -30t-61 -65v-362z" />
    <glyph glyph-name="s" unicode="s" horiz-adv-x="454" 
d="M221 -12q-110 0 -177 77l24 22q54 -72 153 -72q65 0 104 31.5t39 80.5q0 41 -32 65t-77.5 35.5l-91 24t-77.5 40.5t-32 75q0 55 44 91.5t120 36.5q109 0 166 -73l-22 -20q-46 66 -144 66q-62 0 -98 -28.5t-36 -72.5q0 -37 32 -58.5t77.5 -32.5t91 -24t77.5 -43.5
t32 -81.5q0 -60 -44.5 -99.5t-128.5 -39.5z" />
    <glyph glyph-name="t" unicode="t" horiz-adv-x="256" 
d="M174 -12q-82 0 -82 97v371h-80v27h80v132h30v-132h98v-27h-98v-371q0 -70 52 -70q35 0 57 26l18 -23q-32 -30 -75 -30z" />
    <glyph glyph-name="u" unicode="u" 
d="M442 0h-30v74q-33 -37 -80 -61.5t-95 -24.5q-75 0 -113 36.5t-38 119.5v339h30v-339q0 -72 32 -100.5t93 -28.5q48 0 96.5 25.5t74.5 62.5v380h30v-483z" />
    <glyph glyph-name="v" unicode="v" horiz-adv-x="471" 
d="M253 0h-35l-207 483h35l190 -448l189 448h35z" />
    <glyph glyph-name="w" unicode="w" horiz-adv-x="704" 
d="M522 0h-24l-146 438l-146 -438h-24l-160 483h33l140 -436l145 436h24l145 -436l140 436h33z" />
    <glyph glyph-name="x" unicode="x" horiz-adv-x="472" 
d="M450 0h-39l-175 228l-175 -228h-39l197 248l-186 235h39l164 -214l164 214h39l-186 -235z" />
    <glyph glyph-name="y" unicode="y" horiz-adv-x="471" 
d="M50 -189l6 28q18 -8 42 -8q25 0 42.5 14.5t33.5 51.5l44 100l-207 486h35l190 -448l189 448h35l-256 -597q-36 -82 -106 -82q-27 0 -48 7z" />
    <glyph glyph-name="z" unicode="z" horiz-adv-x="466" 
d="M406 0h-346v27l307 429h-307v27h342v-27l-309 -429h313v-27z" />
    <glyph glyph-name="braceleft" unicode="{" horiz-adv-x="237" 
d="M220 -190h-62q-39 0 -69 32t-30 81v234q0 30 -13.5 51t-38.5 21v30q25 0 38.5 21t13.5 51v234q0 49 30 81t69 32h62v-30h-62q-28 0 -48.5 -24t-20.5 -59v-234q0 -68 -45 -87q45 -19 45 -87v-234q0 -35 20.5 -59t48.5 -24h62v-30z" />
    <glyph glyph-name="bar" unicode="|" horiz-adv-x="206" 
d="M118 -20h-30v707h30v-707z" />
    <glyph glyph-name="braceright" unicode="}" horiz-adv-x="237" 
d="M17 -190v30h62q28 0 48.5 24t20.5 59v234q0 68 45 87q-45 19 -45 87v234q0 35 -20.5 59t-48.5 24h-62v30h62q39 0 69 -32t30 -81v-234q0 -30 13.5 -51t38.5 -21v-30q-25 0 -38.5 -21t-13.5 -51v-234q0 -49 -30 -81t-69 -32h-62z" />
    <glyph glyph-name="asciitilde" unicode="~" horiz-adv-x="496" 
d="M438 667l30 -3q-7 -68 -19 -115.5t-40 -81.5t-70 -34q-41 0 -66.5 31.5t-35.5 69.5t-30 69.5t-50 31.5q-79 0 -99 -204l-30 5q10 105 39.5 167t89.5 62q33 0 56 -21t34.5 -50.5t22 -59.5t27.5 -51t42 -21q42 0 65.5 50.5t33.5 154.5z" />
    <glyph glyph-name="nbspace" unicode="&#xa0;" horiz-adv-x="260" 
 />
    <glyph glyph-name="exclamdown" unicode="&#xa1;" horiz-adv-x="208" 
d="M83 -184l11 506h20l11 -506h-42zM71 459q0 13 9.5 23t23.5 10t23.5 -10t9.5 -23t-10 -22.5t-23 -9.5t-23 9.5t-10 22.5z" />
    <glyph glyph-name="cent" unicode="&#xa2;" horiz-adv-x="493" 
d="M262 -100v90q-92 10 -147 81t-55 171t55 170.5t147 80.5v72h30v-70q96 -1 161 -81l-22 -18q-53 70 -139 72v-453q85 0 139 73l22 -19q-65 -80 -161 -81v-88h-30zM93 242q0 -89 45.5 -152.5t123.5 -73.5v450q-79 -10 -124 -72.5t-45 -151.5z" />
    <glyph glyph-name="sterling" unicode="&#xa3;" horiz-adv-x="491" 
d="M17 267v30h143q-7 8 -34 36t-38.5 43.5t-24 46.5t-12.5 66q0 75 58.5 131.5t149.5 56.5q55 0 103.5 -28.5t71.5 -75.5l-26 -18q-15 36 -56 64t-93 28q-73 0 -124 -42.5t-51 -115.5q0 -33 12 -63t26 -47t37.5 -42.5t34.5 -39.5h152v-30h-133q16 -30 16 -64
q0 -50 -22.5 -84t-63.5 -65q28 10 55 10q35 0 83.5 -24t78.5 -24q32 0 62 14t42 29l18 -27q-48 -46 -124 -46q-46 0 -90 24t-88 24q-39 0 -119 -41l-14 33q76 32 114 78t38 99q0 33 -18 64h-164z" />
    <glyph glyph-name="currency" unicode="&#xa4;" horiz-adv-x="577" 
d="M288 99q-94 0 -155 59l-80 -80l-21 21l81 81q-50 64 -50 153q0 91 51 154l-83 83l21 21l82 -83q63 58 154 58q92 0 154 -57l81 81l21 -21l-82 -82q51 -63 51 -154q0 -89 -50 -153l81 -81l-21 -21l-80 80q-62 -59 -155 -59zM288 129q89 0 140.5 60t51.5 144t-51.5 143.5
t-140.5 59.5q-88 0 -140 -60t-52 -143q0 -84 52 -144t140 -60z" />
    <glyph glyph-name="yen" unicode="&#xa5;" horiz-adv-x="610" 
d="M321 0h-32v129h-268v30h268v130h-268v30h246l-246 348h41l243 -346l243 346h41l-247 -348h247v-30h-268v-130h268v-30h-268v-129z" />
    <glyph glyph-name="brokenbar" unicode="&#xa6;" horiz-adv-x="206" 
d="M118 -20h-30v316h30v-316zM118 371h-30v316h30v-316z" />
    <glyph glyph-name="section" unicode="&#xa7;" horiz-adv-x="454" 
d="M394 306q0 -88 -100 -127q50 -18 75 -46.5t25 -74.5q0 -65 -47.5 -102t-125.5 -37q-65 0 -104.5 20t-72.5 57l24 22q54 -72 153 -72q63 0 103 30.5t40 81.5q0 40 -32 64.5t-77.5 36l-91 24t-77.5 40.5t-32 75q0 52 35.5 84.5t94.5 45.5q-64 18 -97 45t-33 76q0 54 43 91
t121 37q108 0 166 -73l-22 -20q-48 66 -144 66q-58 0 -96 -28.5t-38 -74.5q0 -37 32 -58.5t77.5 -32t91 -23t77.5 -44t32 -83.5zM364 309q0 25 -11.5 43.5t-35 31t-41.5 19t-50 14.5q-79 -21 -110.5 -50t-31.5 -71q0 -23 12.5 -40t34 -27.5t49 -18.5t58.5 -16q15 -3 22 -5
q104 45 104 120z" />
    <glyph glyph-name="dieresis" unicode="&#xa8;" horiz-adv-x="252" 
d="M255 598q0 -11 -8.5 -19.5t-19.5 -8.5t-19.5 8.5t-8.5 19.5t8.5 19.5t19.5 8.5t19.5 -8.5t8.5 -19.5zM53 598q0 -11 -8.5 -19.5t-19.5 -8.5t-19.5 8.5t-8.5 19.5t8.5 19.5t19.5 8.5t19.5 -8.5t8.5 -19.5z" />
    <glyph glyph-name="copyright" unicode="&#xa9;" horiz-adv-x="778" 
d="M734 334q0 -143 -101 -244t-244 -101t-244 101.5t-101 243.5q0 143 101 244t244 101t244 -101t101 -244zM708 334q0 132 -93.5 225.5t-225.5 93.5q-131 0 -225 -93.5t-94 -225.5q0 -131 94 -225t225 -94q132 0 225.5 94t93.5 225zM513 204l20 -20q-56 -65 -144 -65
q-87 0 -147.5 63t-60.5 154t60.5 152.5t147.5 61.5q89 0 144 -64l-20 -20q-19 26 -53.5 41.5t-70.5 15.5q-73 0 -126 -52.5t-53 -135.5q0 -81 53.5 -135t125.5 -54q36 0 70.5 16t53.5 42z" />
    <glyph glyph-name="ordfeminine" unicode="&#xaa;" horiz-adv-x="372" 
d="M303 326h-27v38q-45 -46 -113 -46q-45 0 -79 29t-34 76q0 48 33.5 76t79.5 28q68 0 113 -46v68q0 35 -27 54.5t-63 19.5q-64 0 -103 -50l-18 19q48 56 122 56q52 0 84 -25t32 -74v-223zM172 340q67 0 104 46v73q-37 46 -104 46q-41 0 -67 -23.5t-26 -58.5
q0 -36 25.5 -59.5t67.5 -23.5z" />
    <glyph glyph-name="guillemotleft" unicode="&#xab;" horiz-adv-x="364" 
d="M334 63h-39l-160 180l160 177h39l-160 -177zM229 63h-39l-160 180l160 177h39l-160 -177z" />
    <glyph glyph-name="logicalnot" unicode="&#xac;" horiz-adv-x="494" 
d="M465 448v-228h-32v198h-404v30h436z" />
    <glyph glyph-name="uni00AD" unicode="&#xad;" horiz-adv-x="300" 
d="M270 227h-240v30h240v-30z" />
    <glyph glyph-name="registered" unicode="&#xae;" horiz-adv-x="494" 
d="M459 465q0 -88 -62 -150t-150 -62t-150 62t-62 150t62 150t150 62q89 0 150.5 -61.5t61.5 -150.5zM433 465q0 78 -54.5 132t-131.5 54t-131.5 -54t-54.5 -132q0 -77 54.5 -131.5t131.5 -54.5t131.5 54.5t54.5 131.5zM343 343h-37l-63 96h-47v-96h-29v243h99
q31 0 52.5 -20.5t21.5 -53.5q0 -35 -22.5 -53.5t-39.5 -18.5zM310 512q0 20 -14 33.5t-30 13.5h-70v-92h70q16 0 30 13.5t14 31.5z" />
    <glyph glyph-name="macron" unicode="&#xaf;" horiz-adv-x="363" 
d="M363 581h-363v27h363v-27z" />
    <glyph glyph-name="degree" unicode="&#xb0;" horiz-adv-x="273" 
d="M247 566q0 -46 -32.5 -78t-78.5 -32t-78 32t-32 78t32 78.5t78 32.5t78.5 -32.5t32.5 -78.5zM217 566q0 33 -24 57t-57 24t-56.5 -24t-23.5 -57t23.5 -56.5t56.5 -23.5t57 23.5t24 56.5z" />
    <glyph glyph-name="plusminus" unicode="&#xb1;" horiz-adv-x="494" 
d="M465 322h-202v-222h-32v222h-202v30h202v216h32v-216h202v-30zM465 0h-436v30h436v-30z" />
    <glyph glyph-name="twosuperior" unicode="&#xb2;" horiz-adv-x="380" 
d="M325 421h-271v24q119 86 179.5 149t60.5 120q0 44 -29.5 65.5t-70.5 21.5q-78 0 -114 -53l-20 18q43 61 135 61q50 0 89 -28t39 -84q0 -64 -57.5 -126t-167.5 -142h227v-26z" />
    <glyph glyph-name="threesuperior" unicode="&#xb3;" horiz-adv-x="380" 
d="M326 528q0 -51 -37 -82.5t-101 -31.5q-48 0 -84 18.5t-54 47.5l20 17q40 -57 118 -57q50 0 79 23.5t29 64.5q0 44 -33 65.5t-84 21.5q-30 0 -36 -1v27q6 -1 36 -1q48 0 79.5 20t31.5 61q0 37 -30 58.5t-73 21.5q-67 0 -113 -52l-19 18q51 60 133 60q55 0 93 -28.5
t38 -76.5q0 -43 -28 -66t-61 -28q33 -3 64.5 -28.5t31.5 -71.5z" />
    <glyph glyph-name="acute" unicode="&#xb4;" horiz-adv-x="205" 
d="M205 700l-175 -144h-30l160 144h45z" />
    <glyph glyph-name="mu" unicode="&#xb5;" horiz-adv-x="542" 
d="M116 53v-237h-30v667h30v-339q0 -131 127 -131q47 0 95 26.5t74 63.5v380h30v-398q0 -70 52 -70q12 0 20 2l3 -27q-12 -2 -23 -2q-75 0 -82 86q-32 -37 -77.5 -61.5t-91.5 -24.5q-95 0 -127 65z" />
    <glyph glyph-name="paragraph" unicode="&#xb6;" horiz-adv-x="449" 
d="M357 -100h-30v737h-98v-737h-30v423q-71 0 -121.5 50.5t-50.5 121.5t50.5 121.5t121.5 50.5h158v-767z" />
    <glyph glyph-name="periodcentered" unicode="&#xb7;" horiz-adv-x="208" 
d="M137 245q0 -13 -9.5 -23t-23.5 -10t-23.5 10t-9.5 23t10 22.5t23 9.5t23 -9.5t10 -22.5z" />
    <glyph glyph-name="cedilla" unicode="&#xb8;" horiz-adv-x="191" 
d="M93 -187q-58 0 -93 28l14 27q32 -28 79 -28q29 0 49 13.5t20 35.5q0 43 -44 43q-27 0 -43 -19l-22 13l31 85h30l-26 -69q15 12 38 12q29 0 47 -17.5t18 -47.5q0 -33 -28 -54.5t-70 -21.5z" />
    <glyph glyph-name="onesuperior" unicode="&#xb9;" horiz-adv-x="192" 
d="M132 421h-30v360l-63 -69l-19 20l85 89h27v-400z" />
    <glyph glyph-name="ordmasculine" unicode="&#xba;" horiz-adv-x="405" 
d="M202 318q-68 0 -111 47.5t-43 117.5q0 71 43 118t111 47q69 0 112 -47t43 -118q0 -70 -43 -117.5t-112 -47.5zM202 344q58 0 92 40.5t34 98.5t-34 98t-92 40q-57 0 -90.5 -40t-33.5 -98t33.5 -98.5t90.5 -40.5z" />
    <glyph glyph-name="guillemotright" unicode="&#xbb;" horiz-adv-x="364" 
d="M229 243l-160 -180h-39l160 180l-160 177h39zM334 243l-160 -180h-39l160 180l-160 177h39z" />
    <glyph glyph-name="onequarter" unicode="&#xbc;" horiz-adv-x="715" 
d="M132 267h-30v360l-63 -69l-19 20l85 89h27v-400zM669 113h-62v-113h-29v113h-196v26l186 261h39v-261h62v-26zM578 139v232l-165 -232h165zM546 667l-427 -667h-36l426 667h37z" />
    <glyph glyph-name="onehalf" unicode="&#xbd;" horiz-adv-x="755" 
d="M132 267h-30v360l-63 -69l-19 20l85 89h27v-400zM700 0h-271v24q119 86 179.5 149t60.5 120q0 44 -29.5 65.5t-70.5 21.5q-78 0 -114 -53l-20 18q43 61 135 61q50 0 89 -28t39 -84q0 -64 -57.5 -126t-167.5 -142h227v-26zM546 667l-427 -667h-36l426 667h37z" />
    <glyph glyph-name="threequarters" unicode="&#xbe;" horiz-adv-x="841" 
d="M795 113h-62v-113h-29v113h-196v26l186 261h39v-261h62v-26zM704 139v232l-165 -232h165zM672 667l-427 -667h-36l426 667h37zM326 374q0 -51 -37 -82.5t-101 -31.5q-48 0 -84 18.5t-54 47.5l20 17q40 -57 118 -57q50 0 79 23.5t29 64.5q0 44 -33 65.5t-84 21.5
q-30 0 -36 -1v27q6 -1 36 -1q48 0 79.5 20t31.5 61q0 37 -30 58.5t-73 21.5q-67 0 -113 -52l-19 18q51 60 133 60q55 0 93 -28.5t38 -76.5q0 -43 -28 -66t-61 -28q33 -3 64.5 -28.5t31.5 -71.5z" />
    <glyph glyph-name="questiondown" unicode="&#xbf;" horiz-adv-x="391" 
d="M242 312q44 -33 44 -76q0 -37 -21.5 -67t-52.5 -50.5l-62 -42t-52.5 -52t-21.5 -68.5q0 -52 40 -87.5t111 -35.5q68 0 112.5 25t78.5 73l23 -21q-75 -107 -214 -107q-85 0 -135.5 44.5t-50.5 108.5q0 36 16 66.5t40 50t51.5 39.5l51.5 36.5t40 39t16 48.5q0 30 -33 53z
M245 492q13 0 23 -10t10 -23t-10 -22.5t-23 -9.5t-23 9.5t-10 22.5t10 23t23 10z" />
    <glyph glyph-name="Agrave" unicode="&#xc0;" horiz-adv-x="636" 
d="M615 0h-37l-74 179h-372l-74 -179h-37l278 667h38zM492 209l-174 421l-174 -421h348zM369 723h-30l-175 144h45z" />
    <glyph glyph-name="Aacute" unicode="&#xc1;" horiz-adv-x="636" 
d="M615 0h-37l-74 179h-372l-74 -179h-37l278 667h38zM492 209l-174 421l-174 -421h348zM472 867l-175 -144h-30l160 144h45z" />
    <glyph glyph-name="Acircumflex" unicode="&#xc2;" horiz-adv-x="636" 
d="M437 723h-28l-91 120l-88 -120h-28l98 144h36zM615 0h-37l-74 179h-372l-74 -179h-37l278 667h38zM492 209l-174 421l-174 -421h348z" />
    <glyph glyph-name="Atilde" unicode="&#xc3;" horiz-adv-x="636" 
d="M615 0h-37l-74 179h-372l-74 -179h-37l278 667h38zM492 209l-174 421l-174 -421h348zM381 721q-26 0 -44.5 17.5t-27 39t-23 39t-33.5 17.5q-26 0 -42.5 -26.5t-16.5 -80.5h-26q0 57 23.5 95.5t64.5 38.5q26 0 44.5 -17.5t27 -39t23 -39t33.5 -17.5q26 0 42.5 26.5
t16.5 80.5h26q0 -57 -23.5 -95.5t-64.5 -38.5z" />
    <glyph glyph-name="Adieresis" unicode="&#xc4;" horiz-adv-x="636" 
d="M448 765q0 -11 -8.5 -19.5t-19.5 -8.5t-19.5 8.5t-8.5 19.5t8.5 19.5t19.5 8.5t19.5 -8.5t8.5 -19.5zM246 765q0 -11 -8.5 -19.5t-19.5 -8.5t-19.5 8.5t-8.5 19.5t8.5 19.5t19.5 8.5t19.5 -8.5t8.5 -19.5zM615 0h-37l-74 179h-372l-74 -179h-37l278 667h38zM492 209
l-174 421l-174 -421h348z" />
    <glyph glyph-name="Aring" unicode="&#xc5;" horiz-adv-x="636" 
d="M615 0h-37l-74 179h-372l-74 -179h-37l278 667h38zM492 209l-174 421l-174 -421h348zM319 692q-38 0 -65.5 27.5t-27.5 65.5t27.5 65.5t65.5 27.5t65 -27.5t27 -65.5t-27 -65.5t-65 -27.5zM319 716q28 0 48 20t20 49t-20 49t-48 20q-29 0 -49 -20t-20 -49t20 -49t49 -20z
" />
    <glyph glyph-name="AE" unicode="&#xc6;" horiz-adv-x="930" 
d="M865 0h-408v179h-286l-113 -179h-37l425 667h419v-30h-376v-279h369v-30h-369v-298h376v-30zM457 209v421l-269 -421h269z" />
    <glyph glyph-name="Ccedilla" unicode="&#xc7;" horiz-adv-x="667" 
d="M392 -183q-58 0 -93 28l14 27q32 -28 79 -28q29 0 49 13.5t20 35.5q0 43 -44 43q-27 0 -43 -19l-22 13l21 59q-132 9 -220 104.5t-88 239.5q0 151 96 248t237 97t232 -105l-25 -22q-36 45 -90.5 71t-116.5 26q-127 0 -212.5 -88t-85.5 -227q0 -138 85.5 -226.5
t212.5 -88.5q62 0 116.5 26t90.5 71l26 -21q-93 -105 -228 -106l-16 -42q15 12 38 12q29 0 47 -17.5t18 -47.5q0 -33 -28 -54.5t-70 -21.5z" />
    <glyph glyph-name="Egrave" unicode="&#xc8;" horiz-adv-x="558" 
d="M496 0h-408v667h408v-30h-376v-279h369v-30h-369v-298h376v-30zM343 723h-30l-175 144h45z" />
    <glyph glyph-name="Eacute" unicode="&#xc9;" horiz-adv-x="558" 
d="M446 867l-175 -144h-30l160 144h45zM496 0h-408v667h408v-30h-376v-279h369v-30h-369v-298h376v-30z" />
    <glyph glyph-name="Ecircumflex" unicode="&#xca;" horiz-adv-x="558" 
d="M408 723h-28l-91 120l-88 -120h-28l98 144h36zM496 0h-408v667h408v-30h-376v-279h369v-30h-369v-298h376v-30z" />
    <glyph glyph-name="Edieresis" unicode="&#xcb;" horiz-adv-x="558" 
d="M419 765q0 -11 -8.5 -19.5t-19.5 -8.5t-19.5 8.5t-8.5 19.5t8.5 19.5t19.5 8.5t19.5 -8.5t8.5 -19.5zM217 765q0 -11 -8.5 -19.5t-19.5 -8.5t-19.5 8.5t-8.5 19.5t8.5 19.5t19.5 8.5t19.5 -8.5t8.5 -19.5zM496 0h-408v667h408v-30h-376v-279h369v-30h-369v-298h376v-30z
" />
    <glyph glyph-name="Igrave" unicode="&#xcc;" horiz-adv-x="208" 
d="M120 0h-32v667h32v-667zM155 723h-30l-175 144h45z" />
    <glyph glyph-name="Iacute" unicode="&#xcd;" horiz-adv-x="208" 
d="M120 0h-32v667h32v-667zM258 867l-175 -144h-30l160 144h45z" />
    <glyph glyph-name="Icircumflex" unicode="&#xce;" horiz-adv-x="208" 
d="M223 723h-28l-91 120l-88 -120h-28l98 144h36zM120 0h-32v667h32v-667z" />
    <glyph glyph-name="Idieresis" unicode="&#xcf;" horiz-adv-x="208" 
d="M233 765q0 -11 -8.5 -19.5t-19.5 -8.5t-19.5 8.5t-8.5 19.5t8.5 19.5t19.5 8.5t19.5 -8.5t8.5 -19.5zM31 765q0 -11 -8.5 -19.5t-19.5 -8.5t-19.5 8.5t-8.5 19.5t8.5 19.5t19.5 8.5t19.5 -8.5t8.5 -19.5zM120 0h-32v667h32v-667z" />
    <glyph glyph-name="Eth" unicode="&#xd0;" horiz-adv-x="715" 
d="M317 0h-198v318h-107v30h107v319h198q150 0 241 -97.5t91 -236.5q0 -140 -90.5 -236.5t-241.5 -96.5zM317 30q138 0 217.5 86t79.5 217q0 130 -80 217t-217 87h-166v-289h188v-30h-188v-288h166z" />
    <glyph glyph-name="Ntilde" unicode="&#xd1;" horiz-adv-x="690" 
d="M406 721q-26 0 -44.5 17.5t-27 39t-23 39t-33.5 17.5q-26 0 -42.5 -26.5t-16.5 -80.5h-26q0 57 23.5 95.5t64.5 38.5q26 0 44.5 -17.5t27 -39t23 -39t33.5 -17.5q26 0 42.5 26.5t16.5 80.5h26q0 -57 -23.5 -95.5t-64.5 -38.5zM602 0h-32l-450 615v-615h-32v667h32
l450 -609v609h32v-667z" />
    <glyph glyph-name="Ograve" unicode="&#xd2;" horiz-adv-x="764" 
d="M433 723h-30l-175 144h45zM382 -12q-143 0 -230 98.5t-87 246.5t87 246.5t230 98.5q142 0 229.5 -98.5t87.5 -246.5t-87.5 -246.5t-229.5 -98.5zM382 18q127 0 204.5 88.5t77.5 226.5q0 139 -77.5 227t-204.5 88q-128 0 -205 -88t-77 -227q0 -138 77 -226.5t205 -88.5z
" />
    <glyph glyph-name="Oacute" unicode="&#xd3;" horiz-adv-x="764" 
d="M536 867l-175 -144h-30l160 144h45zM382 -12q-143 0 -230 98.5t-87 246.5t87 246.5t230 98.5q142 0 229.5 -98.5t87.5 -246.5t-87.5 -246.5t-229.5 -98.5zM382 18q127 0 204.5 88.5t77.5 226.5q0 139 -77.5 227t-204.5 88q-128 0 -205 -88t-77 -227q0 -138 77 -226.5
t205 -88.5z" />
    <glyph glyph-name="Ocircumflex" unicode="&#xd4;" horiz-adv-x="764" 
d="M501 723h-28l-91 120l-88 -120h-28l98 144h36zM382 -12q-143 0 -230 98.5t-87 246.5t87 246.5t230 98.5q142 0 229.5 -98.5t87.5 -246.5t-87.5 -246.5t-229.5 -98.5zM382 18q127 0 204.5 88.5t77.5 226.5q0 139 -77.5 227t-204.5 88q-128 0 -205 -88t-77 -227
q0 -138 77 -226.5t205 -88.5z" />
    <glyph glyph-name="Otilde" unicode="&#xd5;" horiz-adv-x="764" 
d="M382 -12q-143 0 -230 98.5t-87 246.5t87 246.5t230 98.5q142 0 229.5 -98.5t87.5 -246.5t-87.5 -246.5t-229.5 -98.5zM382 18q127 0 204.5 88.5t77.5 226.5q0 139 -77.5 227t-204.5 88q-128 0 -205 -88t-77 -227q0 -138 77 -226.5t205 -88.5zM445 721q-26 0 -44.5 17.5
t-27 39t-23 39t-33.5 17.5q-26 0 -42.5 -26.5t-16.5 -80.5h-26q0 57 23.5 95.5t64.5 38.5q26 0 44.5 -17.5t27 -39t23 -39t33.5 -17.5q26 0 42.5 26.5t16.5 80.5h26q0 -57 -23.5 -95.5t-64.5 -38.5z" />
    <glyph glyph-name="Odieresis" unicode="&#xd6;" horiz-adv-x="764" 
d="M509 765q0 -11 -8.5 -19.5t-19.5 -8.5t-19.5 8.5t-8.5 19.5t8.5 19.5t19.5 8.5t19.5 -8.5t8.5 -19.5zM307 765q0 -11 -8.5 -19.5t-19.5 -8.5t-19.5 8.5t-8.5 19.5t8.5 19.5t19.5 8.5t19.5 -8.5t8.5 -19.5zM382 -12q-143 0 -230 98.5t-87 246.5t87 246.5t230 98.5
q142 0 229.5 -98.5t87.5 -246.5t-87.5 -246.5t-229.5 -98.5zM382 18q127 0 204.5 88.5t77.5 226.5q0 139 -77.5 227t-204.5 88q-128 0 -205 -88t-77 -227q0 -138 77 -226.5t205 -88.5z" />
    <glyph glyph-name="multiply" unicode="&#xd7;" horiz-adv-x="494" 
d="M402 158l-155 155l-155 -155l-21 21l155 155l-155 155l21 21l155 -155l155 155l21 -21l-155 -155l155 -155z" />
    <glyph glyph-name="Oslash" unicode="&#xd8;" horiz-adv-x="764" 
d="M382 -12q-92 0 -163 43l-18 -31h-36l29 48q-62 47 -95.5 121t-33.5 164q0 148 87 246.5t230 98.5q89 0 162 -43l19 32h36l-30 -50q62 -46 96 -120.5t34 -163.5q0 -148 -87.5 -246.5t-229.5 -98.5zM382 18q127 0 204.5 88.5t77.5 226.5q0 169 -111 258l-318 -534
q64 -39 147 -39zM100 333q0 -170 110 -258l318 534q-64 39 -146 39q-128 0 -205 -88t-77 -227z" />
    <glyph glyph-name="Ugrave" unicode="&#xd9;" horiz-adv-x="672" 
d="M336 -12q-120 0 -184 70t-64 195v414h32v-414q0 -112 56 -173.5t160 -61.5t160 61.5t56 173.5v414h32v-414q0 -125 -64 -195t-184 -70zM387 723h-30l-175 144h45z" />
    <glyph glyph-name="Uacute" unicode="&#xda;" horiz-adv-x="672" 
d="M490 867l-175 -144h-30l160 144h45zM336 -12q-120 0 -184 70t-64 195v414h32v-414q0 -112 56 -173.5t160 -61.5t160 61.5t56 173.5v414h32v-414q0 -125 -64 -195t-184 -70z" />
    <glyph glyph-name="Ucircumflex" unicode="&#xdb;" horiz-adv-x="672" 
d="M457 723h-28l-91 120l-88 -120h-28l98 144h36zM336 -12q-120 0 -184 70t-64 195v414h32v-414q0 -112 56 -173.5t160 -61.5t160 61.5t56 173.5v414h32v-414q0 -125 -64 -195t-184 -70z" />
    <glyph glyph-name="Udieresis" unicode="&#xdc;" horiz-adv-x="672" 
d="M465 765q0 -11 -8.5 -19.5t-19.5 -8.5t-19.5 8.5t-8.5 19.5t8.5 19.5t19.5 8.5t19.5 -8.5t8.5 -19.5zM263 765q0 -11 -8.5 -19.5t-19.5 -8.5t-19.5 8.5t-8.5 19.5t8.5 19.5t19.5 8.5t19.5 -8.5t8.5 -19.5zM336 -12q-120 0 -184 70t-64 195v414h32v-414q0 -112 56 -173.5
t160 -61.5t160 61.5t56 173.5v414h32v-414q0 -125 -64 -195t-184 -70z" />
    <glyph glyph-name="Yacute" unicode="&#xdd;" horiz-adv-x="610" 
d="M321 0h-32v289l-268 378h41l243 -346l243 346h41l-268 -378v-289zM459 867l-175 -144h-30l160 144h45z" />
    <glyph glyph-name="Thorn" unicode="&#xde;" horiz-adv-x="555" 
d="M120 0h-32v667h32v-129h199q90 0 142.5 -55t52.5 -135q0 -79 -53 -133.5t-142 -54.5h-199v-160zM318 190q73 0 117 44t44 114t-44 115t-117 45h-198v-318h198z" />
    <glyph glyph-name="germandbls" unicode="&#xdf;" horiz-adv-x="558" 
d="M536 127q0 -57 -43 -98t-130 -41q-65 0 -104.5 20t-72.5 57l24 22q55 -72 153 -72q69 0 106 33t37 79q0 41 -32 65t-77.5 35.5l-91 24t-77.5 40.5t-32 75q0 38 26 67t57 44.5t57 38.5t26 50q0 38 -36.5 60.5t-81.5 22.5q-54 0 -91 -36t-37 -95v-519h-30v519q0 68 44 113
t114 45q62 0 105 -30.5t43 -79.5q0 -36 -26 -62.5t-57 -41t-57 -40t-26 -58.5q0 -37 32 -58.5t77.5 -32t91 -23t77.5 -43t32 -81.5z" />
    <glyph glyph-name="agrave" unicode="&#xe0;" horiz-adv-x="514" 
d="M428 0h-30v59q-65 -71 -167 -71q-68 0 -118.5 43.5t-50.5 117.5t50 117.5t119 43.5q102 0 167 -71v109q0 56 -39 88t-97 32q-92 0 -155 -76l-23 20q37 43 78 63t100 20q74 0 120 -37.5t46 -108.5v-349zM239 15q103 0 159 74v120q-56 74 -159 74q-65 0 -104.5 -38.5
t-39.5 -95.5t39.5 -95.5t104.5 -38.5zM313 556h-30l-175 144h45z" />
    <glyph glyph-name="aacute" unicode="&#xe1;" horiz-adv-x="514" 
d="M428 0h-30v59q-65 -71 -167 -71q-68 0 -118.5 43.5t-50.5 117.5t50 117.5t119 43.5q102 0 167 -71v109q0 56 -39 88t-97 32q-92 0 -155 -76l-23 20q37 43 78 63t100 20q74 0 120 -37.5t46 -108.5v-349zM239 15q103 0 159 74v120q-56 74 -159 74q-65 0 -104.5 -38.5
t-39.5 -95.5t39.5 -95.5t104.5 -38.5zM416 700l-175 -144h-30l160 144h45z" />
    <glyph glyph-name="acircumflex" unicode="&#xe2;" horiz-adv-x="514" 
d="M428 0h-30v59q-65 -71 -167 -71q-68 0 -118.5 43.5t-50.5 117.5t50 117.5t119 43.5q102 0 167 -71v109q0 56 -39 88t-97 32q-92 0 -155 -76l-23 20q37 43 78 63t100 20q74 0 120 -37.5t46 -108.5v-349zM239 15q103 0 159 74v120q-56 74 -159 74q-65 0 -104.5 -38.5
t-39.5 -95.5t39.5 -95.5t104.5 -38.5zM381 556h-28l-91 120l-88 -120h-28l98 144h36z" />
    <glyph glyph-name="atilde" unicode="&#xe3;" horiz-adv-x="514" 
d="M428 0h-30v59q-65 -71 -167 -71q-68 0 -118.5 43.5t-50.5 117.5t50 117.5t119 43.5q102 0 167 -71v109q0 56 -39 88t-97 32q-92 0 -155 -76l-23 20q37 43 78 63t100 20q74 0 120 -37.5t46 -108.5v-349zM239 15q103 0 159 74v120q-56 74 -159 74q-65 0 -104.5 -38.5
t-39.5 -95.5t39.5 -95.5t104.5 -38.5zM324 554q-26 0 -44.5 17.5t-27 39t-23 39t-33.5 17.5q-26 0 -42.5 -26.5t-16.5 -80.5h-26q0 57 23.5 95.5t64.5 38.5q26 0 44.5 -17.5t27 -39t23 -39t33.5 -17.5q26 0 42.5 26.5t16.5 80.5h26q0 -57 -23.5 -95.5t-64.5 -38.5z" />
    <glyph glyph-name="adieresis" unicode="&#xe4;" horiz-adv-x="514" 
d="M428 0h-30v59q-65 -71 -167 -71q-68 0 -118.5 43.5t-50.5 117.5t50 117.5t119 43.5q102 0 167 -71v109q0 56 -39 88t-97 32q-92 0 -155 -76l-23 20q37 43 78 63t100 20q74 0 120 -37.5t46 -108.5v-349zM239 15q103 0 159 74v120q-56 74 -159 74q-65 0 -104.5 -38.5
t-39.5 -95.5t39.5 -95.5t104.5 -38.5zM389 598q0 -11 -8.5 -19.5t-19.5 -8.5t-19.5 8.5t-8.5 19.5t8.5 19.5t19.5 8.5t19.5 -8.5t8.5 -19.5zM187 598q0 -11 -8.5 -19.5t-19.5 -8.5t-19.5 8.5t-8.5 19.5t8.5 19.5t19.5 8.5t19.5 -8.5t8.5 -19.5z" />
    <glyph glyph-name="aring" unicode="&#xe5;" horiz-adv-x="514" 
d="M428 0h-30v59q-65 -71 -167 -71q-68 0 -118.5 43.5t-50.5 117.5t50 117.5t119 43.5q102 0 167 -71v109q0 56 -39 88t-97 32q-92 0 -155 -76l-23 20q37 43 78 63t100 20q74 0 120 -37.5t46 -108.5v-349zM239 15q103 0 159 74v120q-56 74 -159 74q-65 0 -104.5 -38.5
t-39.5 -95.5t39.5 -95.5t104.5 -38.5zM261 553q-38 0 -65.5 27.5t-27.5 65.5t27.5 65.5t65.5 27.5t65 -27.5t27 -65.5t-27 -65.5t-65 -27.5zM261 577q28 0 48 20t20 49t-20 49t-48 20q-29 0 -49 -20.5t-20 -48.5t20 -48.5t49 -20.5z" />
    <glyph glyph-name="ae" unicode="&#xe6;" horiz-adv-x="905" 
d="M845 232h-391q3 -92 54 -154.5t134 -62.5q93 0 157 73l18 -19q-71 -81 -174 -81q-68 0 -120.5 37t-77.5 105q-21 -65 -72.5 -103.5t-119.5 -38.5q-84 0 -137.5 43.5t-53.5 118.5q0 74 52.5 117t127.5 43q112 0 182 -69v107q0 57 -40 88.5t-108 31.5q-100 0 -169 -76
l-23 20q71 83 200 83q61 0 111 -29.5t57 -94.5q23 54 72.5 89t108.5 35q101 0 156.5 -73t55.5 -180v-10zM454 259h359q0 81 -46 145t-134 64q-80 0 -128 -64.5t-51 -144.5zM424 188v19q-61 76 -172 76q-71 0 -114 -38.5t-43 -95.5t43 -95.5t114 -38.5q78 0 125 51t47 122z
" />
    <glyph glyph-name="ccedilla" unicode="&#xe7;" horiz-adv-x="493" 
d="M288 -185q-58 0 -93 28l14 27q32 -28 79 -28q29 0 49 13.5t20 35.5q0 43 -44 43q-27 0 -43 -19l-22 13l22 61q-95 7 -152.5 79t-57.5 174q0 107 63 180t165 73q56 0 94 -20t71 -61l-22 -18q-53 72 -141 72q-91 0 -144 -64.5t-53 -161.5q0 -98 53.5 -162.5t143.5 -64.5
q87 0 141 73l22 -19q-61 -77 -154 -81l-16 -44q15 12 38 12q29 0 47 -17.5t18 -47.5q0 -33 -28 -54.5t-70 -21.5z" />
    <glyph glyph-name="egrave" unicode="&#xe8;" horiz-adv-x="571" 
d="M297 -12q-105 0 -171 71.5t-66 182.5q0 106 65 179.5t162 73.5q106 0 165 -73t59 -180v-10h-417q2 -92 57.5 -154.5t145.5 -62.5q100 0 168 73l18 -19q-78 -81 -186 -81zM479 259q0 49 -20 95.5t-65.5 80t-107.5 33.5q-87 0 -138 -64.5t-54 -144.5h385zM338 556h-30
l-175 144h45z" />
    <glyph glyph-name="eacute" unicode="&#xe9;" horiz-adv-x="571" 
d="M441 700l-175 -144h-30l160 144h45zM297 -12q-105 0 -171 71.5t-66 182.5q0 106 65 179.5t162 73.5q106 0 165 -73t59 -180v-10h-417q2 -92 57.5 -154.5t145.5 -62.5q100 0 168 73l18 -19q-78 -81 -186 -81zM479 259q0 49 -20 95.5t-65.5 80t-107.5 33.5
q-87 0 -138 -64.5t-54 -144.5h385z" />
    <glyph glyph-name="ecircumflex" unicode="&#xea;" horiz-adv-x="571" 
d="M407 556h-28l-91 120l-88 -120h-28l98 144h36zM297 -12q-105 0 -171 71.5t-66 182.5q0 106 65 179.5t162 73.5q106 0 165 -73t59 -180v-10h-417q2 -92 57.5 -154.5t145.5 -62.5q100 0 168 73l18 -19q-78 -81 -186 -81zM479 259q0 49 -20 95.5t-65.5 80t-107.5 33.5
q-87 0 -138 -64.5t-54 -144.5h385z" />
    <glyph glyph-name="edieresis" unicode="&#xeb;" horiz-adv-x="571" 
d="M417 598q0 -11 -8.5 -19.5t-19.5 -8.5t-19.5 8.5t-8.5 19.5t8.5 19.5t19.5 8.5t19.5 -8.5t8.5 -19.5zM215 598q0 -11 -8.5 -19.5t-19.5 -8.5t-19.5 8.5t-8.5 19.5t8.5 19.5t19.5 8.5t19.5 -8.5t8.5 -19.5zM297 -12q-105 0 -171 71.5t-66 182.5q0 106 65 179.5t162 73.5
q106 0 165 -73t59 -180v-10h-417q2 -92 57.5 -154.5t145.5 -62.5q100 0 168 73l18 -19q-78 -81 -186 -81zM479 259q0 49 -20 95.5t-65.5 80t-107.5 33.5q-87 0 -138 -64.5t-54 -144.5h385z" />
    <glyph glyph-name="igrave" unicode="&#xec;" horiz-adv-x="202" 
d="M116 0h-30v483h30v-483zM152 556h-30l-175 144h45z" />
    <glyph glyph-name="iacute" unicode="&#xed;" horiz-adv-x="202" 
d="M255 700l-175 -144h-30l160 144h45zM116 0h-30v483h30v-483z" />
    <glyph glyph-name="icircumflex" unicode="&#xee;" horiz-adv-x="202" 
d="M219 556h-28l-91 120l-88 -120h-28l98 144h36zM116 0h-30v483h30v-483z" />
    <glyph glyph-name="idieresis" unicode="&#xef;" horiz-adv-x="202" 
d="M230 598q0 -11 -8.5 -19.5t-19.5 -8.5t-19.5 8.5t-8.5 19.5t8.5 19.5t19.5 8.5t19.5 -8.5t8.5 -19.5zM28 598q0 -11 -8.5 -19.5t-19.5 -8.5t-19.5 8.5t-8.5 19.5t8.5 19.5t19.5 8.5t19.5 -8.5t8.5 -19.5zM116 0h-30v483h30v-483z" />
    <glyph glyph-name="eth" unicode="&#xf0;" horiz-adv-x="570" 
d="M138 522l-11 26l126 56l-87 57l18 27q66 -41 103 -69l111 49l11 -26l-97 -43q198 -163 198 -357q0 -109 -62 -181.5t-163 -72.5q-100 0 -162.5 72.5t-62.5 181.5q0 108 62.5 180.5t162.5 72.5q95 0 156 -85q-63 99 -162 174zM285 15q89 0 140.5 66.5t51.5 160.5
q0 93 -51.5 159.5t-140.5 66.5q-88 0 -140 -66.5t-52 -159.5q0 -94 52 -160.5t140 -66.5z" />
    <glyph glyph-name="ntilde" unicode="&#xf1;" 
d="M442 0h-30v337q0 72 -32 101.5t-93 29.5q-48 0 -96 -26.5t-75 -64.5v-377h-30v483h30v-76q29 35 78 61.5t97 26.5q75 0 113 -37.5t38 -120.5v-337zM327 554q-26 0 -44.5 17.5t-27 39t-23 39t-33.5 17.5q-26 0 -42.5 -26.5t-16.5 -80.5h-26q0 57 23.5 95.5t64.5 38.5
q26 0 44.5 -17.5t27 -39t23 -39t33.5 -17.5q26 0 42.5 26.5t16.5 80.5h26q0 -57 -23.5 -95.5t-64.5 -38.5z" />
    <glyph glyph-name="ograve" unicode="&#xf2;" horiz-adv-x="570" 
d="M285 -12q-100 0 -162.5 72.5t-62.5 181.5q0 108 62.5 180.5t162.5 72.5q101 0 163 -72t62 -181t-62 -181.5t-163 -72.5zM285 15q89 0 140.5 66.5t51.5 160.5q0 93 -51.5 159.5t-140.5 66.5q-88 0 -140 -66.5t-52 -159.5q0 -94 52 -160.5t140 -66.5zM336 556h-30l-175 144
h45z" />
    <glyph glyph-name="oacute" unicode="&#xf3;" horiz-adv-x="570" 
d="M439 700l-175 -144h-30l160 144h45zM285 -12q-100 0 -162.5 72.5t-62.5 181.5q0 108 62.5 180.5t162.5 72.5q101 0 163 -72t62 -181t-62 -181.5t-163 -72.5zM285 15q89 0 140.5 66.5t51.5 160.5q0 93 -51.5 159.5t-140.5 66.5q-88 0 -140 -66.5t-52 -159.5
q0 -94 52 -160.5t140 -66.5z" />
    <glyph glyph-name="ocircumflex" unicode="&#xf4;" horiz-adv-x="570" 
d="M404 556h-28l-91 120l-88 -120h-28l98 144h36zM285 -12q-100 0 -162.5 72.5t-62.5 181.5q0 108 62.5 180.5t162.5 72.5q101 0 163 -72t62 -181t-62 -181.5t-163 -72.5zM285 15q89 0 140.5 66.5t51.5 160.5q0 93 -51.5 159.5t-140.5 66.5q-88 0 -140 -66.5t-52 -159.5
q0 -94 52 -160.5t140 -66.5z" />
    <glyph glyph-name="otilde" unicode="&#xf5;" horiz-adv-x="570" 
d="M285 -12q-100 0 -162.5 72.5t-62.5 181.5q0 108 62.5 180.5t162.5 72.5q101 0 163 -72t62 -181t-62 -181.5t-163 -72.5zM285 15q89 0 140.5 66.5t51.5 160.5q0 93 -51.5 159.5t-140.5 66.5q-88 0 -140 -66.5t-52 -159.5q0 -94 52 -160.5t140 -66.5zM348 554
q-26 0 -44.5 17.5t-27 39t-23 39t-33.5 17.5q-26 0 -42.5 -26.5t-16.5 -80.5h-26q0 57 23.5 95.5t64.5 38.5q26 0 44.5 -17.5t27 -39t23 -39t33.5 -17.5q26 0 42.5 26.5t16.5 80.5h26q0 -57 -23.5 -95.5t-64.5 -38.5z" />
    <glyph glyph-name="odieresis" unicode="&#xf6;" horiz-adv-x="570" 
d="M414 598q0 -11 -8.5 -19.5t-19.5 -8.5t-19.5 8.5t-8.5 19.5t8.5 19.5t19.5 8.5t19.5 -8.5t8.5 -19.5zM212 598q0 -11 -8.5 -19.5t-19.5 -8.5t-19.5 8.5t-8.5 19.5t8.5 19.5t19.5 8.5t19.5 -8.5t8.5 -19.5zM285 -12q-100 0 -162.5 72.5t-62.5 181.5q0 108 62.5 180.5
t162.5 72.5q101 0 163 -72t62 -181t-62 -181.5t-163 -72.5zM285 15q89 0 140.5 66.5t51.5 160.5q0 93 -51.5 159.5t-140.5 66.5q-88 0 -140 -66.5t-52 -159.5q0 -94 52 -160.5t140 -66.5z" />
    <glyph glyph-name="divide" unicode="&#xf7;" horiz-adv-x="511" 
d="M289 536q0 -14 -10 -24t-23 -10t-23 10t-10 24q0 13 9.5 22.5t23.5 9.5t23.5 -9.5t9.5 -22.5zM482 322h-453v30h453v-30zM289 133q0 -13 -9.5 -23t-23.5 -10t-23.5 10t-9.5 23t9.5 23t23.5 10t23.5 -10t9.5 -23z" />
    <glyph glyph-name="oslash" unicode="&#xf8;" horiz-adv-x="570" 
d="M118 0h-34l42 56q-66 72 -66 186q0 108 62.5 180.5t162.5 72.5q76 0 133 -44l24 32h33l-37 -50q72 -72 72 -191q0 -109 -62 -181.5t-163 -72.5q-81 0 -139 49zM285 15q89 0 140.5 66.5t51.5 160.5q0 101 -57 166l-257 -347q49 -46 122 -46zM93 242q0 -96 52 -160l255 345
q-49 41 -115 41q-88 0 -140 -66.5t-52 -159.5z" />
    <glyph glyph-name="ugrave" unicode="&#xf9;" 
d="M442 0h-30v74q-33 -37 -80 -61.5t-95 -24.5q-75 0 -113 36.5t-38 119.5v339h30v-339q0 -72 32 -100.5t93 -28.5q48 0 96.5 25.5t74.5 62.5v380h30v-483zM315 556h-30l-175 144h45z" />
    <glyph glyph-name="uacute" unicode="&#xfa;" 
d="M418 700l-175 -144h-30l160 144h45zM442 0h-30v74q-33 -37 -80 -61.5t-95 -24.5q-75 0 -113 36.5t-38 119.5v339h30v-339q0 -72 32 -100.5t93 -28.5q48 0 96.5 25.5t74.5 62.5v380h30v-483z" />
    <glyph glyph-name="ucircumflex" unicode="&#xfb;" 
d="M381 556h-28l-91 120l-88 -120h-28l98 144h36zM442 0h-30v74q-33 -37 -80 -61.5t-95 -24.5q-75 0 -113 36.5t-38 119.5v339h30v-339q0 -72 32 -100.5t93 -28.5q48 0 96.5 25.5t74.5 62.5v380h30v-483z" />
    <glyph glyph-name="udieresis" unicode="&#xfc;" 
d="M397 598q0 -11 -8.5 -19.5t-19.5 -8.5t-19.5 8.5t-8.5 19.5t8.5 19.5t19.5 8.5t19.5 -8.5t8.5 -19.5zM195 598q0 -11 -8.5 -19.5t-19.5 -8.5t-19.5 8.5t-8.5 19.5t8.5 19.5t19.5 8.5t19.5 -8.5t8.5 -19.5zM442 0h-30v74q-33 -37 -80 -61.5t-95 -24.5q-75 0 -113 36.5
t-38 119.5v339h30v-339q0 -72 32 -100.5t93 -28.5q48 0 96.5 25.5t74.5 62.5v380h30v-483z" />
    <glyph glyph-name="yacute" unicode="&#xfd;" horiz-adv-x="471" 
d="M50 -189l6 28q18 -8 42 -8q25 0 42.5 14.5t33.5 51.5l44 100l-207 486h35l190 -448l189 448h35l-256 -597q-36 -82 -106 -82q-27 0 -48 7zM390 700l-175 -144h-30l160 144h45z" />
    <glyph glyph-name="thorn" unicode="&#xfe;" horiz-adv-x="562" 
d="M290 -12q-53 0 -98.5 25.5t-75.5 69.5v-267h-30v851h30v-265q26 40 73 66.5t101 26.5q98 0 157 -69t59 -184q0 -114 -59.5 -184t-156.5 -70zM290 15q86 0 134.5 64t48.5 163t-48.5 162.5t-134.5 63.5q-54 0 -102 -28t-72 -68v-259q24 -40 72 -69t102 -29z" />
    <glyph glyph-name="ydieresis" unicode="&#xff;" horiz-adv-x="471" 
d="M50 -189l6 28q18 -8 42 -8q25 0 42.5 14.5t33.5 51.5l44 100l-207 486h35l190 -448l189 448h35l-256 -597q-36 -82 -106 -82q-27 0 -48 7zM365 598q0 -11 -8.5 -19.5t-19.5 -8.5t-19.5 8.5t-8.5 19.5t8.5 19.5t19.5 8.5t19.5 -8.5t8.5 -19.5zM163 598q0 -11 -8.5 -19.5
t-19.5 -8.5t-19.5 8.5t-8.5 19.5t8.5 19.5t19.5 8.5t19.5 -8.5t8.5 -19.5z" />
    <glyph glyph-name="Amacron" unicode="&#x100;" horiz-adv-x="636" 
d="M615 0h-37l-74 179h-372l-74 -179h-37l278 667h38zM492 209l-174 421l-174 -421h348zM499 748h-363v27h363v-27z" />
    <glyph glyph-name="amacron" unicode="&#x101;" horiz-adv-x="514" 
d="M428 0h-30v59q-65 -71 -167 -71q-68 0 -118.5 43.5t-50.5 117.5t50 117.5t119 43.5q102 0 167 -71v109q0 56 -39 88t-97 32q-92 0 -155 -76l-23 20q37 43 78 63t100 20q74 0 120 -37.5t46 -108.5v-349zM239 15q103 0 159 74v120q-56 74 -159 74q-65 0 -104.5 -38.5
t-39.5 -95.5t39.5 -95.5t104.5 -38.5zM438 581h-363v27h363v-27z" />
    <glyph glyph-name="Abreve" unicode="&#x102;" horiz-adv-x="636" 
d="M615 0h-37l-74 179h-372l-74 -179h-37l278 667h38zM492 209l-174 421l-174 -421h348zM493 799q-65 -88 -175 -88q-109 0 -176 88l21 19q57 -80 155 -80t155 80z" />
    <glyph glyph-name="abreve" unicode="&#x103;" horiz-adv-x="514" 
d="M428 0h-30v59q-65 -71 -167 -71q-68 0 -118.5 43.5t-50.5 117.5t50 117.5t119 43.5q102 0 167 -71v109q0 56 -39 88t-97 32q-92 0 -155 -76l-23 20q37 43 78 63t100 20q74 0 120 -37.5t46 -108.5v-349zM239 15q103 0 159 74v120q-56 74 -159 74q-65 0 -104.5 -38.5
t-39.5 -95.5t39.5 -95.5t104.5 -38.5zM432 632q-65 -88 -175 -88q-109 0 -176 88l21 19q57 -80 155 -80t155 80z" />
    <glyph glyph-name="Aogonek" unicode="&#x104;" horiz-adv-x="636" 
d="M643 -112l25 -11q-22 -63 -83 -63q-35 0 -58 21t-23 63q0 32 19.5 61t51.5 48l-71 172h-372l-74 -179h-37l278 667h38l278 -667q-82 -39 -82 -102q0 -57 52 -57q43 0 58 47zM492 209l-174 421l-174 -421h348z" />
    <glyph glyph-name="aogonek" unicode="&#x105;" horiz-adv-x="514" 
d="M456 -112l25 -11q-22 -63 -83 -63q-35 0 -58 21t-23 63q0 34 22.5 65t58.5 50v46q-65 -71 -167 -71q-68 0 -118.5 43.5t-50.5 117.5t50 117.5t119 43.5q102 0 167 -71v109q0 56 -39 88t-97 32q-92 0 -155 -76l-23 20q37 43 78 63t100 20q74 0 120 -37.5t46 -108.5v-349
q-82 -39 -82 -102q0 -57 52 -57q43 0 58 47zM239 15q103 0 159 74v120q-56 74 -159 74q-65 0 -104.5 -38.5t-39.5 -95.5t39.5 -95.5t104.5 -38.5z" />
    <glyph glyph-name="Cacute" unicode="&#x106;" horiz-adv-x="667" 
d="M552 867l-175 -144h-30l160 144h45zM398 -12q-141 0 -237 97t-96 248t96 248t237 97t232 -105l-25 -22q-36 45 -90.5 71t-116.5 26q-127 0 -212.5 -88t-85.5 -227q0 -138 85.5 -226.5t212.5 -88.5q62 0 116.5 26t90.5 71l26 -21q-94 -106 -233 -106z" />
    <glyph glyph-name="cacute" unicode="&#x107;" horiz-adv-x="493" 
d="M442 700l-175 -144h-30l160 144h45zM288 -12q-102 0 -165 73.5t-63 180.5t63 180t165 73q56 0 94 -20t71 -61l-22 -18q-53 72 -141 72q-91 0 -144 -64.5t-53 -161.5q0 -98 53.5 -162.5t143.5 -64.5q87 0 141 73l22 -19q-33 -41 -71 -61t-94 -20z" />
    <glyph glyph-name="Ccircumflex" unicode="&#x108;" horiz-adv-x="667" 
d="M516 723h-28l-91 120l-88 -120h-28l98 144h36zM398 -12q-141 0 -237 97t-96 248t96 248t237 97t232 -105l-25 -22q-36 45 -90.5 71t-116.5 26q-127 0 -212.5 -88t-85.5 -227q0 -138 85.5 -226.5t212.5 -88.5q62 0 116.5 26t90.5 71l26 -21q-94 -106 -233 -106z" />
    <glyph glyph-name="ccircumflex" unicode="&#x109;" horiz-adv-x="493" 
d="M407 556h-28l-91 120l-88 -120h-28l98 144h36zM288 -12q-102 0 -165 73.5t-63 180.5t63 180t165 73q56 0 94 -20t71 -61l-22 -18q-53 72 -141 72q-91 0 -144 -64.5t-53 -161.5q0 -98 53.5 -162.5t143.5 -64.5q87 0 141 73l22 -19q-33 -41 -71 -61t-94 -20z" />
    <glyph glyph-name="Cdotaccent" unicode="&#x10a;" horiz-adv-x="667" 
d="M398 -12q-141 0 -237 97t-96 248t96 248t237 97t232 -105l-25 -22q-36 45 -90.5 71t-116.5 26q-127 0 -212.5 -88t-85.5 -227q0 -138 85.5 -226.5t212.5 -88.5q62 0 116.5 26t90.5 71l26 -21q-94 -106 -233 -106zM400 733q-11 0 -20 8.5t-9 20.5t9 20.5t20 8.5
q12 0 20.5 -8.5t8.5 -20.5t-8.5 -20.5t-20.5 -8.5z" />
    <glyph glyph-name="cdotaccent" unicode="&#x10b;" horiz-adv-x="493" 
d="M288 -12q-102 0 -165 73.5t-63 180.5t63 180t165 73q56 0 94 -20t71 -61l-22 -18q-53 72 -141 72q-91 0 -144 -64.5t-53 -161.5q0 -98 53.5 -162.5t143.5 -64.5q87 0 141 73l22 -19q-33 -41 -71 -61t-94 -20zM291 566q-11 0 -20 8.5t-9 20.5t9 20.5t20 8.5
q12 0 20.5 -8.5t8.5 -20.5t-8.5 -20.5t-20.5 -8.5z" />
    <glyph glyph-name="Ccaron" unicode="&#x10c;" horiz-adv-x="667" 
d="M418 723h-36l-101 144h28l91 -120l88 120h28zM398 -12q-141 0 -237 97t-96 248t96 248t237 97t232 -105l-25 -22q-36 45 -90.5 71t-116.5 26q-127 0 -212.5 -88t-85.5 -227q0 -138 85.5 -226.5t212.5 -88.5q62 0 116.5 26t90.5 71l26 -21q-94 -106 -233 -106z" />
    <glyph glyph-name="ccaron" unicode="&#x10d;" horiz-adv-x="493" 
d="M309 556h-36l-101 144h28l91 -120l88 120h28zM288 -12q-102 0 -165 73.5t-63 180.5t63 180t165 73q56 0 94 -20t71 -61l-22 -18q-53 72 -141 72q-91 0 -144 -64.5t-53 -161.5q0 -98 53.5 -162.5t143.5 -64.5q87 0 141 73l22 -19q-33 -41 -71 -61t-94 -20z" />
    <glyph glyph-name="Dcaron" unicode="&#x10e;" horiz-adv-x="684" 
d="M361 723h-36l-101 144h28l91 -120l88 120h28zM286 0h-198v667h198q150 0 241 -97.5t91 -236.5q0 -140 -90.5 -236.5t-241.5 -96.5zM286 30q138 0 217.5 86t79.5 217q0 130 -80 217t-217 87h-166v-607h166z" />
    <glyph glyph-name="dcaron" unicode="&#x10f;" horiz-adv-x="605" 
d="M608 627q0 -36 -18 -69.5t-44 -51.5l-22 18q24 18 38.5 43.5t14.5 48.5q-6 -1 -8 -1q-14 0 -23 9.5t-9 23.5q0 13 9 22.5t23 9.5q16 0 27.5 -14t11.5 -39zM480 0h-30v81q-26 -40 -73 -66.5t-101 -26.5q-98 0 -157 69t-59 184q0 114 59.5 184t156.5 70q53 0 98.5 -25.5
t75.5 -69.5v267h30v-667zM276 15q54 0 102 28t72 68v259q-24 40 -72 69t-102 29q-86 0 -134.5 -64t-48.5 -163t48.5 -162.5t134.5 -63.5z" />
    <glyph glyph-name="Dcroat" unicode="&#x110;" horiz-adv-x="715" 
d="M317 0h-198v318h-107v30h107v319h198q150 0 241 -97.5t91 -236.5q0 -140 -90.5 -236.5t-241.5 -96.5zM317 30q138 0 217.5 86t79.5 217q0 130 -80 217t-217 87h-166v-289h188v-30h-188v-288h166z" />
    <glyph glyph-name="dcroat" unicode="&#x111;" horiz-adv-x="566" 
d="M480 0h-30v81q-26 -40 -73 -66.5t-101 -26.5q-98 0 -157 69t-59 184q0 114 59.5 184t156.5 70q53 0 98.5 -25.5t75.5 -69.5v141h-166v27h166v99h30v-99h77v-27h-77v-541zM276 15q54 0 102 28t72 68v259q-24 40 -72 69t-102 29q-86 0 -134.5 -64t-48.5 -163t48.5 -162.5
t134.5 -63.5z" />
    <glyph glyph-name="Emacron" unicode="&#x112;" horiz-adv-x="558" 
d="M496 0h-408v667h408v-30h-376v-279h369v-30h-369v-298h376v-30zM471 748h-363v27h363v-27z" />
    <glyph glyph-name="emacron" unicode="&#x113;" horiz-adv-x="571" 
d="M297 -12q-105 0 -171 71.5t-66 182.5q0 106 65 179.5t162 73.5q106 0 165 -73t59 -180v-10h-417q2 -92 57.5 -154.5t145.5 -62.5q100 0 168 73l18 -19q-78 -81 -186 -81zM479 259q0 49 -20 95.5t-65.5 80t-107.5 33.5q-87 0 -138 -64.5t-54 -144.5h385zM467 581h-363v27
h363v-27z" />
    <glyph glyph-name="Ebreve" unicode="&#x114;" horiz-adv-x="558" 
d="M496 0h-408v667h408v-30h-376v-279h369v-30h-369v-298h376v-30zM468 799q-65 -88 -175 -88q-109 0 -176 88l21 19q57 -80 155 -80t155 80z" />
    <glyph glyph-name="ebreve" unicode="&#x115;" horiz-adv-x="571" 
d="M297 -12q-105 0 -171 71.5t-66 182.5q0 106 65 179.5t162 73.5q106 0 165 -73t59 -180v-10h-417q2 -92 57.5 -154.5t145.5 -62.5q100 0 168 73l18 -19q-78 -81 -186 -81zM479 259q0 49 -20 95.5t-65.5 80t-107.5 33.5q-87 0 -138 -64.5t-54 -144.5h385zM465 632
q-65 -88 -175 -88q-109 0 -176 88l21 19q57 -80 155 -80t155 80z" />
    <glyph glyph-name="Edotaccent" unicode="&#x116;" horiz-adv-x="558" 
d="M496 0h-408v667h408v-30h-376v-279h369v-30h-369v-298h376v-30zM299 733q-11 0 -20 8.5t-9 20.5t9 20.5t20 8.5q12 0 20.5 -8.5t8.5 -20.5t-8.5 -20.5t-20.5 -8.5z" />
    <glyph glyph-name="edotaccent" unicode="&#x117;" horiz-adv-x="571" 
d="M297 -12q-105 0 -171 71.5t-66 182.5q0 106 65 179.5t162 73.5q106 0 165 -73t59 -180v-10h-417q2 -92 57.5 -154.5t145.5 -62.5q100 0 168 73l18 -19q-78 -81 -186 -81zM479 259q0 49 -20 95.5t-65.5 80t-107.5 33.5q-87 0 -138 -64.5t-54 -144.5h385zM288 566
q-11 0 -20 8.5t-9 20.5t9 20.5t20 8.5q12 0 20.5 -8.5t8.5 -20.5t-8.5 -20.5t-20.5 -8.5z" />
    <glyph glyph-name="Eogonek" unicode="&#x118;" horiz-adv-x="558" 
d="M496 0q-82 -39 -82 -102q0 -57 52 -57q43 0 58 47l25 -11q-22 -63 -83 -63q-35 0 -58 21t-23 63q0 59 60 102h-357v667h408v-30h-376v-279h369v-30h-369v-298h376v-30z" />
    <glyph glyph-name="eogonek" unicode="&#x119;" horiz-adv-x="571" 
d="M297 -12q-105 0 -171 71.5t-66 182.5q0 106 65 179.5t162 73.5q106 0 165 -73t59 -180v-10h-417q2 -92 57.5 -154.5t145.5 -62.5q100 0 168 73l18 -19q-49 -51 -105 -69q-82 -39 -82 -102q0 -57 52 -57q43 0 58 47l25 -11q-22 -63 -83 -63q-35 0 -58 21t-23 63
q0 49 45 91q-2 0 -7 -0.5t-8 -0.5zM479 259q0 49 -20 95.5t-65.5 80t-107.5 33.5q-87 0 -138 -64.5t-54 -144.5h385z" />
    <glyph glyph-name="Ecaron" unicode="&#x11a;" horiz-adv-x="558" 
d="M313 723h-36l-101 144h28l91 -120l88 120h28zM496 0h-408v667h408v-30h-376v-279h369v-30h-369v-298h376v-30z" />
    <glyph glyph-name="ecaron" unicode="&#x11b;" horiz-adv-x="571" 
d="M308 556h-36l-101 144h28l91 -120l88 120h28zM297 -12q-105 0 -171 71.5t-66 182.5q0 106 65 179.5t162 73.5q106 0 165 -73t59 -180v-10h-417q2 -92 57.5 -154.5t145.5 -62.5q100 0 168 73l18 -19q-78 -81 -186 -81zM479 259q0 49 -20 95.5t-65.5 80t-107.5 33.5
q-87 0 -138 -64.5t-54 -144.5h385z" />
    <glyph glyph-name="Gcircumflex" unicode="&#x11c;" horiz-adv-x="708" 
d="M521 723h-28l-91 120l-88 -120h-28l98 144h36zM398 -13q-141 0 -237 97t-96 249q0 151 96 248t237 97q144 0 244 -103l-21 -22q-39 45 -98 70t-125 25q-127 0 -212.5 -88t-85.5 -227q0 -138 85.5 -227t212.5 -89q67 0 122 26.5t90 63.5v183h-275v30h307v-226
q-44 -49 -107.5 -78t-136.5 -29z" />
    <glyph glyph-name="gcircumflex" unicode="&#x11d;" horiz-adv-x="566" 
d="M402 556h-28l-91 120l-88 -120h-28l98 144h36zM276 -196q-63 0 -103.5 15t-81.5 58l22 25q31 -39 68.5 -55t94.5 -16q77 0 125.5 41.5t48.5 124.5v84q-27 -40 -73.5 -67.5t-100.5 -27.5q-98 0 -157 69.5t-59 184.5q0 114 59.5 184.5t156.5 70.5q53 0 98.5 -25.5
t75.5 -69.5v83h30v-486q0 -99 -55.5 -146t-148.5 -47zM276 13q54 0 102 29t72 69v259q-24 40 -72 69t-102 29q-86 0 -134.5 -64.5t-48.5 -163.5t48.5 -163t134.5 -64z" />
    <glyph glyph-name="Gbreve" unicode="&#x11e;" horiz-adv-x="708" 
d="M398 -13q-141 0 -237 97t-96 249q0 151 96 248t237 97q144 0 244 -103l-21 -22q-39 45 -98 70t-125 25q-127 0 -212.5 -88t-85.5 -227q0 -138 85.5 -227t212.5 -89q67 0 122 26.5t90 63.5v183h-275v30h307v-226q-44 -49 -107.5 -78t-136.5 -29zM577 799q-65 -88 -175 -88
q-109 0 -176 88l21 19q57 -80 155 -80t155 80z" />
    <glyph glyph-name="gbreve" unicode="&#x11f;" horiz-adv-x="566" 
d="M276 -196q-63 0 -103.5 15t-81.5 58l22 25q31 -39 68.5 -55t94.5 -16q77 0 125.5 41.5t48.5 124.5v84q-27 -40 -73.5 -67.5t-100.5 -27.5q-98 0 -157 69.5t-59 184.5q0 114 59.5 184.5t156.5 70.5q53 0 98.5 -25.5t75.5 -69.5v83h30v-486q0 -99 -55.5 -146t-148.5 -47z
M276 13q54 0 102 29t72 69v259q-24 40 -72 69t-102 29q-86 0 -134.5 -64.5t-48.5 -163.5t48.5 -163t134.5 -64zM458 632q-65 -88 -175 -88q-109 0 -176 88l21 19q57 -80 155 -80t155 80z" />
    <glyph glyph-name="Gdotaccent" unicode="&#x120;" horiz-adv-x="708" 
d="M398 -13q-141 0 -237 97t-96 249q0 151 96 248t237 97q144 0 244 -103l-21 -22q-39 45 -98 70t-125 25q-127 0 -212.5 -88t-85.5 -227q0 -138 85.5 -227t212.5 -89q67 0 122 26.5t90 63.5v183h-275v30h307v-226q-44 -49 -107.5 -78t-136.5 -29zM401 733q-11 0 -20 8.5
t-9 20.5t9 20.5t20 8.5q12 0 20.5 -8.5t8.5 -20.5t-8.5 -20.5t-20.5 -8.5z" />
    <glyph glyph-name="gdotaccent" unicode="&#x121;" horiz-adv-x="566" 
d="M276 -196q-63 0 -103.5 15t-81.5 58l22 25q31 -39 68.5 -55t94.5 -16q77 0 125.5 41.5t48.5 124.5v84q-27 -40 -73.5 -67.5t-100.5 -27.5q-98 0 -157 69.5t-59 184.5q0 114 59.5 184.5t156.5 70.5q53 0 98.5 -25.5t75.5 -69.5v83h30v-486q0 -99 -55.5 -146t-148.5 -47z
M276 13q54 0 102 29t72 69v259q-24 40 -72 69t-102 29q-86 0 -134.5 -64.5t-48.5 -163.5t48.5 -163t134.5 -64zM281 566q-11 0 -20 8.5t-9 20.5t9 20.5t20 8.5q12 0 20.5 -8.5t8.5 -20.5t-8.5 -20.5t-20.5 -8.5z" />
    <glyph glyph-name="Gcommaaccent" unicode="&#x122;" horiz-adv-x="708" 
d="M439 -137q0 -36 -18 -69.5t-44 -51.5l-22 18q24 18 38.5 43.5t14.5 48.5q-6 -1 -8 -1q-14 0 -23 9.5t-9 23.5q0 13 9 22.5t23 9.5q16 0 27.5 -14t11.5 -39zM398 -13q-141 0 -237 97t-96 249q0 151 96 248t237 97q144 0 244 -103l-21 -22q-39 45 -98 70t-125 25
q-127 0 -212.5 -88t-85.5 -227q0 -138 85.5 -227t212.5 -89q67 0 122 26.5t90 63.5v183h-275v30h307v-226q-44 -49 -107.5 -78t-136.5 -29z" />
    <glyph glyph-name="gcommaaccent" unicode="&#x123;" horiz-adv-x="566" 
d="M241 610q0 40 18.5 76.5t41.5 52.5l24 -19q-24 -18 -38.5 -43.5t-14.5 -48.5q2 1 4 1q12 0 22.5 -10t10.5 -23q0 -12 -9.5 -22t-23.5 -10q-16 0 -25.5 13t-9.5 33zM276 -196q-63 0 -103.5 15t-81.5 58l22 25q31 -39 68.5 -55t94.5 -16q77 0 125.5 41.5t48.5 124.5v84
q-27 -40 -73.5 -67.5t-100.5 -27.5q-98 0 -157 69.5t-59 184.5q0 114 59.5 184.5t156.5 70.5q53 0 98.5 -25.5t75.5 -69.5v83h30v-486q0 -99 -55.5 -146t-148.5 -47zM276 13q54 0 102 29t72 69v259q-24 40 -72 69t-102 29q-86 0 -134.5 -64.5t-48.5 -163.5t48.5 -163
t134.5 -64z" />
    <glyph glyph-name="Hcircumflex" unicode="&#x124;" horiz-adv-x="695" 
d="M462 723h-28l-91 120l-88 -120h-28l98 144h36zM607 0h-32v328h-455v-328h-32v667h32v-309h455v309h32v-667z" />
    <glyph glyph-name="hcircumflex" unicode="&#x125;" 
d="M385 723h-28l-91 120l-88 -120h-28l98 144h36zM442 0h-30v339q0 72 -32 100.5t-93 28.5q-48 0 -96 -26.5t-75 -64.5v-377h-30v667h30v-260q29 35 78 61.5t97 26.5q75 0 113 -36.5t38 -119.5v-339z" />
    <glyph glyph-name="Hbar" unicode="&#x126;" horiz-adv-x="717" 
d="M619 0h-32v328h-455v-328h-32v501h-88v27h88v139h32v-139h455v139h32v-139h86v-27h-86v-501zM132 358h455v143h-455v-143z" />
    <glyph glyph-name="hbar" unicode="&#x127;" 
d="M282 541h-166v-134q29 35 78 61.5t97 26.5q75 0 113 -36.5t38 -119.5v-339h-30v339q0 72 -32 100.5t-93 28.5q-48 0 -96 -26.5t-75 -64.5v-377h-30v541h-76v27h76v99h30v-99h166v-27z" />
    <glyph glyph-name="Itilde" unicode="&#x128;" horiz-adv-x="208" 
d="M120 0h-32v667h32v-667zM166 721q-26 0 -44.5 17.5t-27 39t-23 39t-33.5 17.5q-26 0 -42.5 -26.5t-16.5 -80.5h-26q0 57 23.5 95.5t64.5 38.5q26 0 44.5 -17.5t27 -39t23 -39t33.5 -17.5q26 0 42.5 26.5t16.5 80.5h26q0 -57 -23.5 -95.5t-64.5 -38.5z" />
    <glyph glyph-name="itilde" unicode="&#x129;" horiz-adv-x="202" 
d="M116 0h-30v483h30v-483zM163 554q-26 0 -44.5 17.5t-27 39t-23 39t-33.5 17.5q-26 0 -42.5 -26.5t-16.5 -80.5h-26q0 57 23.5 95.5t64.5 38.5q26 0 44.5 -17.5t27 -39t23 -39t33.5 -17.5q26 0 42.5 26.5t16.5 80.5h26q0 -57 -23.5 -95.5t-64.5 -38.5z" />
    <glyph glyph-name="Imacron" unicode="&#x12a;" horiz-adv-x="208" 
d="M120 0h-32v667h32v-667zM286 748h-363v27h363v-27z" />
    <glyph glyph-name="imacron" unicode="&#x12b;" horiz-adv-x="202" 
d="M116 0h-30v483h30v-483zM283 581h-363v27h363v-27z" />
    <glyph glyph-name="Ibreve" unicode="&#x12c;" horiz-adv-x="208" 
d="M120 0h-32v667h32v-667zM280 799q-65 -88 -175 -88q-109 0 -176 88l21 19q57 -80 155 -80t155 80z" />
    <glyph glyph-name="ibreve" unicode="&#x12d;" horiz-adv-x="202" 
d="M116 0h-30v483h30v-483zM277 632q-65 -88 -175 -88q-109 0 -176 88l21 19q57 -80 155 -80t155 80z" />
    <glyph glyph-name="Iogonek" unicode="&#x12e;" horiz-adv-x="208" 
d="M148 -112l25 -11q-22 -63 -83 -63q-35 0 -58 21t-23 63q0 33 22 63.5t57 50.5v655h32v-667q-82 -39 -82 -102q0 -57 52 -57q43 0 58 47z" />
    <glyph glyph-name="iogonek" unicode="&#x12f;" horiz-adv-x="202" 
d="M144 -112l25 -11q-22 -63 -83 -63q-35 0 -58 21t-23 63q0 34 22.5 65t58.5 50v470h30v-483q-82 -39 -82 -102q0 -57 52 -57q43 0 58 47zM101 566q-11 0 -20 8.5t-9 20.5t9 20.5t20 8.5q12 0 20.5 -8.5t8.5 -20.5t-8.5 -20.5t-20.5 -8.5z" />
    <glyph glyph-name="Idotaccent" unicode="&#x130;" horiz-adv-x="208" 
d="M120 0h-32v667h32v-667zM104 733q-11 0 -20 8.5t-9 20.5t9 20.5t20 8.5q12 0 20.5 -8.5t8.5 -20.5t-8.5 -20.5t-20.5 -8.5z" />
    <glyph glyph-name="dotlessi" unicode="&#x131;" horiz-adv-x="202" 
d="M116 0h-30v483h30v-483z" />
    <glyph glyph-name="IJ" unicode="&#x132;" horiz-adv-x="673" 
d="M120 0h-32v667h32v-667zM393 -12q-107 0 -169 87l27 24q57 -81 142 -81q73 0 116.5 46.5t43.5 120.5v482h32v-482q0 -95 -55 -146t-137 -51z" />
    <glyph glyph-name="ij" unicode="&#x133;" horiz-adv-x="404" 
d="M101 566q-11 0 -20 8.5t-9 20.5t9 20.5t20 8.5q12 0 20.5 -8.5t8.5 -20.5t-8.5 -20.5t-20.5 -8.5zM116 0h-30v483h30v-483zM303 566q-11 0 -20 8.5t-9 20.5t9 20.5t20 8.5q12 0 20.5 -8.5t8.5 -20.5t-8.5 -20.5t-20.5 -8.5zM199 -196q-51 0 -92 38l19 25q32 -36 73 -36
q40 0 64.5 23t24.5 70v559h30v-559q0 -120 -119 -120z" />
    <glyph glyph-name="Jcircumflex" unicode="&#x134;" horiz-adv-x="465" 
d="M478 723h-28l-91 120l-88 -120h-28l98 144h36zM185 -12q-107 0 -169 87l27 24q57 -81 142 -81q73 0 116.5 46.5t43.5 120.5v482h32v-482q0 -95 -55 -146t-137 -51z" />
    <glyph glyph-name="jcircumflex" unicode="&#x135;" horiz-adv-x="202" 
d="M220 556h-28l-91 120l-88 -120h-28l98 144h36zM-3 -196q-51 0 -92 38l19 25q32 -36 73 -36q40 0 64.5 23t24.5 70v559h30v-559q0 -120 -119 -120z" />
    <glyph glyph-name="Kcommaaccent" unicode="&#x136;" horiz-adv-x="571" 
d="M330 -137q0 -36 -18 -69.5t-44 -51.5l-22 18q24 18 38.5 43.5t14.5 48.5q-6 -1 -8 -1q-14 0 -23 9.5t-9 23.5q0 13 9 22.5t23 9.5q16 0 27.5 -14t11.5 -39zM540 0h-43l-297 328l-80 -87v-241h-32v667h32v-385l347 385h43l-290 -319z" />
    <glyph glyph-name="kcommaaccent" unicode="&#x137;" horiz-adv-x="496" 
d="M293 -137q0 -36 -18 -69.5t-44 -51.5l-22 18q24 18 38.5 43.5t14.5 48.5q-6 -1 -8 -1q-14 0 -23 9.5t-9 23.5q0 13 9 22.5t23 9.5q16 0 27.5 -14t11.5 -39zM471 0h-43l-212 243l-100 -92v-151h-30v667h30v-478l315 294h43l-235 -218z" />
    <glyph glyph-name="kgreenlandic" unicode="&#x138;" horiz-adv-x="496" 
d="M471 0h-43l-212 243l-100 -92v-151h-30v483h30v-294l315 294h43l-235 -218z" />
    <glyph glyph-name="Lacute" unicode="&#x139;" horiz-adv-x="499" 
d="M425 867l-175 -144h-30l160 144h45zM455 0h-367v667h32v-637h335v-30z" />
    <glyph glyph-name="lacute" unicode="&#x13a;" horiz-adv-x="202" 
d="M255 867l-175 -144h-30l160 144h45zM116 0h-30v667h30v-667z" />
    <glyph glyph-name="Lcommaaccent" unicode="&#x13b;" horiz-adv-x="499" 
d="M313 -137q0 -36 -18 -69.5t-44 -51.5l-22 18q24 18 38.5 43.5t14.5 48.5q-6 -1 -8 -1q-14 0 -23 9.5t-9 23.5q0 13 9 22.5t23 9.5q16 0 27.5 -14t11.5 -39zM455 0h-367v667h32v-637h335v-30z" />
    <glyph glyph-name="lcommaaccent" unicode="&#x13c;" horiz-adv-x="202" 
d="M146 -137q0 -36 -18 -69.5t-44 -51.5l-22 18q24 18 38.5 43.5t14.5 48.5q-6 -1 -8 -1q-14 0 -23 9.5t-9 23.5q0 13 9 22.5t23 9.5q16 0 27.5 -14t11.5 -39zM116 0h-30v667h30v-667z" />
    <glyph glyph-name="Lcaron" unicode="&#x13d;" horiz-adv-x="499" 
d="M298 626q0 -36 -18 -69.5t-44 -51.5l-22 18q24 18 38.5 43.5t14.5 48.5q-6 -1 -8 -1q-14 0 -23 9.5t-9 23.5q0 13 9 22.5t23 9.5q16 0 27.5 -14t11.5 -39zM455 0h-367v667h32v-637h335v-30z" />
    <glyph glyph-name="lcaron" unicode="&#x13e;" horiz-adv-x="237" 
d="M259 626q0 -36 -18 -69.5t-44 -51.5l-22 18q24 18 38.5 43.5t14.5 48.5q-6 -1 -8 -1q-14 0 -23 9.5t-9 23.5q0 13 9 22.5t23 9.5q16 0 27.5 -14t11.5 -39zM116 0h-30v667h30v-667z" />
    <glyph glyph-name="Ldot" unicode="&#x13f;" horiz-adv-x="499" 
d="M455 0h-367v667h32v-637h335v-30zM378 342q0 -14 -10 -23.5t-23 -9.5t-23 9.5t-10 23.5q0 13 10 22.5t23 9.5t23 -9.5t10 -22.5z" />
    <glyph glyph-name="ldot" unicode="&#x140;" horiz-adv-x="240" 
d="M116 0h-30v667h30v-667zM254 245q0 -13 -10 -23t-23 -10t-23 10t-10 23t10 22.5t23 9.5t23 -9.5t10 -22.5z" />
    <glyph glyph-name="Lslash" unicode="&#x141;" horiz-adv-x="523" 
d="M12 246v34l100 58v329h32v-311l114 67v-34l-114 -67v-292h335v-30h-367v304z" />
    <glyph glyph-name="lslash" unicode="&#x142;" horiz-adv-x="268" 
d="M12 248v32l107 61v326h30v-309l107 62v-32l-107 -62v-326h-30v309z" />
    <glyph glyph-name="Nacute" unicode="&#x143;" horiz-adv-x="690" 
d="M520 867l-175 -144h-30l160 144h45zM602 0h-32l-450 615v-615h-32v667h32l450 -609v609h32v-667z" />
    <glyph glyph-name="nacute" unicode="&#x144;" 
d="M418 700l-175 -144h-30l160 144h45zM442 0h-30v337q0 72 -32 101.5t-93 29.5q-48 0 -96 -26.5t-75 -64.5v-377h-30v483h30v-76q29 35 78 61.5t97 26.5q75 0 113 -37.5t38 -120.5v-337z" />
    <glyph glyph-name="Ncommaaccent" unicode="&#x145;" horiz-adv-x="690" 
d="M390 -137q0 -36 -18 -69.5t-44 -51.5l-22 18q24 18 38.5 43.5t14.5 48.5q-6 -1 -8 -1q-14 0 -23 9.5t-9 23.5q0 13 9 22.5t23 9.5q16 0 27.5 -14t11.5 -39zM602 0h-32l-450 615v-615h-32v667h32l450 -609v609h32v-667z" />
    <glyph glyph-name="ncommaaccent" unicode="&#x146;" 
d="M309 -137q0 -36 -18 -69.5t-44 -51.5l-22 18q24 18 38.5 43.5t14.5 48.5q-6 -1 -8 -1q-14 0 -23 9.5t-9 23.5q0 13 9 22.5t23 9.5q16 0 27.5 -14t11.5 -39zM442 0h-30v337q0 72 -32 101.5t-93 29.5q-48 0 -96 -26.5t-75 -64.5v-377h-30v483h30v-76q29 35 78 61.5t97 26.5
q75 0 113 -37.5t38 -120.5v-337z" />
    <glyph glyph-name="Ncaron" unicode="&#x147;" horiz-adv-x="690" 
d="M364 723h-36l-101 144h28l91 -120l88 120h28zM602 0h-32l-450 615v-615h-32v667h32l450 -609v609h32v-667z" />
    <glyph glyph-name="ncaron" unicode="&#x148;" 
d="M283 556h-36l-101 144h28l91 -120l88 120h28zM442 0h-30v337q0 72 -32 101.5t-93 29.5q-48 0 -96 -26.5t-75 -64.5v-377h-30v483h30v-76q29 35 78 61.5t97 26.5q75 0 113 -37.5t38 -120.5v-337z" />
    <glyph glyph-name="napostrophe" unicode="&#x149;" 
d="M149 672q0 -36 -18 -69.5t-44 -51.5l-22 18q24 18 38.5 43.5t14.5 48.5q-6 -1 -8 -1q-14 0 -23 9.5t-9 23.5q0 13 9 22.5t23 9.5q16 0 27.5 -14t11.5 -39zM442 0h-30v337q0 72 -32 101.5t-93 29.5q-48 0 -96 -26.5t-75 -64.5v-377h-30v483h30v-76q29 35 78 61.5t97 26.5
q75 0 113 -37.5t38 -120.5v-337z" />
    <glyph glyph-name="Eng" unicode="&#x14a;" horiz-adv-x="690" 
d="M410 -196q-107 0 -169 87l27 24q57 -81 142 -81q74 0 117 45t43 119v2l-450 615v-615h-32v667h32l450 -609v609h32v-669q0 -95 -54.5 -144.5t-137.5 -49.5z" />
    <glyph glyph-name="eng" unicode="&#x14b;" 
d="M442 337v-413q0 -120 -119 -120q-51 0 -92 38l19 25q32 -36 73 -36q40 0 64.5 23t24.5 70v413q0 72 -32 101.5t-93 29.5q-48 0 -96 -26.5t-75 -64.5v-377h-30v483h30v-76q29 35 78 61.5t97 26.5q75 0 113 -37.5t38 -120.5z" />
    <glyph glyph-name="Omacron" unicode="&#x14c;" horiz-adv-x="764" 
d="M563 748h-363v27h363v-27zM382 -12q-143 0 -230 98.5t-87 246.5t87 246.5t230 98.5q142 0 229.5 -98.5t87.5 -246.5t-87.5 -246.5t-229.5 -98.5zM382 18q127 0 204.5 88.5t77.5 226.5q0 139 -77.5 227t-204.5 88q-128 0 -205 -88t-77 -227q0 -138 77 -226.5t205 -88.5z
" />
    <glyph glyph-name="omacron" unicode="&#x14d;" horiz-adv-x="570" 
d="M466 581h-363v27h363v-27zM285 -12q-100 0 -162.5 72.5t-62.5 181.5q0 108 62.5 180.5t162.5 72.5q101 0 163 -72t62 -181t-62 -181.5t-163 -72.5zM285 15q89 0 140.5 66.5t51.5 160.5q0 93 -51.5 159.5t-140.5 66.5q-88 0 -140 -66.5t-52 -159.5q0 -94 52 -160.5
t140 -66.5z" />
    <glyph glyph-name="Obreve" unicode="&#x14e;" horiz-adv-x="764" 
d="M382 -12q-143 0 -230 98.5t-87 246.5t87 246.5t230 98.5q142 0 229.5 -98.5t87.5 -246.5t-87.5 -246.5t-229.5 -98.5zM382 18q127 0 204.5 88.5t77.5 226.5q0 139 -77.5 227t-204.5 88q-128 0 -205 -88t-77 -227q0 -138 77 -226.5t205 -88.5zM556 799q-65 -88 -175 -88
q-109 0 -176 88l21 19q57 -80 155 -80t155 80z" />
    <glyph glyph-name="obreve" unicode="&#x14f;" horiz-adv-x="570" 
d="M285 -12q-100 0 -162.5 72.5t-62.5 181.5q0 108 62.5 180.5t162.5 72.5q101 0 163 -72t62 -181t-62 -181.5t-163 -72.5zM285 15q89 0 140.5 66.5t51.5 160.5q0 93 -51.5 159.5t-140.5 66.5q-88 0 -140 -66.5t-52 -159.5q0 -94 52 -160.5t140 -66.5zM462 632
q-65 -88 -175 -88q-109 0 -176 88l21 19q57 -80 155 -80t155 80z" />
    <glyph glyph-name="Ohungarumlaut" unicode="&#x150;" horiz-adv-x="764" 
d="M424 867l-115 -144h-26l100 144h41zM560 867l-115 -144h-26l100 144h41zM382 -12q-143 0 -230 98.5t-87 246.5t87 246.5t230 98.5q142 0 229.5 -98.5t87.5 -246.5t-87.5 -246.5t-229.5 -98.5zM382 18q127 0 204.5 88.5t77.5 226.5q0 139 -77.5 227t-204.5 88
q-128 0 -205 -88t-77 -227q0 -138 77 -226.5t205 -88.5z" />
    <glyph glyph-name="ohungarumlaut" unicode="&#x151;" horiz-adv-x="570" 
d="M327 700l-115 -144h-26l100 144h41zM463 700l-115 -144h-26l100 144h41zM285 -12q-100 0 -162.5 72.5t-62.5 181.5q0 108 62.5 180.5t162.5 72.5q101 0 163 -72t62 -181t-62 -181.5t-163 -72.5zM285 15q89 0 140.5 66.5t51.5 160.5q0 93 -51.5 159.5t-140.5 66.5
q-88 0 -140 -66.5t-52 -159.5q0 -94 52 -160.5t140 -66.5z" />
    <glyph glyph-name="OE" unicode="&#x152;" horiz-adv-x="1124" 
d="M1059 0h-408v157q-39 -81 -111 -125t-158 -44q-143 0 -230 98.5t-87 246.5t87 246t230 98q86 0 158 -43.5t111 -123.5v157h408v-30h-376v-279h369v-30h-369v-298h376v-30zM651 218v231q-34 98 -104.5 148t-164.5 50q-128 0 -205 -87.5t-77 -226.5t77 -227t205 -88
q93 0 164 51t105 149z" />
    <glyph glyph-name="oe" unicode="&#x153;" horiz-adv-x="988" 
d="M928 232h-417q2 -92 57.5 -154.5t145.5 -62.5q100 0 168 73l18 -19q-78 -81 -186 -81q-50 0 -90.5 16.5t-66 42.5t-41 52.5t-22.5 52.5q-8 -26 -21.5 -51t-37.5 -52t-63 -44t-87 -17q-100 0 -162.5 72.5t-62.5 181.5q0 108 62.5 180.5t162.5 72.5q48 0 88 -17t64 -44.5
t37.5 -53t19.5 -49.5q7 25 22 51t39.5 52.5t63.5 43.5t85 17q106 0 165 -73t59 -180v-10zM511 259h385q0 49 -20 95.5t-65.5 80t-107.5 33.5q-87 0 -138 -64.5t-54 -144.5zM477 242q0 93 -51.5 159.5t-140.5 66.5q-88 0 -140 -66.5t-52 -159.5q0 -94 52 -161t140 -67
q89 0 140.5 67t51.5 161z" />
    <glyph glyph-name="Racute" unicode="&#x154;" horiz-adv-x="579" 
d="M450 867l-175 -144h-30l160 144h45zM524 0h-41l-203 288h-160v-288h-32v667h230q85 0 141 -50.5t56 -138.5t-56.5 -139t-140.5 -51zM318 318q73 0 117.5 45t44.5 115t-44.5 114.5t-117.5 44.5h-198v-319h198z" />
    <glyph glyph-name="racute" unicode="&#x155;" horiz-adv-x="304" 
d="M338 700l-175 -144h-30l160 144h45zM116 0h-30v483h30v-88q73 97 166 97v-36q-9 1 -24 1q-37 0 -81 -30t-61 -65v-362z" />
    <glyph glyph-name="Rcommaaccent" unicode="&#x156;" horiz-adv-x="579" 
d="M334 -137q0 -36 -18 -69.5t-44 -51.5l-22 18q24 18 38.5 43.5t14.5 48.5q-6 -1 -8 -1q-14 0 -23 9.5t-9 23.5q0 13 9 22.5t23 9.5q16 0 27.5 -14t11.5 -39zM524 0h-41l-203 288h-160v-288h-32v667h230q85 0 141 -50.5t56 -138.5t-56.5 -139t-140.5 -51zM318 318
q73 0 117.5 45t44.5 115t-44.5 114.5t-117.5 44.5h-198v-319h198z" />
    <glyph glyph-name="rcommaaccent" unicode="&#x157;" horiz-adv-x="304" 
d="M197 -137q0 -36 -18 -69.5t-44 -51.5l-22 18q24 18 38.5 43.5t14.5 48.5q-6 -1 -8 -1q-14 0 -23 9.5t-9 23.5q0 13 9 22.5t23 9.5q16 0 27.5 -14t11.5 -39zM116 0h-30v483h30v-88q73 97 166 97v-36q-9 1 -24 1q-37 0 -81 -30t-61 -65v-362z" />
    <glyph glyph-name="Rcaron" unicode="&#x158;" horiz-adv-x="579" 
d="M309 723h-36l-101 144h28l91 -120l88 120h28zM524 0h-41l-203 288h-160v-288h-32v667h230q85 0 141 -50.5t56 -138.5t-56.5 -139t-140.5 -51zM318 318q73 0 117.5 45t44.5 115t-44.5 114.5t-117.5 44.5h-198v-319h198z" />
    <glyph glyph-name="rcaron" unicode="&#x159;" horiz-adv-x="304" 
d="M201 556h-36l-101 144h28l91 -120l88 120h28zM116 0h-30v483h30v-88q73 97 166 97v-36q-9 1 -24 1q-37 0 -81 -30t-61 -65v-362z" />
    <glyph glyph-name="Sacute" unicode="&#x15a;" horiz-adv-x="575" 
d="M438 867l-175 -144h-30l160 144h45zM286 -12q-75 0 -135 29t-98 77l26 23q81 -99 207 -99q55 0 95 14.5t60 38t29 48t9 50.5q0 51 -30 85.5t-75 49.5l-97.5 31.5l-97.5 32t-75 51.5t-30 89q0 78 61 124t148 46q140 0 216 -94l-25 -23q-67 87 -191 87q-74 0 -124 -39.5
t-50 -100.5q0 -38 22.5 -65t58 -42t79 -27.5t86.5 -27t78.5 -34.5t58 -56.5t22.5 -86.5q0 -31 -11 -60.5t-35 -58t-71 -45.5t-111 -17z" />
    <glyph glyph-name="sacute" unicode="&#x15b;" horiz-adv-x="454" 
d="M373 700l-175 -144h-30l160 144h45zM221 -12q-110 0 -177 77l24 22q54 -72 153 -72q65 0 104 31.5t39 80.5q0 41 -32 65t-77.5 35.5l-91 24t-77.5 40.5t-32 75q0 55 44 91.5t120 36.5q109 0 166 -73l-22 -20q-46 66 -144 66q-62 0 -98 -28.5t-36 -72.5q0 -37 32 -58.5
t77.5 -32.5t91 -24t77.5 -43.5t32 -81.5q0 -60 -44.5 -99.5t-128.5 -39.5z" />
    <glyph glyph-name="Scircumflex" unicode="&#x15c;" horiz-adv-x="575" 
d="M397 723h-28l-91 120l-88 -120h-28l98 144h36zM286 -12q-75 0 -135 29t-98 77l26 23q81 -99 207 -99q55 0 95 14.5t60 38t29 48t9 50.5q0 51 -30 85.5t-75 49.5l-97.5 31.5l-97.5 32t-75 51.5t-30 89q0 78 61 124t148 46q140 0 216 -94l-25 -23q-67 87 -191 87
q-74 0 -124 -39.5t-50 -100.5q0 -38 22.5 -65t58 -42t79 -27.5t86.5 -27t78.5 -34.5t58 -56.5t22.5 -86.5q0 -31 -11 -60.5t-35 -58t-71 -45.5t-111 -17z" />
    <glyph glyph-name="scircumflex" unicode="&#x15d;" horiz-adv-x="454" 
d="M339 556h-28l-91 120l-88 -120h-28l98 144h36zM221 -12q-110 0 -177 77l24 22q54 -72 153 -72q65 0 104 31.5t39 80.5q0 41 -32 65t-77.5 35.5l-91 24t-77.5 40.5t-32 75q0 55 44 91.5t120 36.5q109 0 166 -73l-22 -20q-46 66 -144 66q-62 0 -98 -28.5t-36 -72.5
q0 -37 32 -58.5t77.5 -32.5t91 -24t77.5 -43.5t32 -81.5q0 -60 -44.5 -99.5t-128.5 -39.5z" />
    <glyph glyph-name="Scedilla" unicode="&#x15e;" horiz-adv-x="575" 
d="M284 -187q-58 0 -93 28l14 27q32 -28 79 -28q29 0 49 13.5t20 35.5q0 43 -44 43q-27 0 -43 -19l-22 13l22 63q-136 7 -213 105l26 23q81 -99 207 -99q55 0 95 14.5t60 38t29 48t9 50.5q0 51 -30 85.5t-75 49.5l-97.5 31.5l-97.5 32t-75 51.5t-30 89q0 78 61 124t148 46
q140 0 216 -94l-25 -23q-67 87 -191 87q-74 0 -124 -39.5t-50 -100.5q0 -38 22.5 -65t58 -42t79 -27.5t86.5 -27t78.5 -34.5t58 -56.5t22.5 -86.5q0 -69 -51 -123.5t-167 -57.5l-17 -46q15 12 38 12q29 0 47 -17.5t18 -47.5q0 -33 -28 -54.5t-70 -21.5z" />
    <glyph glyph-name="scedilla" unicode="&#x15f;" horiz-adv-x="454" 
d="M220 -187q-58 0 -93 28l14 27q32 -28 79 -28q29 0 49 13.5t20 35.5q0 43 -44 43q-27 0 -43 -19l-22 13l22 63q-96 4 -158 76l24 22q54 -72 153 -72q65 0 104 31.5t39 80.5q0 41 -32 65t-77.5 35.5l-91 24t-77.5 40.5t-32 75q0 55 44 91.5t120 36.5q109 0 166 -73l-22 -20
q-46 66 -144 66q-62 0 -98 -28.5t-36 -72.5q0 -37 32 -58.5t77.5 -32.5t91 -24t77.5 -43.5t32 -81.5q0 -58 -42 -97t-120 -42l-17 -46q15 12 38 12q29 0 47 -17.5t18 -47.5q0 -33 -28 -54.5t-70 -21.5z" />
    <glyph glyph-name="Scaron" unicode="&#x160;" horiz-adv-x="575" 
d="M299 723h-36l-101 144h28l91 -120l88 120h28zM286 -12q-75 0 -135 29t-98 77l26 23q81 -99 207 -99q55 0 95 14.5t60 38t29 48t9 50.5q0 51 -30 85.5t-75 49.5l-97.5 31.5l-97.5 32t-75 51.5t-30 89q0 78 61 124t148 46q140 0 216 -94l-25 -23q-67 87 -191 87
q-74 0 -124 -39.5t-50 -100.5q0 -38 22.5 -65t58 -42t79 -27.5t86.5 -27t78.5 -34.5t58 -56.5t22.5 -86.5q0 -31 -11 -60.5t-35 -58t-71 -45.5t-111 -17z" />
    <glyph glyph-name="scaron" unicode="&#x161;" horiz-adv-x="454" 
d="M241 556h-36l-101 144h28l91 -120l88 120h28zM221 -12q-110 0 -177 77l24 22q54 -72 153 -72q65 0 104 31.5t39 80.5q0 41 -32 65t-77.5 35.5l-91 24t-77.5 40.5t-32 75q0 55 44 91.5t120 36.5q109 0 166 -73l-22 -20q-46 66 -144 66q-62 0 -98 -28.5t-36 -72.5
q0 -37 32 -58.5t77.5 -32.5t91 -24t77.5 -43.5t32 -81.5q0 -60 -44.5 -99.5t-128.5 -39.5z" />
    <glyph glyph-name="Tcommaaccent" unicode="&#x162;" horiz-adv-x="559" 
d="M324 -137q0 -36 -18 -69.5t-44 -51.5l-22 18q24 18 38.5 43.5t14.5 48.5q-6 -1 -8 -1q-14 0 -23 9.5t-9 23.5q0 13 9 22.5t23 9.5q16 0 27.5 -14t11.5 -39zM295 0h-32v637h-225v30h483v-30h-226v-637z" />
    <glyph glyph-name="tcommaaccent" unicode="&#x163;" horiz-adv-x="256" 
d="M173 -137q0 -36 -18 -69.5t-44 -51.5l-22 18q24 18 38.5 43.5t14.5 48.5q-6 -1 -8 -1q-14 0 -23 9.5t-9 23.5q0 13 9 22.5t23 9.5q16 0 27.5 -14t11.5 -39zM174 -12q-82 0 -82 97v371h-80v27h80v132h30v-132h98v-27h-98v-371q0 -70 52 -70q35 0 57 26l18 -23
q-32 -30 -75 -30z" />
    <glyph glyph-name="Tcaron" unicode="&#x164;" horiz-adv-x="559" 
d="M299 723h-36l-101 144h28l91 -120l88 120h28zM295 0h-32v637h-225v30h483v-30h-226v-637z" />
    <glyph glyph-name="tcaron" unicode="&#x165;" horiz-adv-x="256" 
d="M260 672q0 -36 -18 -69.5t-44 -51.5l-22 18q24 18 38.5 43.5t14.5 48.5q-6 -1 -8 -1q-14 0 -23 9.5t-9 23.5q0 13 9 22.5t23 9.5q16 0 27.5 -14t11.5 -39zM174 -12q-82 0 -82 97v371h-80v27h80v132h30v-132h98v-27h-98v-371q0 -70 52 -70q35 0 57 26l18 -23
q-32 -30 -75 -30z" />
    <glyph glyph-name="Tbar" unicode="&#x166;" horiz-adv-x="559" 
d="M295 0h-32v321h-165v27h165v289h-225v30h483v-30h-226v-289h166v-27h-166v-321z" />
    <glyph glyph-name="tbar" unicode="&#x167;" horiz-adv-x="256" 
d="M174 -12q-82 0 -82 97v157h-80v27h80v187h-80v27h80v132h30v-132h98v-27h-98v-187h71v-27h-71v-157q0 -70 52 -70q35 0 57 26l18 -23q-32 -30 -75 -30z" />
    <glyph glyph-name="Utilde" unicode="&#x168;" horiz-adv-x="672" 
d="M336 -12q-120 0 -184 70t-64 195v414h32v-414q0 -112 56 -173.5t160 -61.5t160 61.5t56 173.5v414h32v-414q0 -125 -64 -195t-184 -70zM401 721q-26 0 -44.5 17.5t-27 39t-23 39t-33.5 17.5q-26 0 -42.5 -26.5t-16.5 -80.5h-26q0 57 23.5 95.5t64.5 38.5q26 0 44.5 -17.5
t27 -39t23 -39t33.5 -17.5q26 0 42.5 26.5t16.5 80.5h26q0 -57 -23.5 -95.5t-64.5 -38.5z" />
    <glyph glyph-name="utilde" unicode="&#x169;" 
d="M442 0h-30v74q-33 -37 -80 -61.5t-95 -24.5q-75 0 -113 36.5t-38 119.5v339h30v-339q0 -72 32 -100.5t93 -28.5q48 0 96.5 25.5t74.5 62.5v380h30v-483zM326 554q-26 0 -44.5 17.5t-27 39t-23 39t-33.5 17.5q-26 0 -42.5 -26.5t-16.5 -80.5h-26q0 57 23.5 95.5t64.5 38.5
q26 0 44.5 -17.5t27 -39t23 -39t33.5 -17.5q26 0 42.5 26.5t16.5 80.5h26q0 -57 -23.5 -95.5t-64.5 -38.5z" />
    <glyph glyph-name="Umacron" unicode="&#x16a;" horiz-adv-x="672" 
d="M336 -12q-120 0 -184 70t-64 195v414h32v-414q0 -112 56 -173.5t160 -61.5t160 61.5t56 173.5v414h32v-414q0 -125 -64 -195t-184 -70zM517 748h-363v27h363v-27z" />
    <glyph glyph-name="umacron" unicode="&#x16b;" 
d="M442 0h-30v74q-33 -37 -80 -61.5t-95 -24.5q-75 0 -113 36.5t-38 119.5v339h30v-339q0 -72 32 -100.5t93 -28.5q48 0 96.5 25.5t74.5 62.5v380h30v-483zM445 581h-363v27h363v-27z" />
    <glyph glyph-name="Ubreve" unicode="&#x16c;" horiz-adv-x="672" 
d="M336 -12q-120 0 -184 70t-64 195v414h32v-414q0 -112 56 -173.5t160 -61.5t160 61.5t56 173.5v414h32v-414q0 -125 -64 -195t-184 -70zM515 799q-65 -88 -175 -88q-109 0 -176 88l21 19q57 -80 155 -80t155 80z" />
    <glyph glyph-name="ubreve" unicode="&#x16d;" 
d="M442 0h-30v74q-33 -37 -80 -61.5t-95 -24.5q-75 0 -113 36.5t-38 119.5v339h30v-339q0 -72 32 -100.5t93 -28.5q48 0 96.5 25.5t74.5 62.5v380h30v-483zM441 632q-65 -88 -175 -88q-109 0 -176 88l21 19q57 -80 155 -80t155 80z" />
    <glyph glyph-name="Uring" unicode="&#x16e;" horiz-adv-x="672" 
d="M336 720q-38 0 -65.5 27.5t-27.5 65.5t27.5 65.5t65.5 27.5t65 -27.5t27 -65.5t-27 -65.5t-65 -27.5zM336 744q28 0 48 20t20 49t-20 49t-48 20t-48.5 -20t-20.5 -49t20.5 -49t48.5 -20zM336 -12q-120 0 -184 70t-64 195v414h32v-414q0 -112 56 -173.5t160 -61.5
t160 61.5t56 173.5v414h32v-414q0 -125 -64 -195t-184 -70z" />
    <glyph glyph-name="uring" unicode="&#x16f;" 
d="M264 553q-38 0 -65.5 27.5t-27.5 65.5t27.5 65.5t65.5 27.5t65 -27.5t27 -65.5t-27 -65.5t-65 -27.5zM264 577q28 0 48 20t20 49t-20 49t-48 20t-48.5 -20.5t-20.5 -48.5t20.5 -48.5t48.5 -20.5zM442 0h-30v74q-33 -37 -80 -61.5t-95 -24.5q-75 0 -113 36.5t-38 119.5
v339h30v-339q0 -72 32 -100.5t93 -28.5q48 0 96.5 25.5t74.5 62.5v380h30v-483z" />
    <glyph glyph-name="Uhungarumlaut" unicode="&#x170;" horiz-adv-x="672" 
d="M336 -12q-120 0 -184 70t-64 195v414h32v-414q0 -112 56 -173.5t160 -61.5t160 61.5t56 173.5v414h32v-414q0 -125 -64 -195t-184 -70zM378 867l-115 -144h-26l100 144h41zM514 867l-115 -144h-26l100 144h41z" />
    <glyph glyph-name="uhungarumlaut" unicode="&#x171;" 
d="M442 0h-30v74q-33 -37 -80 -61.5t-95 -24.5q-75 0 -113 36.5t-38 119.5v339h30v-339q0 -72 32 -100.5t93 -28.5q48 0 96.5 25.5t74.5 62.5v380h30v-483zM306 700l-115 -144h-26l100 144h41zM442 700l-115 -144h-26l100 144h41z" />
    <glyph glyph-name="Uogonek" unicode="&#x172;" horiz-adv-x="672" 
d="M336 -12q-120 0 -184 70t-64 195v414h32v-414q0 -112 56 -173.5t160 -61.5t160 61.5t56 173.5v414h32v-414q0 -100 -41 -165.5t-120 -87.5q-80 -39 -80 -102q0 -57 52 -57q43 0 58 47l25 -11q-22 -63 -83 -63q-35 0 -58 21t-23 63q0 50 46 91q-8 -1 -24 -1z" />
    <glyph glyph-name="uogonek" unicode="&#x173;" 
d="M442 0q-82 -39 -82 -102q0 -57 52 -57q43 0 58 47l25 -11q-22 -63 -83 -63q-35 0 -58 21t-23 63q0 34 22.5 65t58.5 50v61q-33 -37 -80 -61.5t-95 -24.5q-75 0 -113 36.5t-38 119.5v339h30v-339q0 -72 32 -100.5t93 -28.5q48 0 96.5 25.5t74.5 62.5v380h30v-483z" />
    <glyph glyph-name="Wcircumflex" unicode="&#x174;" horiz-adv-x="852" 
d="M544 723h-28l-91 120l-88 -120h-28l98 144h36zM637 0h-38l-173 607l-173 -607h-38l-190 667h35l174 -619l175 619h34l175 -619l174 619h35z" />
    <glyph glyph-name="wcircumflex" unicode="&#x175;" horiz-adv-x="704" 
d="M470 556h-28l-91 120l-88 -120h-28l98 144h36zM522 0h-24l-146 438l-146 -438h-24l-160 483h33l140 -436l145 436h24l145 -436l140 436h33z" />
    <glyph glyph-name="Ycircumflex" unicode="&#x176;" horiz-adv-x="610" 
d="M424 723h-28l-91 120l-88 -120h-28l98 144h36zM321 0h-32v289l-268 378h41l243 -346l243 346h41l-268 -378v-289z" />
    <glyph glyph-name="ycircumflex" unicode="&#x177;" horiz-adv-x="471" 
d="M50 -189l6 28q18 -8 42 -8q25 0 42.5 14.5t33.5 51.5l44 100l-207 486h35l190 -448l189 448h35l-256 -597q-36 -82 -106 -82q-27 0 -48 7zM354 556h-28l-91 120l-88 -120h-28l98 144h36z" />
    <glyph glyph-name="Ydieresis" unicode="&#x178;" horiz-adv-x="610" 
d="M438 765q0 -11 -8.5 -19.5t-19.5 -8.5t-19.5 8.5t-8.5 19.5t8.5 19.5t19.5 8.5t19.5 -8.5t8.5 -19.5zM236 765q0 -11 -8.5 -19.5t-19.5 -8.5t-19.5 8.5t-8.5 19.5t8.5 19.5t19.5 8.5t19.5 -8.5t8.5 -19.5zM321 0h-32v289l-268 378h41l243 -346l243 346h41l-268 -378v-289
z" />
    <glyph glyph-name="Zacute" unicode="&#x179;" horiz-adv-x="578" 
d="M443 867l-175 -144h-30l160 144h45zM525 0h-472v30l427 607h-427v30h465v-30l-428 -607h435v-30z" />
    <glyph glyph-name="zacute" unicode="&#x17a;" horiz-adv-x="466" 
d="M387 700l-175 -144h-30l160 144h45zM406 0h-346v27l307 429h-307v27h342v-27l-309 -429h313v-27z" />
    <glyph glyph-name="Zdotaccent" unicode="&#x17b;" horiz-adv-x="578" 
d="M525 0h-472v30l427 607h-427v30h465v-30l-428 -607h435v-30zM289 733q-11 0 -20 8.5t-9 20.5t9 20.5t20 8.5q12 0 20.5 -8.5t8.5 -20.5t-8.5 -20.5t-20.5 -8.5z" />
    <glyph glyph-name="zdotaccent" unicode="&#x17c;" horiz-adv-x="466" 
d="M406 0h-346v27l307 429h-307v27h342v-27l-309 -429h313v-27zM233 566q-11 0 -20 8.5t-9 20.5t9 20.5t20 8.5q12 0 20.5 -8.5t8.5 -20.5t-8.5 -20.5t-20.5 -8.5z" />
    <glyph glyph-name="Zcaron" unicode="&#x17d;" horiz-adv-x="578" 
d="M308 723h-36l-101 144h28l91 -120l88 120h28zM525 0h-472v30l427 607h-427v30h465v-30l-428 -607h435v-30z" />
    <glyph glyph-name="zcaron" unicode="&#x17e;" horiz-adv-x="466" 
d="M245 556h-36l-101 144h28l91 -120l88 120h28zM406 0h-346v27l307 429h-307v27h342v-27l-309 -429h313v-27z" />
    <glyph glyph-name="longs" unicode="&#x17f;" horiz-adv-x="246" 
d="M130 0h-30v456h-80v27h80v51q0 67 32 105t89 38q45 0 82 -30l-18 -24q-29 27 -64 27q-91 0 -91 -116v-534z" />
    <glyph glyph-name="florin" unicode="&#x192;" horiz-adv-x="412" 
d="M72 -161h-32l95 428h-80v30h86l53 237q15 67 55.5 105t97.5 38q46 0 75 -30l-23 -24q-19 24 -52 24q-45 0 -77.5 -30t-43.5 -83l-53 -237h162v-30h-168z" />
    <glyph glyph-name="Ohorn" unicode="&#x1a0;" horiz-adv-x="764" 
d="M382 -12q-143 0 -230 98.5t-87 246.5t87 246.5t230 98.5q151 0 241 -113q46 39 46 87q-6 -1 -8 -1q-14 0 -23 9.5t-9 23.5q0 13 9 22.5t23 9.5q16 0 27.5 -14t11.5 -39q0 -36 -18 -69t-43 -51q60 -89 60 -210q0 -148 -87.5 -246.5t-229.5 -98.5zM382 18q127 0 204.5 88.5
t77.5 226.5q0 139 -77.5 227t-204.5 88q-128 0 -205 -88t-77 -227q0 -138 77 -226.5t205 -88.5z" />
    <glyph glyph-name="ohorn" unicode="&#x1a1;" horiz-adv-x="570" 
d="M506 529q0 -67 -52 -113q56 -70 56 -174q0 -109 -62 -181.5t-163 -72.5q-100 0 -162.5 72.5t-62.5 181.5q0 108 62.5 180.5t162.5 72.5q88 0 149 -59q41 39 41 82q-6 -1 -8 -1q-14 0 -23 9.5t-9 23.5q0 13 9 22.5t23 9.5q16 0 27.5 -14t11.5 -39zM285 15q89 0 140.5 66.5
t51.5 160.5q0 93 -51.5 159.5t-140.5 66.5q-88 0 -140 -66.5t-52 -159.5q0 -94 52 -160.5t140 -66.5z" />
    <glyph glyph-name="Uhorn" unicode="&#x1af;" horiz-adv-x="672" 
d="M704 730q0 -51 -33 -92.5t-87 -59.5v-325q0 -125 -64 -195t-184 -70t-184 70t-64 195v414h32v-414q0 -112 56 -173.5t160 -61.5t160 61.5t56 173.5v414h32v-61q38 16 63.5 47.5t25.5 65.5q-6 -1 -8 -1q-14 0 -23 9.5t-9 23.5q0 13 9 22.5t23 9.5q16 0 27.5 -14t11.5 -39z
" />
    <glyph glyph-name="uhorn" unicode="&#x1b0;" 
d="M442 0h-30v74q-33 -37 -80 -61.5t-95 -24.5q-75 0 -113 36.5t-38 119.5v339h30v-339q0 -72 32 -100.5t93 -28.5q48 0 96.5 25.5t74.5 62.5v380h30v-69q32 18 52 46.5t20 57.5q-6 -1 -8 -1q-14 0 -23 9.5t-9 23.5q0 13 9 22.5t23 9.5q16 0 27.5 -14t11.5 -39
q0 -46 -28 -85.5t-75 -60.5v-383z" />
    <glyph glyph-name="AEacute" unicode="&#x1fc;" horiz-adv-x="930" 
d="M627 867l-175 -144h-30l160 144h45zM865 0h-408v179h-286l-113 -179h-37l425 667h419v-30h-376v-279h369v-30h-369v-298h376v-30zM457 209v421l-269 -421h269z" />
    <glyph glyph-name="aeacute" unicode="&#x1fd;" horiz-adv-x="905" 
d="M567 700l-175 -144h-30l160 144h45zM845 232h-391q3 -92 54 -154.5t134 -62.5q93 0 157 73l18 -19q-71 -81 -174 -81q-68 0 -120.5 37t-77.5 105q-21 -65 -72.5 -103.5t-119.5 -38.5q-84 0 -137.5 43.5t-53.5 118.5q0 74 52.5 117t127.5 43q112 0 182 -69v107
q0 57 -40 88.5t-108 31.5q-100 0 -169 -76l-23 20q71 83 200 83q61 0 111 -29.5t57 -94.5q23 54 72.5 89t108.5 35q101 0 156.5 -73t55.5 -180v-10zM454 259h359q0 81 -46 145t-134 64q-80 0 -128 -64.5t-51 -144.5zM424 188v19q-61 76 -172 76q-71 0 -114 -38.5t-43 -95.5
t43 -95.5t114 -38.5q78 0 125 51t47 122z" />
    <glyph glyph-name="Oslashacute" unicode="&#x1fe;" horiz-adv-x="764" 
d="M536 867l-175 -144h-30l160 144h45zM382 -12q-92 0 -163 43l-18 -31h-36l29 48q-62 47 -95.5 121t-33.5 164q0 148 87 246.5t230 98.5q89 0 162 -43l19 32h36l-30 -50q62 -46 96 -120.5t34 -163.5q0 -148 -87.5 -246.5t-229.5 -98.5zM382 18q127 0 204.5 88.5t77.5 226.5
q0 169 -111 258l-318 -534q64 -39 147 -39zM100 333q0 -170 110 -258l318 534q-64 39 -146 39q-128 0 -205 -88t-77 -227z" />
    <glyph glyph-name="oslashacute" unicode="&#x1ff;" horiz-adv-x="570" 
d="M439 700l-175 -144h-30l160 144h45zM118 0h-34l42 56q-66 72 -66 186q0 108 62.5 180.5t162.5 72.5q76 0 133 -44l24 32h33l-37 -50q72 -72 72 -191q0 -109 -62 -181.5t-163 -72.5q-81 0 -139 49zM285 15q89 0 140.5 66.5t51.5 160.5q0 101 -57 166l-257 -347
q49 -46 122 -46zM93 242q0 -96 52 -160l255 345q-49 41 -115 41q-88 0 -140 -66.5t-52 -159.5z" />
    <glyph glyph-name="Scommaaccent" unicode="&#x218;" horiz-adv-x="575" 
d="M327 -137q0 -36 -18 -69.5t-44 -51.5l-22 18q24 18 38.5 43.5t14.5 48.5q-6 -1 -8 -1q-14 0 -23 9.5t-9 23.5q0 13 9 22.5t23 9.5q16 0 27.5 -14t11.5 -39zM286 -12q-75 0 -135 29t-98 77l26 23q81 -99 207 -99q55 0 95 14.5t60 38t29 48t9 50.5q0 51 -30 85.5t-75 49.5
l-97.5 31.5l-97.5 32t-75 51.5t-30 89q0 78 61 124t148 46q140 0 216 -94l-25 -23q-67 87 -191 87q-74 0 -124 -39.5t-50 -100.5q0 -38 22.5 -65t58 -42t79 -27.5t86.5 -27t78.5 -34.5t58 -56.5t22.5 -86.5q0 -31 -11 -60.5t-35 -58t-71 -45.5t-111 -17z" />
    <glyph glyph-name="scommaaccent" unicode="&#x219;" horiz-adv-x="454" 
d="M272 -137q0 -36 -18 -69.5t-44 -51.5l-22 18q24 18 38.5 43.5t14.5 48.5q-6 -1 -8 -1q-14 0 -23 9.5t-9 23.5q0 13 9 22.5t23 9.5q16 0 27.5 -14t11.5 -39zM221 -12q-110 0 -177 77l24 22q54 -72 153 -72q65 0 104 31.5t39 80.5q0 41 -32 65t-77.5 35.5l-91 24
t-77.5 40.5t-32 75q0 55 44 91.5t120 36.5q109 0 166 -73l-22 -20q-46 66 -144 66q-62 0 -98 -28.5t-36 -72.5q0 -37 32 -58.5t77.5 -32.5t91 -24t77.5 -43.5t32 -81.5q0 -60 -44.5 -99.5t-128.5 -39.5z" />
    <glyph glyph-name="uni021A" unicode="&#x21a;" horiz-adv-x="559" 
d="M324 -137q0 -36 -18 -69.5t-44 -51.5l-22 18q24 18 38.5 43.5t14.5 48.5q-6 -1 -8 -1q-14 0 -23 9.5t-9 23.5q0 13 9 22.5t23 9.5q16 0 27.5 -14t11.5 -39zM295 0h-32v637h-225v30h483v-30h-226v-637z" />
    <glyph glyph-name="uni021B" unicode="&#x21b;" horiz-adv-x="256" 
d="M173 -137q0 -36 -18 -69.5t-44 -51.5l-22 18q24 18 38.5 43.5t14.5 48.5q-6 -1 -8 -1q-14 0 -23 9.5t-9 23.5q0 13 9 22.5t23 9.5q16 0 27.5 -14t11.5 -39zM174 -12q-82 0 -82 97v371h-80v27h80v132h30v-132h98v-27h-98v-371q0 -70 52 -70q35 0 57 26l18 -23
q-32 -30 -75 -30z" />
    <glyph glyph-name="uni0237" unicode="&#x237;" horiz-adv-x="202" 
d="M-3 -196q-51 0 -92 38l19 25q32 -36 73 -36q40 0 64.5 23t24.5 70v559h30v-559q0 -120 -119 -120z" />
    <glyph glyph-name="hsuperior" unicode="&#x2b0;" horiz-adv-x="387" 
d="M318 326h-28v214q0 47 -21 66t-61 19q-31 0 -62 -17t-49 -40v-242h-28v434h28v-169q20 23 52.5 40t65.5 17q51 0 77 -25.5t26 -83.5v-213z" />
    <glyph glyph-name="uni02BC" unicode="&#x2bc;" horiz-adv-x="208" 
d="M142 624q0 -36 -18 -69.5t-44 -51.5l-22 18q24 18 38.5 43.5t14.5 48.5q-6 -1 -8 -1q-14 0 -23 9.5t-9 23.5q0 13 9 22.5t23 9.5q16 0 27.5 -14t11.5 -39z" />
    <glyph glyph-name="circumflex" unicode="&#x2c6;" horiz-adv-x="235" 
d="M235 556h-28l-91 120l-88 -120h-28l98 144h36z" />
    <glyph glyph-name="caron" unicode="&#x2c7;" horiz-adv-x="235" 
d="M137 556h-36l-101 144h28l91 -120l88 120h28z" />
    <glyph glyph-name="uni02C9" unicode="&#x2c9;" horiz-adv-x="363" 
d="M363 591h-363v27h363v-27z" />
    <glyph glyph-name="uni02CB" unicode="&#x2cb;" horiz-adv-x="205" 
d="M205 556h-30l-175 144h45z" />
    <glyph glyph-name="breve" unicode="&#x2d8;" horiz-adv-x="351" 
d="M351 632q-65 -88 -175 -88q-109 0 -176 88l21 19q57 -80 155 -80t155 80z" />
    <glyph glyph-name="dotaccent" unicode="&#x2d9;" horiz-adv-x="58" 
d="M29 566q-11 0 -20 8.5t-9 20.5t9 20.5t20 8.5q12 0 20.5 -8.5t8.5 -20.5t-8.5 -20.5t-20.5 -8.5z" />
    <glyph glyph-name="ring" unicode="&#x2da;" horiz-adv-x="185" 
d="M93 553q-38 0 -65.5 27.5t-27.5 65.5t27.5 65.5t65.5 27.5t65 -27.5t27 -65.5t-27 -65.5t-65 -27.5zM93 577q28 0 48 20t20 49t-20 49t-48 20q-29 0 -49 -20.5t-20 -48.5t20 -48.5t49 -20.5z" />
    <glyph glyph-name="ogonek" unicode="&#x2db;" horiz-adv-x="164" 
d="M139 -112l25 -11q-22 -63 -83 -63q-35 0 -58 21t-23 63q0 35 24.5 67.5t63.5 51.5l23 -17q-82 -39 -82 -102q0 -57 52 -57q43 0 58 47z" />
    <glyph glyph-name="tilde" unicode="&#x2dc;" horiz-adv-x="301" 
d="M213 554q-26 0 -44.5 17.5t-27 39t-23 39t-33.5 17.5q-26 0 -42.5 -26.5t-16.5 -80.5h-26q0 57 23.5 95.5t64.5 38.5q26 0 44.5 -17.5t27 -39t23 -39t33.5 -17.5q26 0 42.5 26.5t16.5 80.5h26q0 -57 -23.5 -95.5t-64.5 -38.5z" />
    <glyph glyph-name="hungarumlaut" unicode="&#x2dd;" horiz-adv-x="277" 
d="M141 700l-115 -144h-26l100 144h41zM277 700l-115 -144h-26l100 144h41z" />
    <glyph glyph-name="hookabovecomb" unicode="&#x309;" horiz-adv-x="164" 
d="M37 731l-21 6q16 53 67 53q28 0 46.5 -17t18.5 -50q0 -28 -22 -56h-27q26 26 26 56q0 45 -42 45q-34 0 -46 -37z" />
    <glyph glyph-name="uni037E" unicode="&#x37e;" horiz-adv-x="208" 
d="M104 425q-13 0 -23 9.5t-10 22.5t9.5 23t23.5 10t23.5 -10t9.5 -23t-10 -22.5t-23 -9.5zM142 3q0 -36 -18 -69.5t-44 -51.5l-22 18q24 18 38.5 43.5t14.5 48.5q-6 -1 -8 -1q-14 0 -23 9.5t-9 23.5q0 13 9 22.5t23 9.5q16 0 27.5 -14t11.5 -39z" />
    <glyph glyph-name="tonos" unicode="&#x384;" horiz-adv-x="176" 
d="M114 575h-22l17 190h52z" />
    <glyph glyph-name="dieresistonos" unicode="&#x385;" 
d="M265 575h-22l17 190h52zM413 598q0 -11 -8.5 -19.5t-19.5 -8.5t-19.5 8.5t-8.5 19.5t8.5 19.5t19.5 8.5t19.5 -8.5t8.5 -19.5zM171 598q0 -11 -8.5 -19.5t-19.5 -8.5t-19.5 8.5t-8.5 19.5t8.5 19.5t19.5 8.5t19.5 -8.5t8.5 -19.5z" />
    <glyph glyph-name="Alphatonos" unicode="&#x386;" horiz-adv-x="636" 
d="M197 575h-22l17 190h52zM615 0h-37l-74 179h-372l-74 -179h-37l278 667h38zM492 209l-174 421l-174 -421h348z" />
    <glyph glyph-name="Epsilontonos" unicode="&#x388;" horiz-adv-x="558" 
d="M13 575h-22l17 190h52zM496 0h-408v667h408v-30h-376v-279h369v-30h-369v-298h376v-30z" />
    <glyph glyph-name="Etatonos" unicode="&#x389;" horiz-adv-x="695" 
d="M13 575h-22l17 190h52zM607 0h-32v328h-455v-328h-32v667h32v-309h455v309h32v-667z" />
    <glyph glyph-name="Iotatonos" unicode="&#x38a;" horiz-adv-x="208" 
d="M13 575h-22l17 190h52zM120 0h-32v667h32v-667z" />
    <glyph glyph-name="Omicrontonos" unicode="&#x38c;" horiz-adv-x="764" 
d="M63 575h-22l17 190h52zM382 -12q-143 0 -230 98.5t-87 246.5t87 246.5t230 98.5q142 0 229.5 -98.5t87.5 -246.5t-87.5 -246.5t-229.5 -98.5zM382 18q127 0 204.5 88.5t77.5 226.5q0 139 -77.5 227t-204.5 88q-128 0 -205 -88t-77 -227q0 -138 77 -226.5t205 -88.5z" />
    <glyph glyph-name="Upsilontonos" unicode="&#x38e;" horiz-adv-x="645" 
d="M13 575h-22l17 190h52zM356 0h-32v289l-268 378h41l243 -346l243 346h41l-268 -378v-289z" />
    <glyph glyph-name="Omegatonos" unicode="&#x38f;" horiz-adv-x="764" 
d="M63 575h-22l17 190h52zM84 30h148q-167 95 -167 303q0 148 87 246.5t230 98.5t230 -98.5t87 -246.5q0 -209 -166 -303h148v-30h-215v30q78 19 138 98t60 205q0 139 -77 226.5t-205 87.5t-205 -87.5t-77 -226.5q0 -126 60.5 -205t138.5 -98v-30h-215v30z" />
    <glyph glyph-name="iotadieresistonos" unicode="&#x390;" horiz-adv-x="216" 
d="M109 575h-22l17 190h52zM257 598q0 -11 -8.5 -19.5t-19.5 -8.5t-19.5 8.5t-8.5 19.5t8.5 19.5t19.5 8.5t19.5 -8.5t8.5 -19.5zM15 598q0 -11 -8.5 -19.5t-19.5 -8.5t-19.5 8.5t-8.5 19.5t8.5 19.5t19.5 8.5t19.5 -8.5t8.5 -19.5zM168 -12q-82 0 -82 97v398h30v-398
q0 -70 52 -70q12 0 20 2l3 -27q-12 -2 -23 -2z" />
    <glyph glyph-name="Alpha" unicode="&#x391;" horiz-adv-x="636" 
d="M615 0h-37l-74 179h-372l-74 -179h-37l278 667h38zM492 209l-174 421l-174 -421h348z" />
    <glyph glyph-name="Beta" unicode="&#x392;" horiz-adv-x="600" 
d="M343 0h-255v667h251q82 0 132 -44.5t50 -125.5q0 -60 -35 -101.5t-83 -51.5q53 -8 92 -57t39 -107q0 -85 -51.5 -132.5t-139.5 -47.5zM339 358q71 0 109 39t38 100q0 60 -38.5 100t-108.5 40h-219v-279h219zM343 30q73 0 114.5 40t41.5 109q0 61 -41 105t-115 44h-223
v-298h223z" />
    <glyph glyph-name="Gamma" unicode="&#x393;" horiz-adv-x="533" 
d="M120 0h-32v667h408v-30h-376v-637z" />
    <glyph glyph-name="uni0394" unicode="&#x394;" horiz-adv-x="636" 
d="M615 0h-594l278 667h38zM567 30l-249 600l-249 -600h498z" />
    <glyph glyph-name="Epsilon" unicode="&#x395;" horiz-adv-x="558" 
d="M496 0h-408v667h408v-30h-376v-279h369v-30h-369v-298h376v-30z" />
    <glyph glyph-name="Zeta" unicode="&#x396;" horiz-adv-x="578" 
d="M525 0h-472v30l427 607h-427v30h465v-30l-428 -607h435v-30z" />
    <glyph glyph-name="Eta" unicode="&#x397;" horiz-adv-x="695" 
d="M607 0h-32v328h-455v-328h-32v667h32v-309h455v309h32v-667z" />
    <glyph glyph-name="Theta" unicode="&#x398;" horiz-adv-x="764" 
d="M597 328h-430v30h430v-30zM382 -12q-143 0 -230 98.5t-87 246.5t87 246.5t230 98.5q142 0 229.5 -98.5t87.5 -246.5t-87.5 -246.5t-229.5 -98.5zM382 18q127 0 204.5 88.5t77.5 226.5q0 139 -77.5 227t-204.5 88q-128 0 -205 -88t-77 -227q0 -138 77 -226.5t205 -88.5z
" />
    <glyph glyph-name="Iota" unicode="&#x399;" horiz-adv-x="208" 
d="M120 0h-32v667h32v-667z" />
    <glyph glyph-name="Kappa" unicode="&#x39a;" horiz-adv-x="571" 
d="M540 0h-43l-297 328l-80 -87v-241h-32v667h32v-385l347 385h43l-290 -319z" />
    <glyph glyph-name="Lambda" unicode="&#x39b;" horiz-adv-x="636" 
d="M615 0h-37l-260 630l-260 -630h-37l278 667h38z" />
    <glyph glyph-name="Mu" unicode="&#x39c;" horiz-adv-x="770" 
d="M682 0h-32v629l-260 -629h-10l-260 629v-629h-32v667h51l246 -597l246 597h51v-667z" />
    <glyph glyph-name="Nu" unicode="&#x39d;" horiz-adv-x="690" 
d="M602 0h-32l-450 615v-615h-32v667h32l450 -609v609h32v-667z" />
    <glyph glyph-name="Xi" unicode="&#x39e;" horiz-adv-x="608" 
d="M546 637h-483v30h483v-30zM545 0h-483v30h483v-30zM539 328h-469v30h469v-30z" />
    <glyph glyph-name="Omicron" unicode="&#x39f;" horiz-adv-x="764" 
d="M382 -12q-143 0 -230 98.5t-87 246.5t87 246.5t230 98.5q142 0 229.5 -98.5t87.5 -246.5t-87.5 -246.5t-229.5 -98.5zM382 18q127 0 204.5 88.5t77.5 226.5q0 139 -77.5 227t-204.5 88q-128 0 -205 -88t-77 -227q0 -138 77 -226.5t205 -88.5z" />
    <glyph glyph-name="Pi" unicode="&#x3a0;" horiz-adv-x="695" 
d="M607 0h-32v637h-455v-637h-32v667h519v-667z" />
    <glyph glyph-name="Rho" unicode="&#x3a1;" horiz-adv-x="555" 
d="M120 0h-32v667h231q90 0 142.5 -54.5t52.5 -134.5q0 -79 -53 -134t-142 -55h-199v-289zM318 319q73 0 117 44.5t44 114.5t-44 114.5t-117 44.5h-198v-318h198z" />
    <glyph glyph-name="Sigma" unicode="&#x3a3;" horiz-adv-x="567" 
d="M101 637l254 -292l-256 -315h406v-30h-443v30l255 314l-254 293v30h442v-30h-404z" />
    <glyph glyph-name="Tau" unicode="&#x3a4;" horiz-adv-x="559" 
d="M295 0h-32v637h-225v30h483v-30h-226v-637z" />
    <glyph glyph-name="Upsilon" unicode="&#x3a5;" horiz-adv-x="610" 
d="M321 0h-32v289l-268 378h41l243 -346l243 346h41l-268 -378v-289z" />
    <glyph glyph-name="Phi" unicode="&#x3a6;" horiz-adv-x="764" 
d="M398 0h-32v64q-136 4 -218.5 80.5t-82.5 188.5t82.5 188t218.5 81v65h32v-65q136 -5 218.5 -81t82.5 -188t-82.5 -188.5t-218.5 -80.5v-64zM100 333q0 -102 72.5 -168.5t193.5 -70.5v478q-121 -4 -193.5 -70.5t-72.5 -168.5zM664 333q0 101 -73 168t-193 71v-478
q120 4 193 71t73 168z" />
    <glyph glyph-name="Chi" unicode="&#x3a7;" horiz-adv-x="638" 
d="M613 0h-42l-252 318l-252 -318h-42l276 342l-261 325h43l236 -299l236 299h43l-261 -324z" />
    <glyph glyph-name="Psi" unicode="&#x3a8;" horiz-adv-x="736" 
d="M384 0h-32v124q-128 4 -196 74t-68 191v278h32v-278q0 -108 60 -169.5t172 -65.5v513h32v-513q112 4 172 65.5t60 169.5v278h32v-278q0 -121 -68 -191t-196 -74v-124z" />
    <glyph glyph-name="uni03A9" unicode="&#x3a9;" horiz-adv-x="764" 
d="M84 30h148q-167 95 -167 303q0 148 87 246.5t230 98.5t230 -98.5t87 -246.5q0 -209 -166 -303h148v-30h-215v30q78 19 138 98t60 205q0 139 -77 226.5t-205 87.5t-205 -87.5t-77 -226.5q0 -126 60.5 -205t138.5 -98v-30h-215v30z" />
    <glyph glyph-name="Iotadieresis" unicode="&#x3aa;" horiz-adv-x="208" 
d="M120 0h-32v667h32v-667zM233 782q0 -11 -8.5 -19.5t-19.5 -8.5t-19.5 8.5t-8.5 19.5t8.5 19.5t19.5 8.5t19.5 -8.5t8.5 -19.5zM31 782q0 -11 -8.5 -19.5t-19.5 -8.5t-19.5 8.5t-8.5 19.5t8.5 19.5t19.5 8.5t19.5 -8.5t8.5 -19.5z" />
    <glyph glyph-name="Upsilondieresis" unicode="&#x3ab;" horiz-adv-x="610" 
d="M321 0h-32v289l-268 378h41l243 -346l243 346h41l-268 -378v-289zM434 782q0 -11 -8.5 -19.5t-19.5 -8.5t-19.5 8.5t-8.5 19.5t8.5 19.5t19.5 8.5t19.5 -8.5t8.5 -19.5zM232 782q0 -11 -8.5 -19.5t-19.5 -8.5t-19.5 8.5t-8.5 19.5t8.5 19.5t19.5 8.5t19.5 -8.5t8.5 -19.5
z" />
    <glyph glyph-name="alphatonos" unicode="&#x3ac;" horiz-adv-x="580" 
d="M292 575h-22l17 190h52zM552 17l3 -27q-12 -2 -23 -2q-80 0 -82 93q-26 -40 -73 -66.5t-101 -26.5q-98 0 -157 69t-59 184q0 114 59.5 184t156.5 70q53 0 98.5 -25.5t75.5 -69.5v83h30v-398q0 -32 13.5 -51t38.5 -19q12 0 20 2zM276 15q54 0 102 28t72 68v259
q-24 40 -72 69t-102 29q-86 0 -134.5 -64t-48.5 -163t48.5 -162.5t134.5 -63.5z" />
    <glyph glyph-name="epsilontonos" unicode="&#x3ad;" horiz-adv-x="523" 
d="M264 575h-22l17 190h52zM271 -12q-99 0 -155 39t-56 100q0 56 46 85.5t98 33.5q-49 6 -91.5 36.5t-42.5 84.5q0 60 61 94t150 34q118 0 192 -76l-20 -18q-63 67 -172 67q-76 0 -127.5 -28t-51.5 -73q0 -52 52.5 -80t127.5 -28h116v-27h-116q-189 0 -189 -105
q0 -51 49.5 -81.5t128.5 -30.5q126 0 194 73l18 -19q-78 -81 -212 -81z" />
    <glyph glyph-name="etatonos" unicode="&#x3ae;" 
d="M266 575h-22l17 190h52zM442 -184h-30v521q0 72 -32 101.5t-93 29.5q-48 0 -96 -26.5t-75 -64.5v-377h-30v483h30v-76q29 35 78 61.5t97 26.5q75 0 113 -37.5t38 -120.5v-521z" />
    <glyph glyph-name="iotatonos" unicode="&#x3af;" horiz-adv-x="216" 
d="M111 575h-22l17 190h52zM168 -12q-82 0 -82 97v398h30v-398q0 -70 52 -70q12 0 20 2l3 -27q-12 -2 -23 -2z" />
    <glyph glyph-name="upsilondieresistonos" unicode="&#x3b0;" horiz-adv-x="549" 
d="M275 575h-22l17 190h52zM423 598q0 -11 -8.5 -19.5t-19.5 -8.5t-19.5 8.5t-8.5 19.5t8.5 19.5t19.5 8.5t19.5 -8.5t8.5 -19.5zM181 598q0 -11 -8.5 -19.5t-19.5 -8.5t-19.5 8.5t-8.5 19.5t8.5 19.5t19.5 8.5t19.5 -8.5t8.5 -19.5zM264 -12q-86 0 -132 58t-46 161v276h30
v-276q0 -90 38.5 -141t109.5 -51q89 0 140.5 66.5t51.5 160.5q0 144 -85 233l24 20q94 -107 94 -253q0 -109 -62 -181.5t-163 -72.5z" />
    <glyph glyph-name="alpha" unicode="&#x3b1;" horiz-adv-x="580" 
d="M552 17l3 -27q-12 -2 -23 -2q-80 0 -82 93q-26 -40 -73 -66.5t-101 -26.5q-98 0 -157 69t-59 184q0 114 59.5 184t156.5 70q53 0 98.5 -25.5t75.5 -69.5v83h30v-398q0 -32 13.5 -51t38.5 -19q12 0 20 2zM276 15q54 0 102 28t72 68v259q-24 40 -72 69t-102 29
q-86 0 -134.5 -64t-48.5 -163t48.5 -162.5t134.5 -63.5z" />
    <glyph glyph-name="beta" unicode="&#x3b2;" horiz-adv-x="566" 
d="M116 461v-350q24 -40 72 -68t102 -28q87 0 135 43.5t48 118.5q0 77 -54.5 115.5t-137.5 38.5h-31v27h31q76 0 126.5 36.5t50.5 108.5q0 67 -46.5 107t-113.5 40q-76 0 -129 -48.5t-53 -140.5zM116 81v-265h-30v645q0 105 61 160.5t151 55.5q79 0 136 -46.5t57 -127.5
q0 -72 -43 -110.5t-94 -47.5q31 -3 64 -19.5t60.5 -56t27.5 -92.5q0 -86 -58.5 -137.5t-154.5 -51.5q-56 0 -103.5 26.5t-73.5 66.5z" />
    <glyph glyph-name="gamma" unicode="&#x3b3;" horiz-adv-x="471" 
d="M251 -184h-30v159q0 145 -62 282.5t-158 225.5h40q76 -71 136 -197t71 -239q70 93 114 209t44 227h30q0 -115 -49.5 -241.5t-135.5 -237.5v-188z" />
    <glyph glyph-name="delta" unicode="&#x3b4;" horiz-adv-x="570" 
d="M285 -12q-99 0 -162 66t-63 156q0 81 45 141t121 87q-52 19 -79 44t-27 69q0 55 44 91.5t120 36.5q109 0 166 -73l-22 -20q-46 66 -144 66q-62 0 -98 -28.5t-36 -72.5q0 -28 20 -48t51.5 -32.5t70 -24t77 -28.5t70 -41t51.5 -66.5t20 -100.5q0 -90 -63 -156t-162 -66z
M480 210q0 41 -13.5 74.5t-30.5 53t-50.5 37.5t-54 26t-60.5 21q-86 -22 -132 -78t-46 -134q0 -74 52.5 -134.5t139.5 -60.5q88 0 141.5 60.5t53.5 134.5z" />
    <glyph glyph-name="epsilon" unicode="&#x3b5;" horiz-adv-x="523" 
d="M271 -12q-99 0 -155 39t-56 100q0 56 46 85.5t98 33.5q-49 6 -91.5 36.5t-42.5 84.5q0 60 61 94t150 34q118 0 192 -76l-20 -18q-63 67 -172 67q-76 0 -127.5 -28t-51.5 -73q0 -52 52.5 -80t127.5 -28h116v-27h-116q-189 0 -189 -105q0 -51 49.5 -81.5t128.5 -30.5
q126 0 194 73l18 -19q-78 -81 -212 -81z" />
    <glyph glyph-name="zeta" unicode="&#x3b6;" horiz-adv-x="493" 
d="M410 -59q0 27 -18 37t-59 10q-122 0 -197.5 60.5t-75.5 163.5q0 237 342 428h-326v27h367v-27q-178 -105 -264 -206.5t-86 -221.5q0 -91 66.5 -144t175.5 -53q57 0 82.5 -16.5t25.5 -57.5q0 -37 -35 -98h-35q37 64 37 98z" />
    <glyph glyph-name="eta" unicode="&#x3b7;" 
d="M442 -184h-30v521q0 72 -32 101.5t-93 29.5q-48 0 -96 -26.5t-75 -64.5v-377h-30v483h30v-76q29 35 78 61.5t97 26.5q75 0 113 -37.5t38 -120.5v-521z" />
    <glyph glyph-name="theta" unicode="&#x3b8;" horiz-adv-x="570" 
d="M285 -12q-75 0 -127 47t-75 123t-23 176q0 154 56.5 249.5t168.5 95.5t168.5 -95.5t56.5 -249.5t-56.5 -250t-168.5 -96zM285 15q50 0 88 24.5t59.5 68.5t32.5 97t12 117h-384q1 -63 11.5 -116.5t32.5 -97.5t60 -68.5t88 -24.5zM285 652q-66 0 -110 -44t-62 -109.5
t-20 -149.5h384q-3 132 -49 217.5t-143 85.5z" />
    <glyph glyph-name="iota" unicode="&#x3b9;" horiz-adv-x="216" 
d="M168 -12q-82 0 -82 97v398h30v-398q0 -70 52 -70q12 0 20 2l3 -27q-12 -2 -23 -2z" />
    <glyph glyph-name="kappa" unicode="&#x3ba;" horiz-adv-x="496" 
d="M471 0h-43l-212 243l-100 -92v-151h-30v483h30v-294l315 294h43l-235 -218z" />
    <glyph glyph-name="lambda" unicode="&#x3bb;" horiz-adv-x="471" 
d="M56 644l-6 28q21 7 48 7q70 0 106 -82l256 -597h-35l-189 448l-190 -448h-35l207 486l-44 100q-16 37 -33.5 51.5t-42.5 14.5q-24 0 -42 -8z" />
    <glyph glyph-name="uni03BC" unicode="&#x3bc;" horiz-adv-x="542" 
d="M116 53v-237h-30v667h30v-339q0 -131 127 -131q47 0 95 26.5t74 63.5v380h30v-398q0 -70 52 -70q12 0 20 2l3 -27q-12 -2 -23 -2q-75 0 -82 86q-32 -37 -77.5 -61.5t-91.5 -24.5q-95 0 -127 65z" />
    <glyph glyph-name="nu" unicode="&#x3bd;" horiz-adv-x="471" 
d="M248 0h-30l-207 483h35l191 -451q78 104 123.5 221.5t45.5 229.5h30q0 -116 -50.5 -243.5t-137.5 -239.5z" />
    <glyph glyph-name="xi" unicode="&#x3be;" horiz-adv-x="493" 
d="M333 -12q-130 0 -201.5 49t-71.5 140q0 77 50 120.5t102 48.5q-52 9 -97 45t-45 100q0 47 34 89t84 60h-112v27h355v-27h-186q-59 -13 -100.5 -57t-41.5 -92q0 -63 53.5 -97.5t128.5 -34.5h139v-27h-139q-83 0 -137.5 -39t-54.5 -116t63.5 -119.5t178.5 -42.5
q57 0 82.5 -16.5t25.5 -57.5q0 -37 -35 -98h-35q37 64 37 98q0 27 -18 37t-59 10z" />
    <glyph glyph-name="omicron" unicode="&#x3bf;" horiz-adv-x="570" 
d="M285 -12q-100 0 -162.5 72.5t-62.5 181.5q0 108 62.5 180.5t162.5 72.5q101 0 163 -72t62 -181t-62 -181.5t-163 -72.5zM285 15q89 0 140.5 66.5t51.5 160.5q0 93 -51.5 159.5t-140.5 66.5q-88 0 -140 -66.5t-52 -159.5q0 -94 52 -160.5t140 -66.5z" />
    <glyph glyph-name="pi" unicode="&#x3c0;" horiz-adv-x="540" 
d="M448 0h-30v456h-296v-456h-30v456h-80v27h516v-27h-80v-456z" />
    <glyph glyph-name="rho" unicode="&#x3c1;" horiz-adv-x="562" 
d="M290 -12q-53 0 -98.5 25.5t-75.5 69.5v-267h-30v426q0 109 57.5 181t151.5 72q95 0 153 -72t58 -181q0 -114 -59.5 -184t-156.5 -70zM290 15q86 0 134.5 64t48.5 163q0 93 -48 159.5t-131 66.5q-82 0 -130 -66.5t-48 -159.5v-129q24 -40 72 -69t102 -29z" />
    <glyph glyph-name="sigma1" unicode="&#x3c2;" horiz-adv-x="475" 
d="M328 -12q-125 0 -196.5 67t-71.5 187q0 107 63 180t165 73q56 0 94 -20t71 -61l-22 -18q-53 72 -141 72q-91 0 -144 -64.5t-53 -161.5q0 -111 64 -169t173 -58q57 0 82.5 -16.5t25.5 -57.5q0 -37 -35 -98h-30q37 64 37 98q0 27 -20 37t-62 10z" />
    <glyph glyph-name="sigma" unicode="&#x3c3;" horiz-adv-x="570" 
d="M510 234q0 -103 -62.5 -174.5t-162.5 -71.5t-162.5 72.5t-62.5 181.5q0 103 65.5 172t178.5 69h236v-27h-136q106 -80 106 -222zM477 234q0 78 -35 136.5t-91 85.5h-47q-100 0 -155.5 -63.5t-55.5 -150.5q0 -94 52 -160.5t140 -66.5t140 65.5t52 153.5z" />
    <glyph glyph-name="tau" unicode="&#x3c4;" horiz-adv-x="457" 
d="M295 -12q-82 0 -82 97v371h-182v27h395v-27h-183v-371q0 -70 52 -70q35 0 57 26l18 -23q-32 -30 -75 -30z" />
    <glyph glyph-name="upsilon" unicode="&#x3c5;" horiz-adv-x="549" 
d="M264 -12q-86 0 -132 58t-46 161v276h30v-276q0 -90 38.5 -141t109.5 -51q89 0 140.5 66.5t51.5 160.5q0 144 -85 233l24 20q94 -107 94 -253q0 -109 -62 -181.5t-163 -72.5z" />
    <glyph glyph-name="phi" unicode="&#x3c6;" horiz-adv-x="700" 
d="M640 242q0 -110 -70 -180t-205 -74v-172h-30v172q-135 4 -205 76.5t-70 188.5q0 81 48.5 143t124.5 99l14 -23q-154 -80 -154 -219q0 -102 59 -168t183 -70v480h15q142 0 216 -70.5t74 -182.5zM607 242q0 95 -59.5 158t-182.5 68v-453q124 4 183 68t59 159z" />
    <glyph glyph-name="chi" unicode="&#x3c7;" horiz-adv-x="472" 
d="M450 -184h-35l-179 315l-179 -315h-35l197 343l-186 324h35l168 -296l168 296h35l-186 -324z" />
    <glyph glyph-name="psi" unicode="&#x3c8;" horiz-adv-x="700" 
d="M365 -184h-30v172q-121 4 -185 61.5t-64 157.5v276h30v-276q0 -87 56.5 -137.5t162.5 -54.5v652h30v-652q104 4 161.5 54.5t57.5 137.5v276h30v-276q0 -100 -64 -157.5t-185 -61.5v-172z" />
    <glyph glyph-name="omega" unicode="&#x3c9;" horiz-adv-x="770" 
d="M710 242q0 -109 -47 -181.5t-123 -72.5q-64 0 -103.5 47.5t-51.5 107.5q-12 -60 -51.5 -107.5t-103.5 -47.5q-76 0 -123 72.5t-47 181.5q0 182 92 253l19 -23q-78 -66 -78 -230q0 -94 37.5 -160.5t101.5 -66.5t101 66.5t37 160.5v124h30v-124q0 -94 37 -160.5t101 -66.5
t101.5 66.5t37.5 160.5q0 164 -78 230l19 23q92 -71 92 -253z" />
    <glyph glyph-name="iotadieresis" unicode="&#x3ca;" horiz-adv-x="216" 
d="M237 598q0 -11 -8.5 -19.5t-19.5 -8.5t-19.5 8.5t-8.5 19.5t8.5 19.5t19.5 8.5t19.5 -8.5t8.5 -19.5zM35 598q0 -11 -8.5 -19.5t-19.5 -8.5t-19.5 8.5t-8.5 19.5t8.5 19.5t19.5 8.5t19.5 -8.5t8.5 -19.5zM168 -12q-82 0 -82 97v398h30v-398q0 -70 52 -70q12 0 20 2l3 -27
q-12 -2 -23 -2z" />
    <glyph glyph-name="upsilondieresis" unicode="&#x3cb;" horiz-adv-x="549" 
d="M403 598q0 -11 -8.5 -19.5t-19.5 -8.5t-19.5 8.5t-8.5 19.5t8.5 19.5t19.5 8.5t19.5 -8.5t8.5 -19.5zM201 598q0 -11 -8.5 -19.5t-19.5 -8.5t-19.5 8.5t-8.5 19.5t8.5 19.5t19.5 8.5t19.5 -8.5t8.5 -19.5zM264 -12q-86 0 -132 58t-46 161v276h30v-276q0 -90 38.5 -141
t109.5 -51q89 0 140.5 66.5t51.5 160.5q0 144 -85 233l24 20q94 -107 94 -253q0 -109 -62 -181.5t-163 -72.5z" />
    <glyph glyph-name="omicrontonos" unicode="&#x3cc;" horiz-adv-x="570" 
d="M287 575h-22l17 190h52zM285 -12q-100 0 -162.5 72.5t-62.5 181.5q0 108 62.5 180.5t162.5 72.5q101 0 163 -72t62 -181t-62 -181.5t-163 -72.5zM285 15q89 0 140.5 66.5t51.5 160.5q0 93 -51.5 159.5t-140.5 66.5q-88 0 -140 -66.5t-52 -159.5q0 -94 52 -160.5
t140 -66.5z" />
    <glyph glyph-name="upsilontonos" unicode="&#x3cd;" horiz-adv-x="549" 
d="M277 575h-22l17 190h52zM264 -12q-86 0 -132 58t-46 161v276h30v-276q0 -90 38.5 -141t109.5 -51q89 0 140.5 66.5t51.5 160.5q0 144 -85 233l24 20q94 -107 94 -253q0 -109 -62 -181.5t-163 -72.5z" />
    <glyph glyph-name="omegatonos" unicode="&#x3ce;" horiz-adv-x="770" 
d="M387 575h-22l17 190h52zM710 242q0 -109 -47 -181.5t-123 -72.5q-64 0 -103.5 47.5t-51.5 107.5q-12 -60 -51.5 -107.5t-103.5 -47.5q-76 0 -123 72.5t-47 181.5q0 182 92 253l19 -23q-78 -66 -78 -230q0 -94 37.5 -160.5t101.5 -66.5t101 66.5t37 160.5v124h30v-124
q0 -94 37 -160.5t101 -66.5t101.5 66.5t37.5 160.5q0 164 -78 230l19 23q92 -71 92 -253z" />
    <glyph glyph-name="afii10023" unicode="&#x401;" horiz-adv-x="558" 
d="M422 765q0 -11 -8.5 -19.5t-19.5 -8.5t-19.5 8.5t-8.5 19.5t8.5 19.5t19.5 8.5t19.5 -8.5t8.5 -19.5zM220 765q0 -11 -8.5 -19.5t-19.5 -8.5t-19.5 8.5t-8.5 19.5t8.5 19.5t19.5 8.5t19.5 -8.5t8.5 -19.5zM496 0h-408v667h408v-30h-376v-279h369v-30h-369v-298h376v-30z
" />
    <glyph glyph-name="afii10051" unicode="&#x402;" horiz-adv-x="777" 
d="M497 -12v30q75 0 117.5 50.5t42.5 140.5v5q0 100 -48 150.5t-139 50.5q-90 0 -175 -20v-395h-32v637h-225v30h483v-30h-226v-212q102 20 175 20q108 0 163.5 -60.5t55.5 -170.5v-5q0 -110 -54.5 -165.5t-137.5 -55.5z" />
    <glyph glyph-name="afii10052" unicode="&#x403;" horiz-adv-x="533" 
d="M446 867l-175 -144h-30l160 144h45zM120 0h-32v667h408v-30h-376v-637z" />
    <glyph glyph-name="afii10053" unicode="&#x404;" horiz-adv-x="667" 
d="M398 -12q-141 0 -237 97t-96 248t96 248t237 97t232 -105l-25 -22q-36 45 -90.5 71t-116.5 26q-121 0 -205 -80.5t-92 -209.5h381v-30h-382q1 -136 86.5 -223t211.5 -87q62 0 116.5 26t90.5 71l26 -21q-94 -106 -233 -106z" />
    <glyph glyph-name="afii10054" unicode="&#x405;" horiz-adv-x="575" 
d="M286 -12q-75 0 -135 29t-98 77l26 23q81 -99 207 -99q55 0 95 14.5t60 38t29 48t9 50.5q0 51 -30 85.5t-75 49.5l-97.5 31.5l-97.5 32t-75 51.5t-30 89q0 78 61 124t148 46q140 0 216 -94l-25 -23q-67 87 -191 87q-74 0 -124 -39.5t-50 -100.5q0 -38 22.5 -65t58 -42
t79 -27.5t86.5 -27t78.5 -34.5t58 -56.5t22.5 -86.5q0 -31 -11 -60.5t-35 -58t-71 -45.5t-111 -17z" />
    <glyph glyph-name="afii10055" unicode="&#x406;" horiz-adv-x="208" 
d="M120 0h-32v667h32v-667z" />
    <glyph glyph-name="afii10056" unicode="&#x407;" horiz-adv-x="208" 
d="M120 0h-32v667h32v-667zM233 765q0 -11 -8.5 -19.5t-19.5 -8.5t-19.5 8.5t-8.5 19.5t8.5 19.5t19.5 8.5t19.5 -8.5t8.5 -19.5zM31 765q0 -11 -8.5 -19.5t-19.5 -8.5t-19.5 8.5t-8.5 19.5t8.5 19.5t19.5 8.5t19.5 -8.5t8.5 -19.5z" />
    <glyph glyph-name="afii10057" unicode="&#x408;" horiz-adv-x="465" 
d="M185 -12q-107 0 -169 87l27 24q57 -81 142 -81q73 0 116.5 46.5t43.5 120.5v482h32v-482q0 -95 -55 -146t-137 -51z" />
    <glyph glyph-name="afii10058" unicode="&#x409;" horiz-adv-x="1042" 
d="M38 -12v30q49 0 81 24.5t58.5 97.5t44.5 204l44 323h341v-289h199q89 0 142 -55t53 -134q0 -80 -52.5 -134.5t-142.5 -54.5h-231v637h-281l-40 -297q-12 -90 -29 -154t-35.5 -102t-43.5 -60t-49.5 -29t-58.5 -7zM805 348h-198v-318h198q73 0 117 44.5t44 114.5t-44 114.5
t-117 44.5z" />
    <glyph glyph-name="afii10059" unicode="&#x40a;" horiz-adv-x="1042" 
d="M88 0v667h32v-309h455v309h32v-309h209q84 0 134.5 -51.5t50.5 -127.5t-50 -127.5t-135 -51.5h-241v328h-455v-328h-32zM607 30h209q67 0 108.5 42t41.5 107t-41.5 107t-108.5 42h-209v-298z" />
    <glyph glyph-name="afii10060" unicode="&#x40b;" horiz-adv-x="777" 
d="M657 0v236q0 85 -48.5 132t-138.5 47t-175 -20v-395h-32v637h-225v30h483v-30h-226v-212q102 20 175 20q106 0 162.5 -57.5t56.5 -152.5v-235h-32z" />
    <glyph glyph-name="afii10061" unicode="&#x40c;" horiz-adv-x="571" 
d="M444 867l-175 -144h-30l160 144h45zM540 0h-43l-297 328l-80 -87v-241h-32v667h32v-385l347 385h43l-290 -319z" />
    <glyph glyph-name="afii10062" unicode="&#x40e;" horiz-adv-x="610" 
d="M137 -12q-78 0 -121 64l26 21q38 -55 95 -55q36 0 58.5 21.5t56.5 83.5l34 63l-265 481h37l247 -448l247 448h37l-309 -559q-35 -64 -65.5 -92t-77.5 -28zM481 799q-65 -88 -175 -88q-109 0 -176 88l21 19q57 -80 155 -80t155 80z" />
    <glyph glyph-name="afii10145" unicode="&#x40f;" horiz-adv-x="695" 
d="M88 0v667h32v-637h455v637h32v-667h-243v-126h-32v126h-244z" />
    <glyph glyph-name="afii10017" unicode="&#x410;" horiz-adv-x="636" 
d="M615 0h-37l-74 179h-372l-74 -179h-37l278 667h38zM492 209l-174 421l-174 -421h348z" />
    <glyph glyph-name="afii10018" unicode="&#x411;" horiz-adv-x="555" 
d="M88 667h398v-30h-366v-259h199q89 0 142 -55t53 -134q0 -80 -52.5 -134.5t-142.5 -54.5h-231v667zM318 348h-198v-318h198q73 0 117 44.5t44 114.5t-44 114.5t-117 44.5z" />
    <glyph glyph-name="afii10019" unicode="&#x412;" horiz-adv-x="600" 
d="M343 0h-255v667h251q82 0 132 -44.5t50 -125.5q0 -60 -35 -101.5t-83 -51.5q53 -8 92 -57t39 -107q0 -85 -51.5 -132.5t-139.5 -47.5zM339 358q71 0 109 39t38 100q0 60 -38.5 100t-108.5 40h-219v-279h219zM343 30q73 0 114.5 40t41.5 109q0 61 -41 105t-115 44h-223
v-298h223z" />
    <glyph glyph-name="afii10020" unicode="&#x413;" horiz-adv-x="533" 
d="M120 0h-32v667h408v-30h-376v-637z" />
    <glyph glyph-name="afii10021" unicode="&#x414;" horiz-adv-x="710" 
d="M38 -123v153q37 0 62.5 11.5t49.5 44t41.5 96t30.5 162.5l44 323h341v-637h59v-153h-32v123h-564v-123h-32zM254 340q-34 -259 -124 -310h445v607h-281z" />
    <glyph glyph-name="afii10022" unicode="&#x415;" horiz-adv-x="558" 
d="M496 0h-408v667h408v-30h-376v-279h369v-30h-369v-298h376v-30z" />
    <glyph glyph-name="afii10024" unicode="&#x416;" horiz-adv-x="874" 
d="M74 0h-43l320 348l-290 319h43l317 -352v352h32v-352l317 352h43l-290 -319l320 -348h-43l-297 328l-50 -55v-273h-32v273l-50 55z" />
    <glyph glyph-name="afii10025" unicode="&#x417;" horiz-adv-x="562" 
d="M268 -12q-80 0 -140.5 31.5t-91.5 80.5l28 17q29 -44 81.5 -71.5t123.5 -27.5q89 0 140.5 42.5t51.5 116.5q0 77 -53.5 115t-136.5 38h-140v30h140q76 0 128 36t52 107q0 67 -52 105.5t-128 38.5q-62 0 -108 -22t-87 -68l-25 20q84 100 220 100q88 0 151.5 -46.5
t63.5 -127.5q0 -72 -45 -110.5t-97 -47.5q31 -3 64 -19.5t60.5 -56t27.5 -92.5q0 -83 -61 -136t-167 -53z" />
    <glyph glyph-name="afii10026" unicode="&#x418;" horiz-adv-x="690" 
d="M120 0h-32v667h32v-609l450 609h32v-667h-32v615z" />
    <glyph glyph-name="afii10027" unicode="&#x419;" horiz-adv-x="690" 
d="M120 0h-32v667h32v-609l450 609h32v-667h-32v615zM520 799q-65 -88 -175 -88q-109 0 -176 88l21 19q57 -80 155 -80t155 80z" />
    <glyph glyph-name="afii10028" unicode="&#x41a;" horiz-adv-x="571" 
d="M540 0h-43l-297 328l-80 -87v-241h-32v667h32v-385l347 385h43l-290 -319z" />
    <glyph glyph-name="afii10029" unicode="&#x41b;" horiz-adv-x="695" 
d="M38 -12v30q49 0 81 24.5t58.5 97.5t44.5 204l44 323h341v-667h-32v637h-281l-40 -297q-12 -90 -29 -154t-35.5 -102t-43.5 -60t-49.5 -29t-58.5 -7z" />
    <glyph glyph-name="afii10030" unicode="&#x41c;" horiz-adv-x="770" 
d="M682 0h-32v629l-260 -629h-10l-260 629v-629h-32v667h51l246 -597l246 597h51v-667z" />
    <glyph glyph-name="afii10031" unicode="&#x41d;" horiz-adv-x="695" 
d="M607 0h-32v328h-455v-328h-32v667h32v-309h455v309h32v-667z" />
    <glyph glyph-name="afii10032" unicode="&#x41e;" horiz-adv-x="764" 
d="M382 -12q-143 0 -230 98.5t-87 246.5t87 246.5t230 98.5q142 0 229.5 -98.5t87.5 -246.5t-87.5 -246.5t-229.5 -98.5zM382 18q127 0 204.5 88.5t77.5 226.5q0 139 -77.5 227t-204.5 88q-128 0 -205 -88t-77 -227q0 -138 77 -226.5t205 -88.5z" />
    <glyph glyph-name="afii10033" unicode="&#x41f;" horiz-adv-x="695" 
d="M607 0h-32v637h-455v-637h-32v667h519v-667z" />
    <glyph glyph-name="afii10034" unicode="&#x420;" horiz-adv-x="555" 
d="M120 0h-32v667h231q90 0 142.5 -54.5t52.5 -134.5q0 -79 -53 -134t-142 -55h-199v-289zM318 319q73 0 117 44.5t44 114.5t-44 114.5t-117 44.5h-198v-318h198z" />
    <glyph glyph-name="afii10035" unicode="&#x421;" horiz-adv-x="667" 
d="M398 -12q-141 0 -237 97t-96 248t96 248t237 97t232 -105l-25 -22q-36 45 -90.5 71t-116.5 26q-127 0 -212.5 -88t-85.5 -227q0 -138 85.5 -226.5t212.5 -88.5q62 0 116.5 26t90.5 71l26 -21q-94 -106 -233 -106z" />
    <glyph glyph-name="afii10036" unicode="&#x422;" horiz-adv-x="559" 
d="M295 0h-32v637h-225v30h483v-30h-226v-637z" />
    <glyph glyph-name="afii10037" unicode="&#x423;" horiz-adv-x="610" 
d="M137 -12q-78 0 -121 64l26 21q38 -55 95 -55q36 0 58.5 21.5t56.5 83.5l34 63l-265 481h37l247 -448l247 448h37l-309 -559q-35 -64 -65.5 -92t-77.5 -28z" />
    <glyph glyph-name="afii10038" unicode="&#x424;" horiz-adv-x="764" 
d="M398 0h-32v64q-136 4 -218.5 80.5t-82.5 188.5t82.5 188t218.5 81v65h32v-65q136 -5 218.5 -81t82.5 -188t-82.5 -188.5t-218.5 -80.5v-64zM100 333q0 -102 72.5 -168.5t193.5 -70.5v478q-121 -4 -193.5 -70.5t-72.5 -168.5zM664 333q0 101 -73 168t-193 71v-478
q120 4 193 71t73 168z" />
    <glyph glyph-name="afii10039" unicode="&#x425;" horiz-adv-x="638" 
d="M613 0h-42l-252 318l-252 -318h-42l276 342l-261 325h43l236 -299l236 299h43l-261 -324z" />
    <glyph glyph-name="afii10040" unicode="&#x426;" horiz-adv-x="710" 
d="M634 -123v123h-546v667h32v-637h455v637h32v-637h59v-153h-32z" />
    <glyph glyph-name="afii10041" unicode="&#x427;" horiz-adv-x="580" 
d="M98 667v-169q0 -85 48.5 -132t138.5 -47t175 20v328h32v-667h-32v309q-102 -20 -175 -20q-106 0 -162.5 57.5t-56.5 152.5v168h32z" />
    <glyph glyph-name="afii10042" unicode="&#x428;" horiz-adv-x="966" 
d="M846 667h32v-667h-790v667h32v-637h347v637h32v-637h347v637z" />
    <glyph glyph-name="afii10043" unicode="&#x429;" horiz-adv-x="994" 
d="M859 667h32v-637h59v-153h-32v123h-817v667h32v-637h347v637h32v-637h347v637z" />
    <glyph glyph-name="afii10044" unicode="&#x42a;" horiz-adv-x="730" 
d="M494 0h-231v637h-225v30h257v-289h199q89 0 142 -55t53 -134q0 -80 -52.5 -134.5t-142.5 -54.5zM493 348h-198v-318h198q73 0 117 44.5t44 114.5t-44 114.5t-117 44.5z" />
    <glyph glyph-name="afii10045" unicode="&#x42b;" horiz-adv-x="721" 
d="M88 667h32v-289h199q89 0 142 -55t53 -134q0 -80 -52.5 -134.5t-142.5 -54.5h-231v667zM318 348h-198v-318h198q73 0 117 44.5t44 114.5t-44 114.5t-117 44.5zM633 0h-32v667h32v-667z" />
    <glyph glyph-name="afii10046" unicode="&#x42c;" horiz-adv-x="555" 
d="M88 667h32v-289h199q89 0 142 -55t53 -134q0 -80 -52.5 -134.5t-142.5 -54.5h-231v667zM318 348h-198v-318h198q73 0 117 44.5t44 114.5t-44 114.5t-117 44.5z" />
    <glyph glyph-name="afii10047" unicode="&#x42d;" horiz-adv-x="667" 
d="M269 -12q-139 0 -233 106l26 21q36 -45 90.5 -71t116.5 -26q125 0 210.5 87t87.5 223h-382v30h381q-8 129 -92 209.5t-205 80.5q-62 0 -116.5 -26t-90.5 -71l-25 22q91 105 232 105t237 -97t96 -248t-96 -248t-237 -97z" />
    <glyph glyph-name="afii10048" unicode="&#x42e;" horiz-adv-x="957" 
d="M575 -12q-142 0 -228.5 96.5t-88.5 243.5h-138v-328h-32v667h32v-309h138q8 139 94 229.5t223 90.5q142 0 229.5 -98.5t87.5 -246.5t-87.5 -246.5t-229.5 -98.5zM575 18q127 0 204.5 88.5t77.5 226.5q0 139 -77.5 227t-204.5 88q-128 0 -205 -88t-77 -227
q0 -138 77 -226.5t205 -88.5z" />
    <glyph glyph-name="afii10049" unicode="&#x42f;" horiz-adv-x="579" 
d="M96 0h-41l206 288q-84 0 -140.5 51t-56.5 139t56 138.5t141 50.5h230v-667h-32v288h-160zM261 318h198v319h-198q-73 0 -117.5 -44.5t-44.5 -114.5t44.5 -115t117.5 -45z" />
    <glyph glyph-name="afii10065" unicode="&#x430;" horiz-adv-x="514" 
d="M428 0h-30v59q-65 -71 -167 -71q-68 0 -118.5 43.5t-50.5 117.5t50 117.5t119 43.5q102 0 167 -71v109q0 56 -39 88t-97 32q-92 0 -155 -76l-23 20q37 43 78 63t100 20q74 0 120 -37.5t46 -108.5v-349zM239 15q103 0 159 74v120q-56 74 -159 74q-65 0 -104.5 -38.5
t-39.5 -95.5t39.5 -95.5t104.5 -38.5z" />
    <glyph glyph-name="afii10066" unicode="&#x431;" horiz-adv-x="577" 
d="M285 15q89 0 140.5 66.5t51.5 160.5q0 93 -51.5 159.5t-140.5 66.5q-88 0 -140 -66.5t-52 -159.5q0 -94 52 -160.5t140 -66.5zM285 -12q-102 0 -163.5 76t-61.5 200q0 171 64 249.5t202 97.5q82 14 112.5 26.5t30.5 29.5h27q0 -20 -12.5 -34.5t-40.5 -24.5t-49.5 -14.5
t-62.5 -11.5q-67 -11 -111 -29.5t-69.5 -48.5t-37.5 -60t-22 -80q63 131 195 131q100 0 162 -72t62 -180q0 -109 -62 -182t-163 -73z" />
    <glyph glyph-name="afii10067" unicode="&#x432;" horiz-adv-x="527" 
d="M319 0h-233v483h231q57 0 91.5 -32.5t34.5 -91.5q0 -41 -22 -70.5t-53 -39.5q35 -10 59.5 -44t24.5 -74q0 -62 -36 -96.5t-97 -34.5zM314 27q49 0 77 27.5t28 75.5q0 44 -27.5 75t-77.5 31h-198v-209h198zM312 263q47 0 73 27t26 69q0 45 -26 71t-73 26h-196v-193h196z
" />
    <glyph glyph-name="afii10068" unicode="&#x433;" horiz-adv-x="413" 
d="M382 483v-27h-266v-456h-30v483h296z" />
    <glyph glyph-name="afii10069" unicode="&#x434;" horiz-adv-x="545" 
d="M18 -123v147q41 4 67.5 51t42.5 165l33 243h281v-456h60v-150h-30v123h-424v-123h-30zM188 456l-31 -220q-24 -174 -79 -209h334v429h-224z" />
    <glyph glyph-name="afii10070" unicode="&#x435;" horiz-adv-x="571" 
d="M297 -12q-105 0 -171 71.5t-66 182.5q0 106 65 179.5t162 73.5q106 0 165 -73t59 -180v-10h-417q2 -92 57.5 -154.5t145.5 -62.5q100 0 168 73l18 -19q-78 -81 -186 -81zM479 259q0 49 -20 95.5t-65.5 80t-107.5 33.5q-87 0 -138 -64.5t-54 -144.5h385z" />
    <glyph glyph-name="afii10072" unicode="&#x436;" horiz-adv-x="680" 
d="M68 0h-43l232 265l-235 218h43l260 -243v243h30v-243l260 243h43l-235 -218l232 -265h-43l-212 243l-45 -41v-202h-30v202l-45 41z" />
    <glyph glyph-name="afii10073" unicode="&#x437;" horiz-adv-x="523" 
d="M252 -12q-134 0 -212 81l18 19q68 -73 194 -73q79 0 128.5 30.5t49.5 81.5q0 105 -189 105h-116v27h116q75 0 127.5 28t52.5 80q0 45 -51.5 73t-127.5 28q-109 0 -172 -67l-20 18q74 76 192 76q89 0 150 -34t61 -94q0 -54 -42.5 -84.5t-91.5 -36.5q52 -4 98 -33.5
t46 -85.5q0 -61 -56 -100t-155 -39z" />
    <glyph glyph-name="afii10074" unicode="&#x438;" 
d="M114 0h-28v483h30v-435l298 435h28v-483h-30v439z" />
    <glyph glyph-name="afii10075" unicode="&#x439;" 
d="M114 0h-28v483h30v-435l298 435h28v-483h-30v439zM439 632q-65 -88 -175 -88q-109 0 -176 88l21 19q57 -80 155 -80t155 80z" />
    <glyph glyph-name="afii10076" unicode="&#x43a;" horiz-adv-x="496" 
d="M471 0h-43l-212 243l-100 -92v-151h-30v483h30v-294l315 294h43l-235 -218z" />
    <glyph glyph-name="afii10077" unicode="&#x43b;" 
d="M18 -12v27q39 0 66 52t44 173l33 243h281v-483h-30v456h-224l-31 -220q-19 -138 -51 -193t-88 -55z" />
    <glyph glyph-name="afii10078" unicode="&#x43c;" horiz-adv-x="592" 
d="M506 0h-30v444l-175 -444h-9l-176 444v-444h-30v483h42l168 -426l167 426h43v-483z" />
    <glyph glyph-name="afii10079" unicode="&#x43d;" 
d="M116 0h-30v483h30v-218h296v218h30v-483h-30v238h-296v-238z" />
    <glyph glyph-name="afii10080" unicode="&#x43e;" horiz-adv-x="570" 
d="M285 -12q-100 0 -162.5 72.5t-62.5 181.5q0 108 62.5 180.5t162.5 72.5q101 0 163 -72t62 -181t-62 -181.5t-163 -72.5zM285 15q89 0 140.5 66.5t51.5 160.5q0 93 -51.5 159.5t-140.5 66.5q-88 0 -140 -66.5t-52 -159.5q0 -94 52 -160.5t140 -66.5z" />
    <glyph glyph-name="afii10081" unicode="&#x43f;" 
d="M442 0h-30v456h-296v-456h-30v483h356v-483z" />
    <glyph glyph-name="afii10082" unicode="&#x440;" horiz-adv-x="562" 
d="M290 -12q-53 0 -98.5 25.5t-75.5 69.5v-267h-30v667h30v-81q26 40 73 66.5t101 26.5q98 0 157 -69t59 -184q0 -114 -59.5 -184t-156.5 -70zM290 15q86 0 134.5 64t48.5 163t-48.5 162.5t-134.5 63.5q-54 0 -102 -28t-72 -68v-259q24 -40 72 -69t102 -29z" />
    <glyph glyph-name="afii10083" unicode="&#x441;" horiz-adv-x="493" 
d="M288 -12q-102 0 -165 73.5t-63 180.5t63 180t165 73q56 0 94 -20t71 -61l-22 -18q-53 72 -141 72q-91 0 -144 -64.5t-53 -161.5q0 -98 53.5 -162.5t143.5 -64.5q87 0 141 73l22 -19q-33 -41 -71 -61t-94 -20z" />
    <glyph glyph-name="afii10084" unicode="&#x442;" horiz-adv-x="379" 
d="M204 0h-30v456h-143v27h317v-27h-144v-456z" />
    <glyph glyph-name="afii10085" unicode="&#x443;" horiz-adv-x="471" 
d="M50 -189l6 28q18 -8 42 -8q25 0 42.5 14.5t33.5 51.5l44 100l-207 486h35l190 -448l189 448h35l-256 -597q-36 -82 -106 -82q-27 0 -48 7z" />
    <glyph glyph-name="afii10086" unicode="&#x444;" horiz-adv-x="746" 
d="M225 495q40 0 75 -25.5t58 -69.5v267h30v-265q20 40 55.5 66.5t77.5 26.5q74 0 119.5 -69t45.5 -184q0 -114 -45.5 -184t-119.5 -70q-40 0 -75 25.5t-58 69.5v-267h-30v265q-20 -40 -55.5 -66.5t-77.5 -26.5q-74 0 -119.5 69t-45.5 184q0 114 45.5 184t119.5 70zM227 468
q-65 0 -101 -64t-36 -163t36 -162.5t101 -63.5q41 0 77 28t54 68v259q-18 41 -54 69.5t-77 28.5zM519 15q65 0 101 64t36 163t-36 162.5t-101 63.5q-41 0 -77 -28t-54 -68v-259q18 -41 54 -69.5t77 -28.5z" />
    <glyph glyph-name="afii10087" unicode="&#x445;" horiz-adv-x="472" 
d="M450 0h-39l-175 228l-175 -228h-39l197 248l-186 235h39l164 -214l164 214h39l-186 -235z" />
    <glyph glyph-name="afii10088" unicode="&#x446;" horiz-adv-x="545" 
d="M472 -123v123h-386v483h30v-456h296v456h30v-456h60v-150h-30z" />
    <glyph glyph-name="afii10089" unicode="&#x447;" 
d="M86 483h30v-145q0 -80 33.5 -110.5t102.5 -30.5q41 0 87.5 11.5t72.5 27.5v247h30v-483h-30v211q-76 -41 -160 -41q-86 0 -126 38t-40 130v145z" />
    <glyph glyph-name="afii10090" unicode="&#x448;" horiz-adv-x="771" 
d="M655 483h30v-483h-599v483h30v-456h254v456h30v-456h255v456z" />
    <glyph glyph-name="afii10091" unicode="&#x449;" horiz-adv-x="788" 
d="M655 483h30v-456h60v-150h-30v123h-629v483h30v-456h254v456h30v-456h255v456z" />
    <glyph glyph-name="afii10092" unicode="&#x44a;" horiz-adv-x="584" 
d="M399 0h-225v456h-143v27h173v-206h195q66 0 103.5 -40t37.5 -99q0 -58 -37.5 -98t-103.5 -40zM399 250h-195v-223h195q53 0 81 30.5t28 80.5q0 51 -27.5 81.5t-81.5 30.5z" />
    <glyph glyph-name="afii10093" unicode="&#x44b;" horiz-adv-x="655" 
d="M86 483h30v-206h195q66 0 103.5 -40t37.5 -99q0 -58 -37.5 -98t-103.5 -40h-225v483zM311 250h-195v-223h195q53 0 81 30.5t28 80.5q0 51 -27.5 81.5t-81.5 30.5zM569 0h-30v483h30v-483z" />
    <glyph glyph-name="afii10094" unicode="&#x44c;" horiz-adv-x="496" 
d="M86 483h30v-206h195q66 0 103.5 -40t37.5 -99q0 -58 -37.5 -98t-103.5 -40h-225v483zM311 250h-195v-223h195q53 0 81 30.5t28 80.5q0 51 -27.5 81.5t-81.5 30.5z" />
    <glyph glyph-name="afii10095" unicode="&#x44d;" horiz-adv-x="493" 
d="M205 -12q-56 0 -94 20t-71 61l22 19q54 -73 141 -73q88 0 141 61.5t56 155.5h-279v28h278q-5 91 -57.5 149.5t-138.5 58.5q-88 0 -141 -72l-22 18q33 41 71 61t94 20q102 0 165 -73t63 -180t-63 -180.5t-165 -73.5z" />
    <glyph glyph-name="afii10096" unicode="&#x44e;" horiz-adv-x="733" 
d="M448 -12q-100 0 -162 71.5t-63 178.5h-107v-238h-30v483h30v-218h107q7 100 68.5 165t156.5 65q101 0 163 -72t62 -181t-62 -181.5t-163 -72.5zM448 15q89 0 140.5 66.5t51.5 160.5q0 93 -51.5 159.5t-140.5 66.5q-88 0 -140 -66.5t-52 -159.5q0 -94 52 -160.5t140 -66.5
z" />
    <glyph glyph-name="afii10097" unicode="&#x44f;" horiz-adv-x="527" 
d="M110 0h-38l142 206q-63 1 -101 39.5t-38 99.5q0 60 38.5 99t103.5 39h224v-483h-30v206h-163zM217 233h194v223h-194q-52 0 -81 -30t-29 -81t28 -81.5t82 -30.5z" />
    <glyph glyph-name="afii10071" unicode="&#x451;" horiz-adv-x="571" 
d="M416 598q0 -11 -8.5 -19.5t-19.5 -8.5t-19.5 8.5t-8.5 19.5t8.5 19.5t19.5 8.5t19.5 -8.5t8.5 -19.5zM214 598q0 -11 -8.5 -19.5t-19.5 -8.5t-19.5 8.5t-8.5 19.5t8.5 19.5t19.5 8.5t19.5 -8.5t8.5 -19.5zM297 -12q-105 0 -171 71.5t-66 182.5q0 106 65 179.5t162 73.5
q106 0 165 -73t59 -180v-10h-417q2 -92 57.5 -154.5t145.5 -62.5q100 0 168 73l18 -19q-78 -81 -186 -81zM479 259q0 49 -20 95.5t-65.5 80t-107.5 33.5q-87 0 -138 -64.5t-54 -144.5h385z" />
    <glyph glyph-name="afii10099" unicode="&#x452;" 
d="M282 541h-166v-134q29 35 78 61.5t97 26.5q75 0 113 -36.5t38 -119.5v-415q0 -120 -119 -120q-51 0 -92 38l19 25q32 -36 73 -36q40 0 64.5 23t24.5 70v415q0 72 -32 100.5t-93 28.5q-48 0 -96 -26.5t-75 -64.5v-377h-30v541h-76v27h76v99h30v-99h166v-27z" />
    <glyph glyph-name="afii10100" unicode="&#x453;" horiz-adv-x="413" 
d="M388 700l-175 -144h-30l160 144h45zM382 483v-27h-266v-456h-30v483h296z" />
    <glyph glyph-name="afii10101" unicode="&#x454;" horiz-adv-x="493" 
d="M288 -12q-102 0 -165 73.5t-63 180.5t63 180t165 73q56 0 94 -20t71 -61l-22 -18q-53 72 -141 72q-86 0 -139 -58.5t-58 -149.5h279v-28h-279q2 -94 55.5 -155.5t141.5 -61.5q87 0 141 73l22 -19q-33 -41 -71 -61t-94 -20z" />
    <glyph glyph-name="afii10102" unicode="&#x455;" horiz-adv-x="454" 
d="M221 -12q-110 0 -177 77l24 22q54 -72 153 -72q65 0 104 31.5t39 80.5q0 41 -32 65t-77.5 35.5l-91 24t-77.5 40.5t-32 75q0 55 44 91.5t120 36.5q109 0 166 -73l-22 -20q-46 66 -144 66q-62 0 -98 -28.5t-36 -72.5q0 -37 32 -58.5t77.5 -32.5t91 -24t77.5 -43.5
t32 -81.5q0 -60 -44.5 -99.5t-128.5 -39.5z" />
    <glyph glyph-name="afii10103" unicode="&#x456;" horiz-adv-x="202" 
d="M101 566q-11 0 -20 8.5t-9 20.5t9 20.5t20 8.5q12 0 20.5 -8.5t8.5 -20.5t-8.5 -20.5t-20.5 -8.5zM116 0h-30v483h30v-483z" />
    <glyph glyph-name="afii10104" unicode="&#x457;" horiz-adv-x="202" 
d="M230 598q0 -11 -8.5 -19.5t-19.5 -8.5t-19.5 8.5t-8.5 19.5t8.5 19.5t19.5 8.5t19.5 -8.5t8.5 -19.5zM28 598q0 -11 -8.5 -19.5t-19.5 -8.5t-19.5 8.5t-8.5 19.5t8.5 19.5t19.5 8.5t19.5 -8.5t8.5 -19.5zM116 0h-30v483h30v-483z" />
    <glyph glyph-name="afii10105" unicode="&#x458;" horiz-adv-x="202" 
d="M101 566q-11 0 -20 8.5t-9 20.5t9 20.5t20 8.5q12 0 20.5 -8.5t8.5 -20.5t-8.5 -20.5t-20.5 -8.5zM-3 -196q-51 0 -92 38l19 25q32 -36 73 -36q40 0 64.5 23t24.5 70v559h30v-559q0 -120 -119 -120z" />
    <glyph glyph-name="afii10106" unicode="&#x459;" horiz-adv-x="822" 
d="M18 -12v27q39 0 66 52t44 173l33 243h281v-206h195q66 0 103.5 -40t37.5 -99q0 -58 -37.5 -98t-103.5 -40h-225v456h-224l-31 -220q-19 -138 -51 -193t-88 -55zM637 250h-195v-223h195q53 0 81 30.5t28 80.5q0 51 -27.5 81.5t-81.5 30.5z" />
    <glyph glyph-name="afii10107" unicode="&#x45a;" horiz-adv-x="822" 
d="M116 0h-30v483h30v-218h296v218h30v-218h202q63 0 98.5 -38t35.5 -95q0 -56 -35.5 -94t-98.5 -38h-232v238h-296v-238zM643 238h-201v-211h201q50 0 76.5 29t26.5 76q0 48 -26 77t-77 29z" />
    <glyph glyph-name="afii10108" unicode="&#x45b;" 
d="M282 541h-166v-134q29 35 78 61.5t97 26.5q75 0 113 -36.5t38 -119.5v-339h-30v339q0 72 -32 100.5t-93 28.5q-48 0 -96 -26.5t-75 -64.5v-377h-30v541h-76v27h76v99h30v-99h166v-27z" />
    <glyph glyph-name="afii10109" unicode="&#x45c;" horiz-adv-x="496" 
d="M402 700l-175 -144h-30l160 144h45zM471 0h-43l-212 243l-100 -92v-151h-30v483h30v-294l315 294h43l-235 -218z" />
    <glyph glyph-name="afii10110" unicode="&#x45e;" horiz-adv-x="471" 
d="M50 -189l6 28q18 -8 42 -8q25 0 42.5 14.5t33.5 51.5l44 100l-207 486h35l190 -448l189 448h35l-256 -597q-36 -82 -106 -82q-27 0 -48 7zM411 632q-65 -88 -175 -88q-109 0 -176 88l21 19q57 -80 155 -80t155 80z" />
    <glyph glyph-name="afii10193" unicode="&#x45f;" 
d="M249 -125v125h-163v483h30v-456h296v456h30v-483h-163v-125h-30z" />
    <glyph glyph-name="afii10050" unicode="&#x490;" horiz-adv-x="533" 
d="M120 637v-637h-32v667h376v124h32v-154h-376z" />
    <glyph glyph-name="afii10098" unicode="&#x491;" horiz-adv-x="413" 
d="M116 456v-456h-30v483h266v125h30v-152h-266z" />
    <glyph glyph-name="uni1E02" unicode="&#x1e02;" horiz-adv-x="600" 
d="M343 0h-255v667h251q82 0 132 -44.5t50 -125.5q0 -60 -35 -101.5t-83 -51.5q53 -8 92 -57t39 -107q0 -85 -51.5 -132.5t-139.5 -47.5zM339 358q71 0 109 39t38 100q0 60 -38.5 100t-108.5 40h-219v-279h219zM343 30q73 0 114.5 40t41.5 109q0 61 -41 105t-115 44h-223
v-298h223zM300 733q-11 0 -20 8.5t-9 20.5t9 20.5t20 8.5q12 0 20.5 -8.5t8.5 -20.5t-8.5 -20.5t-20.5 -8.5z" />
    <glyph glyph-name="uni1E03" unicode="&#x1e03;" horiz-adv-x="566" 
d="M116 111q24 -40 72 -68t102 -28q86 0 134.5 63.5t48.5 162.5t-48.5 163t-134.5 64q-54 0 -102 -29t-72 -69v-259zM116 0h-30v667h30v-267q30 44 75.5 69.5t98.5 25.5q97 0 156.5 -70t59.5 -184q0 -115 -59 -184t-157 -69q-54 0 -101 26.5t-73 66.5v-81zM290 733
q-11 0 -20 8.5t-9 20.5t9 20.5t20 8.5q12 0 20.5 -8.5t8.5 -20.5t-8.5 -20.5t-20.5 -8.5z" />
    <glyph glyph-name="uni1E0A" unicode="&#x1e0a;" horiz-adv-x="684" 
d="M286 0h-198v667h198q150 0 241 -97.5t91 -236.5q0 -140 -90.5 -236.5t-241.5 -96.5zM286 30q138 0 217.5 86t79.5 217q0 130 -80 217t-217 87h-166v-607h166zM342 733q-11 0 -20 8.5t-9 20.5t9 20.5t20 8.5q12 0 20.5 -8.5t8.5 -20.5t-8.5 -20.5t-20.5 -8.5z" />
    <glyph glyph-name="uni1E0B" unicode="&#x1e0b;" horiz-adv-x="566" 
d="M480 0h-30v81q-26 -40 -73 -66.5t-101 -26.5q-98 0 -157 69t-59 184q0 114 59.5 184t156.5 70q53 0 98.5 -25.5t75.5 -69.5v267h30v-667zM276 15q54 0 102 28t72 68v259q-24 40 -72 69t-102 29q-86 0 -134.5 -64t-48.5 -163t48.5 -162.5t134.5 -63.5zM277 733
q-11 0 -20 8.5t-9 20.5t9 20.5t20 8.5q12 0 20.5 -8.5t8.5 -20.5t-8.5 -20.5t-20.5 -8.5z" />
    <glyph glyph-name="uni1E1E" unicode="&#x1e1e;" horiz-adv-x="533" 
d="M292 733q-11 0 -20 8.5t-9 20.5t9 20.5t20 8.5q12 0 20.5 -8.5t8.5 -20.5t-8.5 -20.5t-20.5 -8.5zM120 0h-32v667h408v-30h-376v-279h369v-30h-369v-328z" />
    <glyph glyph-name="uni1E1F" unicode="&#x1e1f;" horiz-adv-x="246" 
d="M222 733q-11 0 -20 8.5t-9 20.5t9 20.5t20 8.5q12 0 20.5 -8.5t8.5 -20.5t-8.5 -20.5t-20.5 -8.5zM130 0h-30v456h-80v27h80v51q0 67 32 105t89 38q45 0 82 -30l-18 -24q-29 27 -64 27q-91 0 -91 -116v-51h98v-27h-98v-456z" />
    <glyph glyph-name="uni1E22" unicode="&#x1e22;" horiz-adv-x="695" 
d="M607 0h-32v328h-455v-328h-32v667h32v-309h455v309h32v-667zM347 733q-11 0 -20 8.5t-9 20.5t9 20.5t20 8.5q12 0 20.5 -8.5t8.5 -20.5t-8.5 -20.5t-20.5 -8.5z" />
    <glyph glyph-name="uni1E23" unicode="&#x1e23;" 
d="M442 0h-30v339q0 72 -32 100.5t-93 28.5q-48 0 -96 -26.5t-75 -64.5v-377h-30v667h30v-260q29 35 78 61.5t97 26.5q75 0 113 -36.5t38 -119.5v-339zM264 733q-11 0 -20 8.5t-9 20.5t9 20.5t20 8.5q12 0 20.5 -8.5t8.5 -20.5t-8.5 -20.5t-20.5 -8.5z" />
    <glyph glyph-name="uni1E56" unicode="&#x1e56;" horiz-adv-x="555" 
d="M120 0h-32v667h231q90 0 142.5 -54.5t52.5 -134.5q0 -79 -53 -134t-142 -55h-199v-289zM318 319q73 0 117 44.5t44 114.5t-44 114.5t-117 44.5h-198v-318h198zM277 733q-11 0 -20 8.5t-9 20.5t9 20.5t20 8.5q12 0 20.5 -8.5t8.5 -20.5t-8.5 -20.5t-20.5 -8.5z" />
    <glyph glyph-name="uni1E57" unicode="&#x1e57;" horiz-adv-x="562" 
d="M290 -12q-53 0 -98.5 25.5t-75.5 69.5v-267h-30v667h30v-81q26 40 73 66.5t101 26.5q98 0 157 -69t59 -184q0 -114 -59.5 -184t-156.5 -70zM290 15q86 0 134.5 64t48.5 163t-48.5 162.5t-134.5 63.5q-54 0 -102 -28t-72 -68v-259q24 -40 72 -69t102 -29zM288 566
q-11 0 -20 8.5t-9 20.5t9 20.5t20 8.5q12 0 20.5 -8.5t8.5 -20.5t-8.5 -20.5t-20.5 -8.5z" />
    <glyph glyph-name="uni1E60" unicode="&#x1e60;" horiz-adv-x="575" 
d="M286 -12q-75 0 -135 29t-98 77l26 23q81 -99 207 -99q55 0 95 14.5t60 38t29 48t9 50.5q0 51 -30 85.5t-75 49.5l-97.5 31.5l-97.5 32t-75 51.5t-30 89q0 78 61 124t148 46q140 0 216 -94l-25 -23q-67 87 -191 87q-74 0 -124 -39.5t-50 -100.5q0 -38 22.5 -65t58 -42
t79 -27.5t86.5 -27t78.5 -34.5t58 -56.5t22.5 -86.5q0 -31 -11 -60.5t-35 -58t-71 -45.5t-111 -17zM287 733q-11 0 -20 8.5t-9 20.5t9 20.5t20 8.5q12 0 20.5 -8.5t8.5 -20.5t-8.5 -20.5t-20.5 -8.5z" />
    <glyph glyph-name="uni1E61" unicode="&#x1e61;" horiz-adv-x="454" 
d="M221 -12q-110 0 -177 77l24 22q54 -72 153 -72q65 0 104 31.5t39 80.5q0 41 -32 65t-77.5 35.5l-91 24t-77.5 40.5t-32 75q0 55 44 91.5t120 36.5q109 0 166 -73l-22 -20q-46 66 -144 66q-62 0 -98 -28.5t-36 -72.5q0 -37 32 -58.5t77.5 -32.5t91 -24t77.5 -43.5
t32 -81.5q0 -60 -44.5 -99.5t-128.5 -39.5zM227 566q-11 0 -20 8.5t-9 20.5t9 20.5t20 8.5q12 0 20.5 -8.5t8.5 -20.5t-8.5 -20.5t-20.5 -8.5z" />
    <glyph glyph-name="uni1E6A" unicode="&#x1e6a;" horiz-adv-x="559" 
d="M295 0h-32v637h-225v30h483v-30h-226v-637zM279 733q-11 0 -20 8.5t-9 20.5t9 20.5t20 8.5q12 0 20.5 -8.5t8.5 -20.5t-8.5 -20.5t-20.5 -8.5z" />
    <glyph glyph-name="uni1E6B" unicode="&#x1e6b;" horiz-adv-x="256" 
d="M174 -12q-82 0 -82 97v371h-80v27h80v132h30v-132h98v-27h-98v-371q0 -70 52 -70q35 0 57 26l18 -23q-32 -30 -75 -30zM115 733q-11 0 -20 8.5t-9 20.5t9 20.5t20 8.5q12 0 20.5 -8.5t8.5 -20.5t-8.5 -20.5t-20.5 -8.5z" />
    <glyph glyph-name="Wgrave" unicode="&#x1e80;" horiz-adv-x="852" 
d="M637 0h-38l-173 607l-173 -607h-38l-190 667h35l174 -619l175 619h34l175 -619l174 619h35zM477 723h-30l-175 144h45z" />
    <glyph glyph-name="wgrave" unicode="&#x1e81;" horiz-adv-x="704" 
d="M522 0h-24l-146 438l-146 -438h-24l-160 483h33l140 -436l145 436h24l145 -436l140 436h33zM403 556h-30l-175 144h45z" />
    <glyph glyph-name="Wacute" unicode="&#x1e82;" horiz-adv-x="852" 
d="M580 867l-175 -144h-30l160 144h45zM637 0h-38l-173 607l-173 -607h-38l-190 667h35l174 -619l175 619h34l175 -619l174 619h35z" />
    <glyph glyph-name="wacute" unicode="&#x1e83;" horiz-adv-x="704" 
d="M506 700l-175 -144h-30l160 144h45zM522 0h-24l-146 438l-146 -438h-24l-160 483h33l140 -436l145 436h24l145 -436l140 436h33z" />
    <glyph glyph-name="Wdieresis" unicode="&#x1e84;" horiz-adv-x="852" 
d="M555 765q0 -11 -8.5 -19.5t-19.5 -8.5t-19.5 8.5t-8.5 19.5t8.5 19.5t19.5 8.5t19.5 -8.5t8.5 -19.5zM353 765q0 -11 -8.5 -19.5t-19.5 -8.5t-19.5 8.5t-8.5 19.5t8.5 19.5t19.5 8.5t19.5 -8.5t8.5 -19.5zM637 0h-38l-173 607l-173 -607h-38l-190 667h35l174 -619
l175 619h34l175 -619l174 619h35z" />
    <glyph glyph-name="wdieresis" unicode="&#x1e85;" horiz-adv-x="704" 
d="M481 598q0 -11 -8.5 -19.5t-19.5 -8.5t-19.5 8.5t-8.5 19.5t8.5 19.5t19.5 8.5t19.5 -8.5t8.5 -19.5zM279 598q0 -11 -8.5 -19.5t-19.5 -8.5t-19.5 8.5t-8.5 19.5t8.5 19.5t19.5 8.5t19.5 -8.5t8.5 -19.5zM522 0h-24l-146 438l-146 -438h-24l-160 483h33l140 -436
l145 436h24l145 -436l140 436h33z" />
    <glyph glyph-name="uni1EA0" unicode="&#x1ea0;" horiz-adv-x="636" 
d="M615 0h-37l-74 179h-372l-74 -179h-37l278 667h38zM492 209l-174 421l-174 -421h348zM318 -173q-11 0 -20 8.5t-9 20.5t9 20.5t20 8.5q12 0 20.5 -8.5t8.5 -20.5t-8.5 -20.5t-20.5 -8.5z" />
    <glyph glyph-name="uni1EA1" unicode="&#x1ea1;" horiz-adv-x="514" 
d="M428 0h-30v59q-65 -71 -167 -71q-68 0 -118.5 43.5t-50.5 117.5t50 117.5t119 43.5q102 0 167 -71v109q0 56 -39 88t-97 32q-92 0 -155 -76l-23 20q37 43 78 63t100 20q74 0 120 -37.5t46 -108.5v-349zM239 15q103 0 159 74v120q-56 74 -159 74q-65 0 -104.5 -38.5
t-39.5 -95.5t39.5 -95.5t104.5 -38.5zM258 -173q-11 0 -20 8.5t-9 20.5t9 20.5t20 8.5q12 0 20.5 -8.5t8.5 -20.5t-8.5 -20.5t-20.5 -8.5z" />
    <glyph glyph-name="uni1EA2" unicode="&#x1ea2;" horiz-adv-x="636" 
d="M615 0h-37l-74 179h-372l-74 -179h-37l278 667h38zM492 209l-174 421l-174 -421h348zM273 761l-21 6q16 53 67 53q28 0 46.5 -17t18.5 -50q0 -28 -22 -56h-27q26 26 26 56q0 45 -42 45q-34 0 -46 -37z" />
    <glyph glyph-name="uni1EA3" unicode="&#x1ea3;" horiz-adv-x="514" 
d="M428 0h-30v59q-65 -71 -167 -71q-68 0 -118.5 43.5t-50.5 117.5t50 117.5t119 43.5q102 0 167 -71v109q0 56 -39 88t-97 32q-92 0 -155 -76l-23 20q37 43 78 63t100 20q74 0 120 -37.5t46 -108.5v-349zM239 15q103 0 159 74v120q-56 74 -159 74q-65 0 -104.5 -38.5
t-39.5 -95.5t39.5 -95.5t104.5 -38.5zM212 591l-21 6q16 53 67 53q28 0 46.5 -17t18.5 -50q0 -28 -22 -56h-27q26 26 26 56q0 45 -42 45q-34 0 -46 -37z" />
    <glyph glyph-name="uni1EA4" unicode="&#x1ea4;" horiz-adv-x="636" 
d="M437 682h-28l-91 90l-88 -90h-28l98 108h36zM615 0h-37l-74 179h-372l-74 -179h-37l278 667h38zM492 209l-174 421l-174 -421h348zM611 845l-175 -108h-30l160 108h45z" />
    <glyph glyph-name="uni1EA5" unicode="&#x1ea5;" horiz-adv-x="514" 
d="M428 0h-30v59q-65 -71 -167 -71q-68 0 -118.5 43.5t-50.5 117.5t50 117.5t119 43.5q102 0 167 -71v109q0 56 -39 88t-97 32q-92 0 -155 -76l-23 20q37 43 78 63t100 20q74 0 120 -37.5t46 -108.5v-349zM239 15q103 0 159 74v120q-56 74 -159 74q-65 0 -104.5 -38.5
t-39.5 -95.5t39.5 -95.5t104.5 -38.5zM381 556h-28l-91 120l-88 -120h-28l98 144h36zM547 770l-175 -144h-30l160 144h45z" />
    <glyph glyph-name="uni1EA6" unicode="&#x1ea6;" horiz-adv-x="636" 
d="M437 682h-28l-91 90l-88 -90h-28l98 108h36zM615 0h-37l-74 179h-372l-74 -179h-37l278 667h38zM492 209l-174 421l-174 -421h348zM230 737h-30l-175 108h45z" />
    <glyph glyph-name="uni1EA7" unicode="&#x1ea7;" horiz-adv-x="514" 
d="M428 0h-30v59q-65 -71 -167 -71q-68 0 -118.5 43.5t-50.5 117.5t50 117.5t119 43.5q102 0 167 -71v109q0 56 -39 88t-97 32q-92 0 -155 -76l-23 20q37 43 78 63t100 20q74 0 120 -37.5t46 -108.5v-349zM239 15q103 0 159 74v120q-56 74 -159 74q-65 0 -104.5 -38.5
t-39.5 -95.5t39.5 -95.5t104.5 -38.5zM381 556h-28l-91 120l-88 -120h-28l98 144h36zM182 626h-30l-175 144h45z" />
    <glyph glyph-name="uni1EA8" unicode="&#x1ea8;" horiz-adv-x="636" 
d="M437 682h-28l-91 90l-88 -90h-28l98 108h36zM615 0h-37l-74 179h-372l-74 -179h-37l278 667h38zM492 209l-174 421l-174 -421h348zM394 792l-21 5q16 39 67 39q28 0 46.5 -12.5t18.5 -37.5q0 -21 -22 -42h-27q26 19 26 42q0 34 -42 34q-34 0 -46 -28z" />
    <glyph glyph-name="uni1EA9" unicode="&#x1ea9;" horiz-adv-x="514" 
d="M428 0h-30v59q-65 -71 -167 -71q-68 0 -118.5 43.5t-50.5 117.5t50 117.5t119 43.5q102 0 167 -71v109q0 56 -39 88t-97 32q-92 0 -155 -76l-23 20q37 43 78 63t100 20q74 0 120 -37.5t46 -108.5v-349zM239 15q103 0 159 74v120q-56 74 -159 74q-65 0 -104.5 -38.5
t-39.5 -95.5t39.5 -95.5t104.5 -38.5zM381 556h-28l-91 120l-88 -120h-28l98 144h36zM295 731l-21 6q16 53 67 53q28 0 46.5 -17t18.5 -50q0 -28 -22 -56h-27q26 26 26 56q0 45 -42 45q-34 0 -46 -37z" />
    <glyph glyph-name="uni1EAA" unicode="&#x1eaa;" horiz-adv-x="636" 
d="M437 678h-28l-91 60l-88 -60h-28l98 72h36zM615 0h-37l-74 179h-372l-74 -179h-37l278 667h38zM492 209l-174 421l-174 -421h348zM380 757q-26 0 -44.5 8.5t-27 19.5t-23 19.5t-33.5 8.5q-26 0 -42.5 -13.5t-16.5 -39.5h-26q0 28 23.5 47.5t64.5 19.5q33 0 53 -14.5
t36 -28.5t39 -14q59 0 59 54h26q0 -28 -23.5 -47.5t-64.5 -19.5z" />
    <glyph glyph-name="uni1EAB" unicode="&#x1eab;" horiz-adv-x="514" 
d="M428 0h-30v59q-65 -71 -167 -71q-68 0 -118.5 43.5t-50.5 117.5t50 117.5t119 43.5q102 0 167 -71v109q0 56 -39 88t-97 32q-92 0 -155 -76l-23 20q37 43 78 63t100 20q74 0 120 -37.5t46 -108.5v-349zM239 15q103 0 159 74v120q-56 74 -159 74q-65 0 -104.5 -38.5
t-39.5 -95.5t39.5 -95.5t104.5 -38.5zM381 523h-28l-91 120l-88 -120h-28l98 144h36zM319 682q-26 0 -44.5 17.5t-27 39t-23 39t-33.5 17.5q-26 0 -42.5 -26.5t-16.5 -80.5h-26q0 57 23.5 95.5t64.5 38.5q26 0 44.5 -17.5t27 -39t23 -39t33.5 -17.5q26 0 42.5 26.5
t16.5 80.5h26q0 -57 -23.5 -95.5t-64.5 -38.5z" />
    <glyph glyph-name="uni1EAC" unicode="&#x1eac;" horiz-adv-x="636" 
d="M615 0h-37l-74 179h-372l-74 -179h-37l278 667h38zM492 209l-174 421l-174 -421h348zM436 723h-28l-91 120l-88 -120h-28l98 144h36zM318 -173q-11 0 -20 8.5t-9 20.5t9 20.5t20 8.5q12 0 20.5 -8.5t8.5 -20.5t-8.5 -20.5t-20.5 -8.5z" />
    <glyph glyph-name="uni1EAD" unicode="&#x1ead;" horiz-adv-x="514" 
d="M428 0h-30v59q-65 -71 -167 -71q-68 0 -118.5 43.5t-50.5 117.5t50 117.5t119 43.5q102 0 167 -71v109q0 56 -39 88t-97 32q-92 0 -155 -76l-23 20q37 43 78 63t100 20q74 0 120 -37.5t46 -108.5v-349zM239 15q103 0 159 74v120q-56 74 -159 74q-65 0 -104.5 -38.5
t-39.5 -95.5t39.5 -95.5t104.5 -38.5zM374 556h-28l-91 120l-88 -120h-28l98 144h36zM258 -173q-11 0 -20 8.5t-9 20.5t9 20.5t20 8.5q12 0 20.5 -8.5t8.5 -20.5t-8.5 -20.5t-20.5 -8.5z" />
    <glyph glyph-name="uni1EAE" unicode="&#x1eae;" horiz-adv-x="636" 
d="M615 0h-37l-74 179h-372l-74 -179h-37l278 667h38zM492 209l-174 421l-174 -421h348zM469 844l-175 -108h-30l160 108h45zM493 777q-65 -88 -175 -88q-109 0 -176 88l21 19q57 -80 155 -80t155 80z" />
    <glyph glyph-name="uni1EAF" unicode="&#x1eaf;" horiz-adv-x="514" 
d="M428 0h-30v59q-65 -71 -167 -71q-68 0 -118.5 43.5t-50.5 117.5t50 117.5t119 43.5q102 0 167 -71v109q0 56 -39 88t-97 32q-92 0 -155 -76l-23 20q37 43 78 63t100 20q74 0 120 -37.5t46 -108.5v-349zM239 15q103 0 159 74v120q-56 74 -159 74q-65 0 -104.5 -38.5
t-39.5 -95.5t39.5 -95.5t104.5 -38.5zM415 756l-175 -144h-30l160 144h45zM436 614q-65 -88 -175 -88q-109 0 -176 88l21 19q57 -80 155 -80t155 80z" />
    <glyph glyph-name="uni1EB0" unicode="&#x1eb0;" horiz-adv-x="636" 
d="M615 0h-37l-74 179h-372l-74 -179h-37l278 667h38zM492 209l-174 421l-174 -421h348zM373 736h-30l-175 108h45zM493 775q-65 -88 -175 -88q-109 0 -176 88l21 19q57 -80 155 -80t155 80z" />
    <glyph glyph-name="uni1EB1" unicode="&#x1eb1;" horiz-adv-x="514" 
d="M428 0h-30v59q-65 -71 -167 -71q-68 0 -118.5 43.5t-50.5 117.5t50 117.5t119 43.5q102 0 167 -71v109q0 56 -39 88t-97 32q-92 0 -155 -76l-23 20q37 43 78 63t100 20q74 0 120 -37.5t46 -108.5v-349zM239 15q103 0 159 74v120q-56 74 -159 74q-65 0 -104.5 -38.5
t-39.5 -95.5t39.5 -95.5t104.5 -38.5zM311 612h-30l-175 144h45zM436 619q-65 -88 -175 -88q-109 0 -176 88l21 19q57 -80 155 -80t155 80z" />
    <glyph glyph-name="uni1EB2" unicode="&#x1eb2;" horiz-adv-x="636" 
d="M615 0h-37l-74 179h-372l-74 -179h-37l278 667h38zM492 209l-174 421l-174 -421h348zM273 788l-21 5q16 39 67 39q28 0 46.5 -12.5t18.5 -37.5q0 -21 -22 -42h-27q26 19 26 42q0 34 -42 34q-34 0 -46 -28zM493 777q-65 -88 -175 -88q-109 0 -176 88l21 19q57 -80 155 -80
t155 80z" />
    <glyph glyph-name="uni1EB3" unicode="&#x1eb3;" horiz-adv-x="514" 
d="M428 0h-30v59q-65 -71 -167 -71q-68 0 -118.5 43.5t-50.5 117.5t50 117.5t119 43.5q102 0 167 -71v109q0 56 -39 88t-97 32q-92 0 -155 -76l-23 20q37 43 78 63t100 20q74 0 120 -37.5t46 -108.5v-349zM239 15q103 0 159 74v120q-56 74 -159 74q-65 0 -104.5 -38.5
t-39.5 -95.5t39.5 -95.5t104.5 -38.5zM214 671l-21 6q16 53 67 53q28 0 46.5 -17t18.5 -50q0 -28 -22 -56h-27q26 26 26 56q0 45 -42 45q-34 0 -46 -37zM436 619q-65 -88 -175 -88q-109 0 -176 88l21 19q57 -80 155 -80t155 80z" />
    <glyph glyph-name="uni1EB4" unicode="&#x1eb4;" horiz-adv-x="636" 
d="M615 0h-37l-74 179h-372l-74 -179h-37l278 667h38zM492 209l-174 421l-174 -421h348zM494 739q-64 -58 -175 -58q-110 0 -176 58l21 13q56 -53 155 -53t155 53zM380 757q-26 0 -44.5 8.5t-27 19.5t-23 19.5t-33.5 8.5q-26 0 -42.5 -13.5t-16.5 -39.5h-26q0 28 23.5 47.5
t64.5 19.5q33 0 53 -14.5t36 -28.5t39 -14q59 0 59 54h26q0 -28 -23.5 -47.5t-64.5 -19.5z" />
    <glyph glyph-name="uni1EB5" unicode="&#x1eb5;" horiz-adv-x="514" 
d="M428 0h-30v59q-65 -71 -167 -71q-68 0 -118.5 43.5t-50.5 117.5t50 117.5t119 43.5q102 0 167 -71v109q0 56 -39 88t-97 32q-92 0 -155 -76l-23 20q37 43 78 63t100 20q74 0 120 -37.5t46 -108.5v-349zM239 15q103 0 159 74v120q-56 74 -159 74q-65 0 -104.5 -38.5
t-39.5 -95.5t39.5 -95.5t104.5 -38.5zM436 619q-65 -88 -175 -88q-109 0 -176 88l21 19q57 -80 155 -80t155 80zM319 656q-26 0 -44.5 17.5t-27 39t-23 39t-33.5 17.5q-26 0 -42.5 -26.5t-16.5 -80.5h-26q0 57 23.5 95.5t64.5 38.5q26 0 44.5 -17.5t27 -39t23 -39
t33.5 -17.5q26 0 42.5 26.5t16.5 80.5h26q0 -57 -23.5 -95.5t-64.5 -38.5z" />
    <glyph glyph-name="uni1EB6" unicode="&#x1eb6;" horiz-adv-x="636" 
d="M615 0h-37l-74 179h-372l-74 -179h-37l278 667h38zM492 209l-174 421l-174 -421h348zM318 -173q-11 0 -20 8.5t-9 20.5t9 20.5t20 8.5q12 0 20.5 -8.5t8.5 -20.5t-8.5 -20.5t-20.5 -8.5zM493 799q-65 -88 -175 -88q-109 0 -176 88l21 19q57 -80 155 -80t155 80z" />
    <glyph glyph-name="uni1EB7" unicode="&#x1eb7;" horiz-adv-x="514" 
d="M428 0h-30v59q-65 -71 -167 -71q-68 0 -118.5 43.5t-50.5 117.5t50 117.5t119 43.5q102 0 167 -71v109q0 56 -39 88t-97 32q-92 0 -155 -76l-23 20q37 43 78 63t100 20q74 0 120 -37.5t46 -108.5v-349zM239 15q103 0 159 74v120q-56 74 -159 74q-65 0 -104.5 -38.5
t-39.5 -95.5t39.5 -95.5t104.5 -38.5zM258 -173q-11 0 -20 8.5t-9 20.5t9 20.5t20 8.5q12 0 20.5 -8.5t8.5 -20.5t-8.5 -20.5t-20.5 -8.5zM432 632q-65 -88 -175 -88q-109 0 -176 88l21 19q57 -80 155 -80t155 80z" />
    <glyph glyph-name="uni1EB8" unicode="&#x1eb8;" horiz-adv-x="558" 
d="M496 0h-408v667h408v-30h-376v-279h369v-30h-369v-298h376v-30zM299 -173q-11 0 -20 8.5t-9 20.5t9 20.5t20 8.5q12 0 20.5 -8.5t8.5 -20.5t-8.5 -20.5t-20.5 -8.5z" />
    <glyph glyph-name="uni1EB9" unicode="&#x1eb9;" horiz-adv-x="571" 
d="M297 -12q-105 0 -171 71.5t-66 182.5q0 106 65 179.5t162 73.5q106 0 165 -73t59 -180v-10h-417q2 -92 57.5 -154.5t145.5 -62.5q100 0 168 73l18 -19q-78 -81 -186 -81zM479 259q0 49 -20 95.5t-65.5 80t-107.5 33.5q-87 0 -138 -64.5t-54 -144.5h385zM288 -173
q-11 0 -20 8.5t-9 20.5t9 20.5t20 8.5q12 0 20.5 -8.5t8.5 -20.5t-8.5 -20.5t-20.5 -8.5z" />
    <glyph glyph-name="uni1EBA" unicode="&#x1eba;" horiz-adv-x="558" 
d="M496 0h-408v667h408v-30h-376v-279h369v-30h-369v-298h376v-30zM234 761l-21 6q16 53 67 53q28 0 46.5 -17t18.5 -50q0 -28 -22 -56h-27q26 26 26 56q0 45 -42 45q-34 0 -46 -37z" />
    <glyph glyph-name="uni1EBB" unicode="&#x1ebb;" horiz-adv-x="571" 
d="M297 -12q-105 0 -171 71.5t-66 182.5q0 106 65 179.5t162 73.5q106 0 165 -73t59 -180v-10h-417q2 -92 57.5 -154.5t145.5 -62.5q100 0 168 73l18 -19q-78 -81 -186 -81zM479 259q0 49 -20 95.5t-65.5 80t-107.5 33.5q-87 0 -138 -64.5t-54 -144.5h385zM240 591l-21 6
q16 53 67 53q28 0 46.5 -17t18.5 -50q0 -28 -22 -56h-27q26 26 26 56q0 45 -42 45q-34 0 -46 -37z" />
    <glyph glyph-name="uni1EBC" unicode="&#x1ebc;" horiz-adv-x="558" 
d="M496 0h-408v667h408v-30h-376v-279h369v-30h-369v-298h376v-30zM356 721q-26 0 -44.5 17.5t-27 39t-23 39t-33.5 17.5q-26 0 -42.5 -26.5t-16.5 -80.5h-26q0 57 23.5 95.5t64.5 38.5q26 0 44.5 -17.5t27 -39t23 -39t33.5 -17.5q26 0 42.5 26.5t16.5 80.5h26
q0 -57 -23.5 -95.5t-64.5 -38.5z" />
    <glyph glyph-name="uni1EBD" unicode="&#x1ebd;" horiz-adv-x="571" 
d="M297 -12q-105 0 -171 71.5t-66 182.5q0 106 65 179.5t162 73.5q106 0 165 -73t59 -180v-10h-417q2 -92 57.5 -154.5t145.5 -62.5q100 0 168 73l18 -19q-78 -81 -186 -81zM479 259q0 49 -20 95.5t-65.5 80t-107.5 33.5q-87 0 -138 -64.5t-54 -144.5h385zM348 554
q-26 0 -44.5 17.5t-27 39t-23 39t-33.5 17.5q-26 0 -42.5 -26.5t-16.5 -80.5h-26q0 57 23.5 95.5t64.5 38.5q26 0 44.5 -17.5t27 -39t23 -39t33.5 -17.5q26 0 42.5 26.5t16.5 80.5h26q0 -57 -23.5 -95.5t-64.5 -38.5z" />
    <glyph glyph-name="uni1EBE" unicode="&#x1ebe;" horiz-adv-x="558" 
d="M414 682h-28l-91 90l-88 -90h-28l98 108h36zM588 845l-175 -108h-30l160 108h45zM496 0h-408v667h408v-30h-376v-279h369v-30h-369v-298h376v-30z" />
    <glyph glyph-name="uni1EBF" unicode="&#x1ebf;" horiz-adv-x="571" 
d="M405 556h-28l-91 120l-88 -120h-28l98 144h36zM571 770l-175 -144h-30l160 144h45zM297 -12q-105 0 -171 71.5t-66 182.5q0 106 65 179.5t162 73.5q106 0 165 -73t59 -180v-10h-417q2 -92 57.5 -154.5t145.5 -62.5q100 0 168 73l18 -19q-78 -81 -186 -81zM479 259
q0 49 -20 95.5t-65.5 80t-107.5 33.5q-87 0 -138 -64.5t-54 -144.5h385z" />
    <glyph glyph-name="uni1EC0" unicode="&#x1ec0;" horiz-adv-x="558" 
d="M411 682h-28l-91 90l-88 -90h-28l98 108h36zM496 0h-408v667h408v-30h-376v-279h369v-30h-369v-298h376v-30zM204 737h-30l-175 108h45z" />
    <glyph glyph-name="uni1EC1" unicode="&#x1ec1;" horiz-adv-x="571" 
d="M403 556h-28l-91 120l-88 -120h-28l98 144h36zM297 -12q-105 0 -171 71.5t-66 182.5q0 106 65 179.5t162 73.5q106 0 165 -73t59 -180v-10h-417q2 -92 57.5 -154.5t145.5 -62.5q100 0 168 73l18 -19q-78 -81 -186 -81zM479 259q0 49 -20 95.5t-65.5 80t-107.5 33.5
q-87 0 -138 -64.5t-54 -144.5h385zM204 626h-30l-175 144h45z" />
    <glyph glyph-name="uni1EC2" unicode="&#x1ec2;" horiz-adv-x="558" 
d="M415 682h-28l-91 90l-88 -90h-28l98 108h36zM496 0h-408v667h408v-30h-376v-279h369v-30h-369v-298h376v-30zM372 792l-21 5q16 39 67 39q28 0 46.5 -12.5t18.5 -37.5q0 -21 -22 -42h-27q26 19 26 42q0 34 -42 34q-34 0 -46 -28z" />
    <glyph glyph-name="uni1EC3" unicode="&#x1ec3;" horiz-adv-x="571" 
d="M402 556h-28l-91 120l-88 -120h-28l98 144h36zM297 -12q-105 0 -171 71.5t-66 182.5q0 106 65 179.5t162 73.5q106 0 165 -73t59 -180v-10h-417q2 -92 57.5 -154.5t145.5 -62.5q100 0 168 73l18 -19q-78 -81 -186 -81zM479 259q0 49 -20 95.5t-65.5 80t-107.5 33.5
q-87 0 -138 -64.5t-54 -144.5h385zM316 731l-21 6q16 53 67 53q28 0 46.5 -17t18.5 -50q0 -28 -22 -56h-27q26 26 26 56q0 45 -42 45q-34 0 -46 -37z" />
    <glyph glyph-name="uni1EC4" unicode="&#x1ec4;" horiz-adv-x="558" 
d="M414 678h-28l-91 60l-88 -60h-28l98 72h36zM496 0h-408v667h408v-30h-376v-279h369v-30h-369v-298h376v-30zM357 757q-26 0 -44.5 8.5t-27 19.5t-23 19.5t-33.5 8.5q-26 0 -42.5 -13.5t-16.5 -39.5h-26q0 28 23.5 47.5t64.5 19.5q33 0 53 -14.5t36 -28.5t39 -14
q59 0 59 54h26q0 -28 -23.5 -47.5t-64.5 -19.5z" />
    <glyph glyph-name="uni1EC5" unicode="&#x1ec5;" horiz-adv-x="571" 
d="M400 523h-28l-91 120l-88 -120h-28l98 144h36zM297 -12q-105 0 -171 71.5t-66 182.5q0 106 65 179.5t162 73.5q106 0 165 -73t59 -180v-10h-417q2 -92 57.5 -154.5t145.5 -62.5q100 0 168 73l18 -19q-78 -81 -186 -81zM479 259q0 49 -20 95.5t-65.5 80t-107.5 33.5
q-87 0 -138 -64.5t-54 -144.5h385zM338 682q-26 0 -44.5 17.5t-27 39t-23 39t-33.5 17.5q-26 0 -42.5 -26.5t-16.5 -80.5h-26q0 57 23.5 95.5t64.5 38.5q26 0 44.5 -17.5t27 -39t23 -39t33.5 -17.5q26 0 42.5 26.5t16.5 80.5h26q0 -57 -23.5 -95.5t-64.5 -38.5z" />
    <glyph glyph-name="uni1EC6" unicode="&#x1ec6;" horiz-adv-x="558" 
d="M408 723h-28l-91 120l-88 -120h-28l98 144h36zM496 0h-408v667h408v-30h-376v-279h369v-30h-369v-298h376v-30zM299 -173q-11 0 -20 8.5t-9 20.5t9 20.5t20 8.5q12 0 20.5 -8.5t8.5 -20.5t-8.5 -20.5t-20.5 -8.5z" />
    <glyph glyph-name="uni1EC7" unicode="&#x1ec7;" horiz-adv-x="571" 
d="M406 556h-28l-91 120l-88 -120h-28l98 144h36zM297 -12q-105 0 -171 71.5t-66 182.5q0 106 65 179.5t162 73.5q106 0 165 -73t59 -180v-10h-417q2 -92 57.5 -154.5t145.5 -62.5q100 0 168 73l18 -19q-78 -81 -186 -81zM479 259q0 49 -20 95.5t-65.5 80t-107.5 33.5
q-87 0 -138 -64.5t-54 -144.5h385zM288 -173q-11 0 -20 8.5t-9 20.5t9 20.5t20 8.5q12 0 20.5 -8.5t8.5 -20.5t-8.5 -20.5t-20.5 -8.5z" />
    <glyph glyph-name="uni1EC8" unicode="&#x1ec8;" horiz-adv-x="208" 
d="M120 0h-32v667h32v-667zM59 761l-21 6q16 53 67 53q28 0 46.5 -17t18.5 -50q0 -28 -22 -56h-27q26 26 26 56q0 45 -42 45q-34 0 -46 -37z" />
    <glyph glyph-name="uni1EC9" unicode="&#x1ec9;" horiz-adv-x="202" 
d="M116 0h-30v483h30v-483zM56 591l-21 6q16 53 67 53q28 0 46.5 -17t18.5 -50q0 -28 -22 -56h-27q26 26 26 56q0 45 -42 45q-34 0 -46 -37z" />
    <glyph glyph-name="uni1ECA" unicode="&#x1eca;" horiz-adv-x="208" 
d="M120 0h-32v667h32v-667zM104 -173q-11 0 -20 8.5t-9 20.5t9 20.5t20 8.5q12 0 20.5 -8.5t8.5 -20.5t-8.5 -20.5t-20.5 -8.5z" />
    <glyph glyph-name="uni1ECB" unicode="&#x1ecb;" horiz-adv-x="202" 
d="M101 566q-11 0 -20 8.5t-9 20.5t9 20.5t20 8.5q12 0 20.5 -8.5t8.5 -20.5t-8.5 -20.5t-20.5 -8.5zM116 0h-30v483h30v-483zM102 -173q-11 0 -20 8.5t-9 20.5t9 20.5t20 8.5q12 0 20.5 -8.5t8.5 -20.5t-8.5 -20.5t-20.5 -8.5z" />
    <glyph glyph-name="uni1ECC" unicode="&#x1ecc;" horiz-adv-x="764" 
d="M382 -12q-143 0 -230 98.5t-87 246.5t87 246.5t230 98.5q142 0 229.5 -98.5t87.5 -246.5t-87.5 -246.5t-229.5 -98.5zM382 18q127 0 204.5 88.5t77.5 226.5q0 139 -77.5 227t-204.5 88q-128 0 -205 -88t-77 -227q0 -138 77 -226.5t205 -88.5zM383 -173q-11 0 -20 8.5
t-9 20.5t9 20.5t20 8.5q12 0 20.5 -8.5t8.5 -20.5t-8.5 -20.5t-20.5 -8.5z" />
    <glyph glyph-name="uni1ECD" unicode="&#x1ecd;" horiz-adv-x="570" 
d="M285 -12q-100 0 -162.5 72.5t-62.5 181.5q0 108 62.5 180.5t162.5 72.5q101 0 163 -72t62 -181t-62 -181.5t-163 -72.5zM285 15q89 0 140.5 66.5t51.5 160.5q0 93 -51.5 159.5t-140.5 66.5q-88 0 -140 -66.5t-52 -159.5q0 -94 52 -160.5t140 -66.5zM285 -173
q-11 0 -20 8.5t-9 20.5t9 20.5t20 8.5q12 0 20.5 -8.5t8.5 -20.5t-8.5 -20.5t-20.5 -8.5z" />
    <glyph glyph-name="uni1ECE" unicode="&#x1ece;" horiz-adv-x="764" 
d="M382 -12q-143 0 -230 98.5t-87 246.5t87 246.5t230 98.5q142 0 229.5 -98.5t87.5 -246.5t-87.5 -246.5t-229.5 -98.5zM382 18q127 0 204.5 88.5t77.5 226.5q0 139 -77.5 227t-204.5 88q-128 0 -205 -88t-77 -227q0 -138 77 -226.5t205 -88.5zM337 761l-21 6q16 53 67 53
q28 0 46.5 -17t18.5 -50q0 -28 -22 -56h-27q26 26 26 56q0 45 -42 45q-34 0 -46 -37z" />
    <glyph glyph-name="uni1ECF" unicode="&#x1ecf;" horiz-adv-x="570" 
d="M285 -12q-100 0 -162.5 72.5t-62.5 181.5q0 108 62.5 180.5t162.5 72.5q101 0 163 -72t62 -181t-62 -181.5t-163 -72.5zM285 15q89 0 140.5 66.5t51.5 160.5q0 93 -51.5 159.5t-140.5 66.5q-88 0 -140 -66.5t-52 -159.5q0 -94 52 -160.5t140 -66.5zM240 591l-21 6
q16 53 67 53q28 0 46.5 -17t18.5 -50q0 -28 -22 -56h-27q26 26 26 56q0 45 -42 45q-34 0 -46 -37z" />
    <glyph glyph-name="uni1ED0" unicode="&#x1ed0;" horiz-adv-x="764" 
d="M501 682h-28l-91 90l-88 -90h-28l98 108h36zM675 845l-175 -108h-30l160 108h45zM382 -12q-143 0 -230 98.5t-87 246.5t87 246.5t230 98.5q142 0 229.5 -98.5t87.5 -246.5t-87.5 -246.5t-229.5 -98.5zM382 18q127 0 204.5 88.5t77.5 226.5q0 139 -77.5 227t-204.5 88
q-128 0 -205 -88t-77 -227q0 -138 77 -226.5t205 -88.5z" />
    <glyph glyph-name="uni1ED1" unicode="&#x1ed1;" horiz-adv-x="570" 
d="M405 556h-28l-91 120l-88 -120h-28l98 144h36zM571 770l-175 -144h-30l160 144h45zM285 -12q-100 0 -162.5 72.5t-62.5 181.5q0 108 62.5 180.5t162.5 72.5q101 0 163 -72t62 -181t-62 -181.5t-163 -72.5zM285 15q89 0 140.5 66.5t51.5 160.5q0 93 -51.5 159.5
t-140.5 66.5q-88 0 -140 -66.5t-52 -159.5q0 -94 52 -160.5t140 -66.5z" />
    <glyph glyph-name="uni1ED2" unicode="&#x1ed2;" horiz-adv-x="764" 
d="M501 682h-28l-91 90l-88 -90h-28l98 108h36zM382 -12q-143 0 -230 98.5t-87 246.5t87 246.5t230 98.5q142 0 229.5 -98.5t87.5 -246.5t-87.5 -246.5t-229.5 -98.5zM382 18q127 0 204.5 88.5t77.5 226.5q0 139 -77.5 227t-204.5 88q-128 0 -205 -88t-77 -227
q0 -138 77 -226.5t205 -88.5zM294 737h-30l-175 108h45z" />
    <glyph glyph-name="uni1ED3" unicode="&#x1ed3;" horiz-adv-x="570" 
d="M403 556h-28l-91 120l-88 -120h-28l98 144h36zM285 -12q-100 0 -162.5 72.5t-62.5 181.5q0 108 62.5 180.5t162.5 72.5q101 0 163 -72t62 -181t-62 -181.5t-163 -72.5zM285 15q89 0 140.5 66.5t51.5 160.5q0 93 -51.5 159.5t-140.5 66.5q-88 0 -140 -66.5t-52 -159.5
q0 -94 52 -160.5t140 -66.5zM204 626h-30l-175 144h45z" />
    <glyph glyph-name="uni1ED4" unicode="&#x1ed4;" horiz-adv-x="764" 
d="M501 682h-28l-91 90l-88 -90h-28l98 108h36zM382 -12q-143 0 -230 98.5t-87 246.5t87 246.5t230 98.5q142 0 229.5 -98.5t87.5 -246.5t-87.5 -246.5t-229.5 -98.5zM382 18q127 0 204.5 88.5t77.5 226.5q0 139 -77.5 227t-204.5 88q-128 0 -205 -88t-77 -227
q0 -138 77 -226.5t205 -88.5zM458 792l-21 5q16 39 67 39q28 0 46.5 -12.5t18.5 -37.5q0 -21 -22 -42h-27q26 19 26 42q0 34 -42 34q-34 0 -46 -28z" />
    <glyph glyph-name="uni1ED5" unicode="&#x1ed5;" horiz-adv-x="570" 
d="M403 556h-28l-91 120l-88 -120h-28l98 144h36zM285 -12q-100 0 -162.5 72.5t-62.5 181.5q0 108 62.5 180.5t162.5 72.5q101 0 163 -72t62 -181t-62 -181.5t-163 -72.5zM285 15q89 0 140.5 66.5t51.5 160.5q0 93 -51.5 159.5t-140.5 66.5q-88 0 -140 -66.5t-52 -159.5
q0 -94 52 -160.5t140 -66.5zM317 731l-21 6q16 53 67 53q28 0 46.5 -17t18.5 -50q0 -28 -22 -56h-27q26 26 26 56q0 45 -42 45q-34 0 -46 -37z" />
    <glyph glyph-name="uni1ED6" unicode="&#x1ed6;" horiz-adv-x="764" 
d="M500 678h-28l-91 60l-88 -60h-28l98 72h36zM382 -12q-143 0 -230 98.5t-87 246.5t87 246.5t230 98.5q142 0 229.5 -98.5t87.5 -246.5t-87.5 -246.5t-229.5 -98.5zM382 18q127 0 204.5 88.5t77.5 226.5q0 139 -77.5 227t-204.5 88q-128 0 -205 -88t-77 -227
q0 -138 77 -226.5t205 -88.5zM443 757q-26 0 -44.5 8.5t-27 19.5t-23 19.5t-33.5 8.5q-26 0 -42.5 -13.5t-16.5 -39.5h-26q0 28 23.5 47.5t64.5 19.5q33 0 53 -14.5t36 -28.5t39 -14q59 0 59 54h26q0 -28 -23.5 -47.5t-64.5 -19.5z" />
    <glyph glyph-name="uni1ED7" unicode="&#x1ed7;" horiz-adv-x="570" 
d="M400 523h-28l-91 120l-88 -120h-28l98 144h36zM285 -12q-100 0 -162.5 72.5t-62.5 181.5q0 108 62.5 180.5t162.5 72.5q101 0 163 -72t62 -181t-62 -181.5t-163 -72.5zM285 15q89 0 140.5 66.5t51.5 160.5q0 93 -51.5 159.5t-140.5 66.5q-88 0 -140 -66.5t-52 -159.5
q0 -94 52 -160.5t140 -66.5zM338 682q-26 0 -44.5 17.5t-27 39t-23 39t-33.5 17.5q-26 0 -42.5 -26.5t-16.5 -80.5h-26q0 57 23.5 95.5t64.5 38.5q26 0 44.5 -17.5t27 -39t23 -39t33.5 -17.5q26 0 42.5 26.5t16.5 80.5h26q0 -57 -23.5 -95.5t-64.5 -38.5z" />
    <glyph glyph-name="uni1ED8" unicode="&#x1ed8;" horiz-adv-x="764" 
d="M501 723h-28l-91 120l-88 -120h-28l98 144h36zM382 -12q-143 0 -230 98.5t-87 246.5t87 246.5t230 98.5q142 0 229.5 -98.5t87.5 -246.5t-87.5 -246.5t-229.5 -98.5zM382 18q127 0 204.5 88.5t77.5 226.5q0 139 -77.5 227t-204.5 88q-128 0 -205 -88t-77 -227
q0 -138 77 -226.5t205 -88.5zM385 -173q-11 0 -20 8.5t-9 20.5t9 20.5t20 8.5q12 0 20.5 -8.5t8.5 -20.5t-8.5 -20.5t-20.5 -8.5z" />
    <glyph glyph-name="uni1ED9" unicode="&#x1ed9;" horiz-adv-x="570" 
d="M402 556h-28l-91 120l-88 -120h-28l98 144h36zM285 -12q-100 0 -162.5 72.5t-62.5 181.5q0 108 62.5 180.5t162.5 72.5q101 0 163 -72t62 -181t-62 -181.5t-163 -72.5zM285 15q89 0 140.5 66.5t51.5 160.5q0 93 -51.5 159.5t-140.5 66.5q-88 0 -140 -66.5t-52 -159.5
q0 -94 52 -160.5t140 -66.5zM285 -173q-11 0 -20 8.5t-9 20.5t9 20.5t20 8.5q12 0 20.5 -8.5t8.5 -20.5t-8.5 -20.5t-20.5 -8.5z" />
    <glyph glyph-name="uni1EDA" unicode="&#x1eda;" horiz-adv-x="764" 
d="M536 867l-175 -144h-30l160 144h45zM382 -12q-143 0 -230 98.5t-87 246.5t87 246.5t230 98.5q151 0 241 -113q46 39 46 87q-6 -1 -8 -1q-14 0 -23 9.5t-9 23.5q0 13 9 22.5t23 9.5q16 0 27.5 -14t11.5 -39q0 -36 -18 -69t-43 -51q60 -89 60 -210q0 -148 -87.5 -246.5
t-229.5 -98.5zM382 18q127 0 204.5 88.5t77.5 226.5q0 139 -77.5 227t-204.5 88q-128 0 -205 -88t-77 -227q0 -138 77 -226.5t205 -88.5z" />
    <glyph glyph-name="uni1EDB" unicode="&#x1edb;" horiz-adv-x="570" 
d="M439 700l-175 -144h-30l160 144h45zM506 529q0 -67 -52 -113q56 -70 56 -174q0 -109 -62 -181.5t-163 -72.5q-100 0 -162.5 72.5t-62.5 181.5q0 108 62.5 180.5t162.5 72.5q88 0 149 -59q41 39 41 82q-6 -1 -8 -1q-14 0 -23 9.5t-9 23.5q0 13 9 22.5t23 9.5
q16 0 27.5 -14t11.5 -39zM285 15q89 0 140.5 66.5t51.5 160.5q0 93 -51.5 159.5t-140.5 66.5q-88 0 -140 -66.5t-52 -159.5q0 -94 52 -160.5t140 -66.5z" />
    <glyph glyph-name="uni1EDC" unicode="&#x1edc;" horiz-adv-x="764" 
d="M382 -12q-143 0 -230 98.5t-87 246.5t87 246.5t230 98.5q151 0 241 -113q46 39 46 87q-6 -1 -8 -1q-14 0 -23 9.5t-9 23.5q0 13 9 22.5t23 9.5q16 0 27.5 -14t11.5 -39q0 -36 -18 -69t-43 -51q60 -89 60 -210q0 -148 -87.5 -246.5t-229.5 -98.5zM382 18q127 0 204.5 88.5
t77.5 226.5q0 139 -77.5 227t-204.5 88q-128 0 -205 -88t-77 -227q0 -138 77 -226.5t205 -88.5zM433 723h-30l-175 144h45z" />
    <glyph glyph-name="uni1EDD" unicode="&#x1edd;" horiz-adv-x="570" 
d="M506 529q0 -67 -52 -113q56 -70 56 -174q0 -109 -62 -181.5t-163 -72.5q-100 0 -162.5 72.5t-62.5 181.5q0 108 62.5 180.5t162.5 72.5q88 0 149 -59q41 39 41 82q-6 -1 -8 -1q-14 0 -23 9.5t-9 23.5q0 13 9 22.5t23 9.5q16 0 27.5 -14t11.5 -39zM285 15q89 0 140.5 66.5
t51.5 160.5q0 93 -51.5 159.5t-140.5 66.5q-88 0 -140 -66.5t-52 -159.5q0 -94 52 -160.5t140 -66.5zM336 556h-30l-175 144h45z" />
    <glyph glyph-name="uni1EDE" unicode="&#x1ede;" horiz-adv-x="764" 
d="M382 -12q-143 0 -230 98.5t-87 246.5t87 246.5t230 98.5q151 0 241 -113q46 39 46 87q-6 -1 -8 -1q-14 0 -23 9.5t-9 23.5q0 13 9 22.5t23 9.5q16 0 27.5 -14t11.5 -39q0 -36 -18 -69t-43 -51q60 -89 60 -210q0 -148 -87.5 -246.5t-229.5 -98.5zM382 18q127 0 204.5 88.5
t77.5 226.5q0 139 -77.5 227t-204.5 88q-128 0 -205 -88t-77 -227q0 -138 77 -226.5t205 -88.5zM337 761l-21 6q16 53 67 53q28 0 46.5 -17t18.5 -50q0 -28 -22 -56h-27q26 26 26 56q0 45 -42 45q-34 0 -46 -37z" />
    <glyph glyph-name="uni1EDF" unicode="&#x1edf;" horiz-adv-x="570" 
d="M506 529q0 -67 -52 -113q56 -70 56 -174q0 -109 -62 -181.5t-163 -72.5q-100 0 -162.5 72.5t-62.5 181.5q0 108 62.5 180.5t162.5 72.5q88 0 149 -59q41 39 41 82q-6 -1 -8 -1q-14 0 -23 9.5t-9 23.5q0 13 9 22.5t23 9.5q16 0 27.5 -14t11.5 -39zM285 15q89 0 140.5 66.5
t51.5 160.5q0 93 -51.5 159.5t-140.5 66.5q-88 0 -140 -66.5t-52 -159.5q0 -94 52 -160.5t140 -66.5zM240 591l-21 6q16 53 67 53q28 0 46.5 -17t18.5 -50q0 -28 -22 -56h-27q26 26 26 56q0 45 -42 45q-34 0 -46 -37z" />
    <glyph glyph-name="uni1EE0" unicode="&#x1ee0;" horiz-adv-x="764" 
d="M382 -12q-143 0 -230 98.5t-87 246.5t87 246.5t230 98.5q151 0 241 -113q46 39 46 87q-6 -1 -8 -1q-14 0 -23 9.5t-9 23.5q0 13 9 22.5t23 9.5q16 0 27.5 -14t11.5 -39q0 -36 -18 -69t-43 -51q60 -89 60 -210q0 -148 -87.5 -246.5t-229.5 -98.5zM382 18q127 0 204.5 88.5
t77.5 226.5q0 139 -77.5 227t-204.5 88q-128 0 -205 -88t-77 -227q0 -138 77 -226.5t205 -88.5zM445 721q-26 0 -44.5 17.5t-27 39t-23 39t-33.5 17.5q-26 0 -42.5 -26.5t-16.5 -80.5h-26q0 57 23.5 95.5t64.5 38.5q26 0 44.5 -17.5t27 -39t23 -39t33.5 -17.5
q26 0 42.5 26.5t16.5 80.5h26q0 -57 -23.5 -95.5t-64.5 -38.5z" />
    <glyph glyph-name="uni1EE1" unicode="&#x1ee1;" horiz-adv-x="570" 
d="M506 529q0 -67 -52 -113q56 -70 56 -174q0 -109 -62 -181.5t-163 -72.5q-100 0 -162.5 72.5t-62.5 181.5q0 108 62.5 180.5t162.5 72.5q88 0 149 -59q41 39 41 82q-6 -1 -8 -1q-14 0 -23 9.5t-9 23.5q0 13 9 22.5t23 9.5q16 0 27.5 -14t11.5 -39zM285 15q89 0 140.5 66.5
t51.5 160.5q0 93 -51.5 159.5t-140.5 66.5q-88 0 -140 -66.5t-52 -159.5q0 -94 52 -160.5t140 -66.5zM347 554q-26 0 -44.5 17.5t-27 39t-23 39t-33.5 17.5q-26 0 -42.5 -26.5t-16.5 -80.5h-26q0 57 23.5 95.5t64.5 38.5q26 0 44.5 -17.5t27 -39t23 -39t33.5 -17.5
q26 0 42.5 26.5t16.5 80.5h26q0 -57 -23.5 -95.5t-64.5 -38.5z" />
    <glyph glyph-name="uni1EE2" unicode="&#x1ee2;" horiz-adv-x="764" 
d="M382 -12q-143 0 -230 98.5t-87 246.5t87 246.5t230 98.5q151 0 241 -113q46 39 46 87q-6 -1 -8 -1q-14 0 -23 9.5t-9 23.5q0 13 9 22.5t23 9.5q16 0 27.5 -14t11.5 -39q0 -36 -18 -69t-43 -51q60 -89 60 -210q0 -148 -87.5 -246.5t-229.5 -98.5zM382 18q127 0 204.5 88.5
t77.5 226.5q0 139 -77.5 227t-204.5 88q-128 0 -205 -88t-77 -227q0 -138 77 -226.5t205 -88.5zM383 -173q-11 0 -20 8.5t-9 20.5t9 20.5t20 8.5q12 0 20.5 -8.5t8.5 -20.5t-8.5 -20.5t-20.5 -8.5z" />
    <glyph glyph-name="uni1EE3" unicode="&#x1ee3;" horiz-adv-x="570" 
d="M506 529q0 -67 -52 -113q56 -70 56 -174q0 -109 -62 -181.5t-163 -72.5q-100 0 -162.5 72.5t-62.5 181.5q0 108 62.5 180.5t162.5 72.5q88 0 149 -59q41 39 41 82q-6 -1 -8 -1q-14 0 -23 9.5t-9 23.5q0 13 9 22.5t23 9.5q16 0 27.5 -14t11.5 -39zM285 15q89 0 140.5 66.5
t51.5 160.5q0 93 -51.5 159.5t-140.5 66.5q-88 0 -140 -66.5t-52 -159.5q0 -94 52 -160.5t140 -66.5zM285 -173q-11 0 -20 8.5t-9 20.5t9 20.5t20 8.5q12 0 20.5 -8.5t8.5 -20.5t-8.5 -20.5t-20.5 -8.5z" />
    <glyph glyph-name="uni1EE4" unicode="&#x1ee4;" horiz-adv-x="672" 
d="M336 -12q-120 0 -184 70t-64 195v414h32v-414q0 -112 56 -173.5t160 -61.5t160 61.5t56 173.5v414h32v-414q0 -125 -64 -195t-184 -70zM341 -173q-11 0 -20 8.5t-9 20.5t9 20.5t20 8.5q12 0 20.5 -8.5t8.5 -20.5t-8.5 -20.5t-20.5 -8.5z" />
    <glyph glyph-name="uni1EE5" unicode="&#x1ee5;" 
d="M442 0h-30v74q-33 -37 -80 -61.5t-95 -24.5q-75 0 -113 36.5t-38 119.5v339h30v-339q0 -72 32 -100.5t93 -28.5q48 0 96.5 25.5t74.5 62.5v380h30v-483zM267 -173q-11 0 -20 8.5t-9 20.5t9 20.5t20 8.5q12 0 20.5 -8.5t8.5 -20.5t-8.5 -20.5t-20.5 -8.5z" />
    <glyph glyph-name="uni1EE6" unicode="&#x1ee6;" horiz-adv-x="672" 
d="M336 -12q-120 0 -184 70t-64 195v414h32v-414q0 -112 56 -173.5t160 -61.5t160 61.5t56 173.5v414h32v-414q0 -125 -64 -195t-184 -70zM291 761l-21 6q16 53 67 53q28 0 46.5 -17t18.5 -50q0 -28 -22 -56h-27q26 26 26 56q0 45 -42 45q-34 0 -46 -37z" />
    <glyph glyph-name="uni1EE7" unicode="&#x1ee7;" 
d="M442 0h-30v74q-33 -37 -80 -61.5t-95 -24.5q-75 0 -113 36.5t-38 119.5v339h30v-339q0 -72 32 -100.5t93 -28.5q48 0 96.5 25.5t74.5 62.5v380h30v-483zM219 591l-21 6q16 53 67 53q28 0 46.5 -17t18.5 -50q0 -28 -22 -56h-27q26 26 26 56q0 45 -42 45q-34 0 -46 -37z
" />
    <glyph glyph-name="uni1EE8" unicode="&#x1ee8;" horiz-adv-x="672" 
d="M490 867l-175 -144h-30l160 144h45zM704 730q0 -51 -33 -92.5t-87 -59.5v-325q0 -125 -64 -195t-184 -70t-184 70t-64 195v414h32v-414q0 -112 56 -173.5t160 -61.5t160 61.5t56 173.5v414h32v-61q38 16 63.5 47.5t25.5 65.5q-6 -1 -8 -1q-14 0 -23 9.5t-9 23.5
q0 13 9 22.5t23 9.5q16 0 27.5 -14t11.5 -39z" />
    <glyph glyph-name="uni1EE9" unicode="&#x1ee9;" 
d="M418 700l-175 -144h-30l160 144h45zM442 0h-30v74q-33 -37 -80 -61.5t-95 -24.5q-75 0 -113 36.5t-38 119.5v339h30v-339q0 -72 32 -100.5t93 -28.5q48 0 96.5 25.5t74.5 62.5v380h30v-69q32 18 52 46.5t20 57.5q-6 -1 -8 -1q-14 0 -23 9.5t-9 23.5q0 13 9 22.5t23 9.5
q16 0 27.5 -14t11.5 -39q0 -46 -28 -85.5t-75 -60.5v-383z" />
    <glyph glyph-name="uni1EEA" unicode="&#x1eea;" horiz-adv-x="672" 
d="M387 723h-30l-175 144h45zM704 730q0 -51 -33 -92.5t-87 -59.5v-325q0 -125 -64 -195t-184 -70t-184 70t-64 195v414h32v-414q0 -112 56 -173.5t160 -61.5t160 61.5t56 173.5v414h32v-61q38 16 63.5 47.5t25.5 65.5q-6 -1 -8 -1q-14 0 -23 9.5t-9 23.5q0 13 9 22.5
t23 9.5q16 0 27.5 -14t11.5 -39z" />
    <glyph glyph-name="uni1EEB" unicode="&#x1eeb;" 
d="M315 556h-30l-175 144h45zM442 0h-30v74q-33 -37 -80 -61.5t-95 -24.5q-75 0 -113 36.5t-38 119.5v339h30v-339q0 -72 32 -100.5t93 -28.5q48 0 96.5 25.5t74.5 62.5v380h30v-69q32 18 52 46.5t20 57.5q-6 -1 -8 -1q-14 0 -23 9.5t-9 23.5q0 13 9 22.5t23 9.5
q16 0 27.5 -14t11.5 -39q0 -46 -28 -85.5t-75 -60.5v-383z" />
    <glyph glyph-name="uni1EEC" unicode="&#x1eec;" horiz-adv-x="672" 
d="M291 761l-21 6q16 53 67 53q28 0 46.5 -17t18.5 -50q0 -28 -22 -56h-27q26 26 26 56q0 45 -42 45q-34 0 -46 -37zM704 730q0 -51 -33 -92.5t-87 -59.5v-325q0 -125 -64 -195t-184 -70t-184 70t-64 195v414h32v-414q0 -112 56 -173.5t160 -61.5t160 61.5t56 173.5v414h32
v-61q38 16 63.5 47.5t25.5 65.5q-6 -1 -8 -1q-14 0 -23 9.5t-9 23.5q0 13 9 22.5t23 9.5q16 0 27.5 -14t11.5 -39z" />
    <glyph glyph-name="uni1EED" unicode="&#x1eed;" 
d="M219 591l-21 6q16 53 67 53q28 0 46.5 -17t18.5 -50q0 -28 -22 -56h-27q26 26 26 56q0 45 -42 45q-34 0 -46 -37zM442 0h-30v74q-33 -37 -80 -61.5t-95 -24.5q-75 0 -113 36.5t-38 119.5v339h30v-339q0 -72 32 -100.5t93 -28.5q48 0 96.5 25.5t74.5 62.5v380h30v-69
q32 18 52 46.5t20 57.5q-6 -1 -8 -1q-14 0 -23 9.5t-9 23.5q0 13 9 22.5t23 9.5q16 0 27.5 -14t11.5 -39q0 -46 -28 -85.5t-75 -60.5v-383z" />
    <glyph glyph-name="uni1EEE" unicode="&#x1eee;" horiz-adv-x="672" 
d="M704 730q0 -51 -33 -92.5t-87 -59.5v-325q0 -125 -64 -195t-184 -70t-184 70t-64 195v414h32v-414q0 -112 56 -173.5t160 -61.5t160 61.5t56 173.5v414h32v-61q38 16 63.5 47.5t25.5 65.5q-6 -1 -8 -1q-14 0 -23 9.5t-9 23.5q0 13 9 22.5t23 9.5q16 0 27.5 -14t11.5 -39z
M398 721q-26 0 -44.5 17.5t-27 39t-23 39t-33.5 17.5q-26 0 -42.5 -26.5t-16.5 -80.5h-26q0 57 23.5 95.5t64.5 38.5q26 0 44.5 -17.5t27 -39t23 -39t33.5 -17.5q26 0 42.5 26.5t16.5 80.5h26q0 -57 -23.5 -95.5t-64.5 -38.5z" />
    <glyph glyph-name="uni1EEF" unicode="&#x1eef;" 
d="M442 0h-30v74q-33 -37 -80 -61.5t-95 -24.5q-75 0 -113 36.5t-38 119.5v339h30v-339q0 -72 32 -100.5t93 -28.5q48 0 96.5 25.5t74.5 62.5v380h30v-69q32 18 52 46.5t20 57.5q-6 -1 -8 -1q-14 0 -23 9.5t-9 23.5q0 13 9 22.5t23 9.5q16 0 27.5 -14t11.5 -39
q0 -46 -28 -85.5t-75 -60.5v-383zM326 554q-26 0 -44.5 17.5t-27 39t-23 39t-33.5 17.5q-26 0 -42.5 -26.5t-16.5 -80.5h-26q0 57 23.5 95.5t64.5 38.5q26 0 44.5 -17.5t27 -39t23 -39t33.5 -17.5q26 0 42.5 26.5t16.5 80.5h26q0 -57 -23.5 -95.5t-64.5 -38.5z" />
    <glyph glyph-name="uni1EF0" unicode="&#x1ef0;" horiz-adv-x="672" 
d="M341 -173q-11 0 -20 8.5t-9 20.5t9 20.5t20 8.5q12 0 20.5 -8.5t8.5 -20.5t-8.5 -20.5t-20.5 -8.5zM704 730q0 -51 -33 -92.5t-87 -59.5v-325q0 -125 -64 -195t-184 -70t-184 70t-64 195v414h32v-414q0 -112 56 -173.5t160 -61.5t160 61.5t56 173.5v414h32v-61
q38 16 63.5 47.5t25.5 65.5q-6 -1 -8 -1q-14 0 -23 9.5t-9 23.5q0 13 9 22.5t23 9.5q16 0 27.5 -14t11.5 -39z" />
    <glyph glyph-name="uni1EF1" unicode="&#x1ef1;" 
d="M267 -173q-11 0 -20 8.5t-9 20.5t9 20.5t20 8.5q12 0 20.5 -8.5t8.5 -20.5t-8.5 -20.5t-20.5 -8.5zM442 0h-30v74q-33 -37 -80 -61.5t-95 -24.5q-75 0 -113 36.5t-38 119.5v339h30v-339q0 -72 32 -100.5t93 -28.5q48 0 96.5 25.5t74.5 62.5v380h30v-69q32 18 52 46.5
t20 57.5q-6 -1 -8 -1q-14 0 -23 9.5t-9 23.5q0 13 9 22.5t23 9.5q16 0 27.5 -14t11.5 -39q0 -46 -28 -85.5t-75 -60.5v-383z" />
    <glyph glyph-name="Ygrave" unicode="&#x1ef2;" horiz-adv-x="610" 
d="M321 0h-32v289l-268 378h41l243 -346l243 346h41l-268 -378v-289zM356 723h-30l-175 144h45z" />
    <glyph glyph-name="ygrave" unicode="&#x1ef3;" horiz-adv-x="471" 
d="M50 -189l6 28q18 -8 42 -8q25 0 42.5 14.5t33.5 51.5l44 100l-207 486h35l190 -448l189 448h35l-256 -597q-36 -82 -106 -82q-27 0 -48 7zM287 556h-30l-175 144h45z" />
    <glyph glyph-name="thinspace" unicode="&#x2009;" horiz-adv-x="52" 
 />
    <glyph glyph-name="endash" unicode="&#x2013;" horiz-adv-x="593" 
d="M563 227h-533v30h533v-30z" />
    <glyph glyph-name="emdash" unicode="&#x2014;" horiz-adv-x="833" 
d="M803 227h-773v30h773v-30z" />
    <glyph glyph-name="afii00208" unicode="&#x2015;" horiz-adv-x="593" 
d="M563 227h-533v30h533v-30z" />
    <glyph glyph-name="quoteleft" unicode="&#x2018;" horiz-adv-x="208" 
d="M55 556q0 36 18 69.5t44 51.5l22 -18q-24 -18 -38.5 -43.5t-14.5 -48.5q6 1 8 1q14 0 23 -9.5t9 -23.5q0 -13 -9 -22.5t-23 -9.5q-16 0 -27.5 14t-11.5 39z" />
    <glyph glyph-name="quoteright" unicode="&#x2019;" horiz-adv-x="208" 
d="M142 624q0 -36 -18 -69.5t-44 -51.5l-22 18q24 18 38.5 43.5t14.5 48.5q-6 -1 -8 -1q-14 0 -23 9.5t-9 23.5q0 13 9 22.5t23 9.5q16 0 27.5 -14t11.5 -39z" />
    <glyph glyph-name="quotesinglbase" unicode="&#x201a;" horiz-adv-x="208" 
d="M142 3q0 -36 -18 -69.5t-44 -51.5l-22 18q24 18 38.5 43.5t14.5 48.5q-6 -1 -8 -1q-14 0 -23 9.5t-9 23.5q0 13 9 22.5t23 9.5q16 0 27.5 -14t11.5 -39z" />
    <glyph glyph-name="quotereversed" unicode="&#x201b;" horiz-adv-x="208" 
d="M66 624q0 25 11.5 39t27.5 14q14 0 23 -9.5t9 -22.5q0 -14 -9 -23.5t-23 -9.5l-8 1q0 -23 14.5 -48.5t38.5 -43.5l-22 -18q-26 18 -44 51.5t-18 69.5z" />
    <glyph glyph-name="quotedblleft" unicode="&#x201c;" horiz-adv-x="331" 
d="M66 556q0 36 18 69.5t44 51.5l22 -18q-24 -18 -38.5 -43.5t-14.5 -48.5q6 1 8 1q14 0 23 -9.5t9 -23.5q0 -13 -9 -22.5t-23 -9.5q-16 0 -27.5 14t-11.5 39zM189 556q0 36 18 69.5t44 51.5l22 -18q-24 -18 -38.5 -43.5t-14.5 -48.5q6 1 8 1q14 0 23 -9.5t9 -23.5
q0 -13 -9 -22.5t-23 -9.5q-16 0 -27.5 14t-11.5 39z" />
    <glyph glyph-name="quotedblright" unicode="&#x201d;" horiz-adv-x="331" 
d="M265 624q0 -36 -18 -69.5t-44 -51.5l-22 18q24 18 38.5 43.5t14.5 48.5q-6 -1 -8 -1q-14 0 -23 9.5t-9 23.5q0 13 9 22.5t23 9.5q16 0 27.5 -14t11.5 -39zM142 624q0 -36 -18 -69.5t-44 -51.5l-22 18q24 18 38.5 43.5t14.5 48.5q-6 -1 -8 -1q-14 0 -23 9.5t-9 23.5
q0 13 9 22.5t23 9.5q16 0 27.5 -14t11.5 -39z" />
    <glyph glyph-name="quotedblbase" unicode="&#x201e;" horiz-adv-x="331" 
d="M142 3q0 -36 -18 -69.5t-44 -51.5l-22 18q24 18 38.5 43.5t14.5 48.5q-6 -1 -8 -1q-14 0 -23 9.5t-9 23.5q0 13 9 22.5t23 9.5q16 0 27.5 -14t11.5 -39zM265 3q0 -36 -18 -69.5t-44 -51.5l-22 18q24 18 38.5 43.5t14.5 48.5q-6 -1 -8 -1q-14 0 -23 9.5t-9 23.5
q0 13 9 22.5t23 9.5q16 0 27.5 -14t11.5 -39z" />
    <glyph glyph-name="dagger" unicode="&#x2020;" horiz-adv-x="251" 
d="M226 539l-89 4l4 -216h-31l4 216l-89 -4v27l89 -3l-4 114h31l-4 -114l89 3v-27z" />
    <glyph glyph-name="daggerdbl" unicode="&#x2021;" horiz-adv-x="251" 
d="M226 566v-27l-89 4v-229l89 4v-27l-89 3l4 -114h-31l4 114l-89 -3v27l89 -4v229l-89 -4v27l89 -3l-4 114h31l-4 -114z" />
    <glyph glyph-name="bullet" unicode="&#x2022;" horiz-adv-x="358" 
d="M278 242q0 -40 -29 -68.5t-69 -28.5t-69 28.5t-29 68.5t29 69t69 29t69 -29t29 -69z" />
    <glyph glyph-name="ellipsis" unicode="&#x2026;" horiz-adv-x="624" 
d="M137 24q0 -14 -9.5 -23.5t-23.5 -9.5t-23.5 9.5t-9.5 23.5q0 13 10 22.5t23 9.5t23 -9.5t10 -22.5zM345 24q0 -14 -9.5 -23.5t-23.5 -9.5t-23.5 9.5t-9.5 23.5q0 13 10 22.5t23 9.5t23 -9.5t10 -22.5zM553 24q0 -14 -9.5 -23.5t-23.5 -9.5t-23.5 9.5t-9.5 23.5
q0 13 10 22.5t23 9.5t23 -9.5t10 -22.5z" />
    <glyph glyph-name="perthousand" unicode="&#x2030;" horiz-adv-x="1051" 
d="M342 513q0 -70 -43 -116t-110 -46t-110 46t-43 116q0 71 43 117.5t110 46.5t110 -46.5t43 -117.5zM590 667l-427 -667h-36l426 667h37zM673 150q0 -70 -43 -116t-110 -46t-110 46t-43 116q0 71 43 117.5t110 46.5t110 -46.5t43 -117.5zM309 513q0 57 -33.5 97t-86.5 40
q-52 0 -86 -40t-34 -97q0 -55 34 -95t86 -40q53 0 86.5 39.5t33.5 95.5zM640 150q0 57 -33.5 97t-86.5 40t-86.5 -40t-33.5 -97q0 -56 33.5 -95.5t86.5 -39.5t86.5 39.5t33.5 95.5zM1015 150q0 -70 -43 -116t-110 -46t-110 46t-43 116q0 71 43 117.5t110 46.5t110 -46.5
t43 -117.5zM982 150q0 57 -33.5 97t-86.5 40t-86.5 -40t-33.5 -97q0 -56 33.5 -95.5t86.5 -39.5t86.5 39.5t33.5 95.5z" />
    <glyph glyph-name="guilsinglleft" unicode="&#x2039;" horiz-adv-x="259" 
d="M229 63h-39l-160 180l160 177h39l-160 -177z" />
    <glyph glyph-name="guilsinglright" unicode="&#x203a;" horiz-adv-x="259" 
d="M229 243l-160 -180h-39l160 180l-160 177h39z" />
    <glyph glyph-name="uni203E" unicode="&#x203e;" horiz-adv-x="363" 
d="M363 581h-363v27h363v-27z" />
    <glyph glyph-name="fraction" unicode="&#x2044;" horiz-adv-x="121" 
d="M292 667l-427 -667h-36l426 667h37z" />
    <glyph glyph-name="zerosuperior" unicode="&#x2070;" horiz-adv-x="380" 
d="M342 621q0 -81 -38 -144t-114 -63t-114 62.5t-38 144.5q0 51 14 96t50 77.5t88 32.5q76 0 114 -62t38 -144zM310 621q0 74 -29 127t-91 53q-43 0 -71.5 -28.5t-39 -67t-10.5 -84.5q0 -74 29.5 -127.5t91.5 -53.5t91 53.5t29 127.5z" />
    <glyph glyph-name="foursuperior" unicode="&#x2074;" horiz-adv-x="380" 
d="M334 534h-62v-113h-29v113h-196v26l186 261h39v-261h62v-26zM243 560v232l-165 -232h165z" />
    <glyph glyph-name="fivesuperior" unicode="&#x2075;" horiz-adv-x="380" 
d="M327 542q0 -58 -40 -93t-97 -35q-93 0 -138 66l20 19q42 -59 118 -59q47 0 77.5 29t30.5 72q0 47 -30.5 75t-77.5 28q-58 0 -103 -41l-23 11v207h236v-26h-206v-165q39 39 101 39q55 0 93.5 -33.5t38.5 -93.5z" />
    <glyph glyph-name="sixsuperior" unicode="&#x2076;" horiz-adv-x="380" 
d="M334 540q0 -51 -38 -88.5t-100 -37.5q-77 0 -113.5 58.5t-36.5 148.5q0 85 38 145.5t117 60.5q69 0 111 -51l-18 -21q-36 46 -93 46q-64 0 -94.5 -52.5t-31.5 -127.5q0 -16 1 -23q16 25 50.5 47.5t74.5 22.5q59 0 96 -33t37 -95zM304 540q0 50 -29.5 76t-78.5 26
q-34 0 -66.5 -20t-51.5 -52q5 -53 34 -91.5t84 -38.5q51 0 79.5 31.5t28.5 68.5z" />
    <glyph glyph-name="sevensuperior" unicode="&#x2077;" horiz-adv-x="355" 
d="M307 801l-181 -380h-33l180 374h-235v26h269v-20z" />
    <glyph glyph-name="eightsuperior" unicode="&#x2078;" horiz-adv-x="380" 
d="M329 521q0 -47 -40 -77t-99 -30q-60 0 -99.5 29.5t-39.5 77.5q0 40 31 67.5t76 38.5q-43 10 -71.5 34t-28.5 62q0 50 39.5 77t92.5 27t92.5 -27t39.5 -77q0 -38 -28 -62t-71 -34q45 -11 75.5 -38.5t30.5 -67.5zM293 722q0 37 -29.5 58t-73.5 21t-73.5 -21t-29.5 -58
q0 -62 103 -83q103 21 103 83zM299 522q0 30 -23.5 52.5t-45.5 30.5t-40 10q-18 -2 -40.5 -10t-46 -30.5t-23.5 -52.5q0 -37 32.5 -60t77.5 -23q44 0 76.5 23t32.5 60z" />
    <glyph glyph-name="ninesuperior" unicode="&#x2079;" horiz-adv-x="380" 
d="M46 701q0 51 37.5 88.5t100.5 37.5q77 0 113.5 -58.5t36.5 -148.5q0 -85 -38.5 -145.5t-116.5 -60.5q-69 0 -111 51l18 21q34 -46 93 -46q64 0 94 53t31 128v22q-17 -25 -51 -47.5t-73 -22.5q-59 0 -96.5 33t-37.5 95zM75 701q0 -49 30 -75.5t78 -26.5q35 0 67.5 20
t51.5 53q-5 52 -34 90.5t-84 38.5q-51 0 -80 -31.5t-29 -68.5z" />
    <glyph glyph-name="parenleftsuperior" unicode="&#x207d;" horiz-adv-x="135" 
d="M125 365l-16 -9q-81 119 -81 265q0 144 81 265l16 -9q-33 -68 -49.5 -125t-16.5 -131t16.5 -132t49.5 -124z" />
    <glyph glyph-name="parenrightsuperior" unicode="&#x207e;" horiz-adv-x="135" 
d="M125 621q0 -144 -81 -265l-16 9q33 66 49.5 124t16.5 132t-16.5 131t-49.5 125l16 9q81 -121 81 -265z" />
    <glyph glyph-name="nsuperior" unicode="&#x207f;" horiz-adv-x="387" 
d="M318 326h-28v213q0 86 -82 86q-31 0 -62 -17t-49 -40v-242h-28v314h28v-49q20 23 52.5 40t64.5 17q59 0 81.5 -27t22.5 -82v-213z" />
    <glyph glyph-name="zeroinferior" unicode="&#x2080;" horiz-adv-x="380" 
d="M342 54q0 -81 -38 -144t-114 -63t-114 62.5t-38 144.5q0 51 14 96t50 77.5t88 32.5q76 0 114 -62t38 -144zM310 54q0 74 -29 127t-91 53q-43 0 -71.5 -28.5t-39 -67t-10.5 -84.5q0 -74 29.5 -127.5t91.5 -53.5t91 53.5t29 127.5z" />
    <glyph glyph-name="oneinferior" unicode="&#x2081;" horiz-adv-x="192" 
d="M132 -146h-30v360l-63 -69l-19 20l85 89h27v-400z" />
    <glyph glyph-name="twoinferior" unicode="&#x2082;" horiz-adv-x="380" 
d="M325 -146h-271v24q119 86 179.5 149t60.5 120q0 44 -29.5 65.5t-70.5 21.5q-78 0 -114 -53l-20 18q43 61 135 61q50 0 89 -28t39 -84q0 -64 -57.5 -126t-167.5 -142h227v-26z" />
    <glyph glyph-name="threeinferior" unicode="&#x2083;" horiz-adv-x="380" 
d="M326 -39q0 -51 -37 -82.5t-101 -31.5q-48 0 -84 18.5t-54 47.5l20 17q40 -57 118 -57q50 0 79 23.5t29 64.5q0 44 -33 65.5t-84 21.5q-30 0 -36 -1v27q6 -1 36 -1q48 0 79.5 20t31.5 61q0 37 -30 58.5t-73 21.5q-67 0 -113 -52l-19 18q51 60 133 60q55 0 93 -28.5
t38 -76.5q0 -43 -28 -66t-61 -28q33 -3 64.5 -28.5t31.5 -71.5z" />
    <glyph glyph-name="fourinferior" unicode="&#x2084;" horiz-adv-x="380" 
d="M334 -33h-62v-113h-29v113h-196v26l186 261h39v-261h62v-26zM243 -7v232l-165 -232h165z" />
    <glyph glyph-name="fiveinferior" unicode="&#x2085;" horiz-adv-x="380" 
d="M327 -25q0 -58 -40 -93t-97 -35q-93 0 -138 66l20 19q42 -59 118 -59q47 0 77.5 29t30.5 72q0 47 -30.5 75t-77.5 28q-58 0 -103 -41l-23 11v207h236v-26h-206v-165q39 39 101 39q55 0 93.5 -33.5t38.5 -93.5z" />
    <glyph glyph-name="sixinferior" unicode="&#x2086;" horiz-adv-x="380" 
d="M334 -27q0 -51 -38 -88.5t-100 -37.5q-77 0 -113.5 58.5t-36.5 148.5q0 85 38 145.5t117 60.5q69 0 111 -51l-18 -21q-36 46 -93 46q-64 0 -94.5 -52.5t-31.5 -127.5q0 -16 1 -23q16 25 50.5 47.5t74.5 22.5q59 0 96 -33t37 -95zM304 -27q0 49 -29.5 75.5t-78.5 26.5
q-34 0 -66.5 -20t-51.5 -52q5 -53 34 -91.5t84 -38.5q51 0 79.5 31.5t28.5 68.5z" />
    <glyph glyph-name="seveninferior" unicode="&#x2087;" horiz-adv-x="355" 
d="M307 234l-181 -380h-33l180 374h-235v26h269v-20z" />
    <glyph glyph-name="eightinferior" unicode="&#x2088;" horiz-adv-x="380" 
d="M329 -46q0 -47 -40 -77t-99 -30q-60 0 -99.5 29.5t-39.5 77.5q0 40 31 67.5t76 38.5q-43 10 -71.5 34t-28.5 62q0 50 39.5 77t92.5 27t92.5 -27t39.5 -77q0 -38 -28 -62t-71 -34q45 -11 75.5 -38.5t30.5 -67.5zM293 155q0 37 -29.5 58t-73.5 21t-73.5 -21t-29.5 -58
q0 -62 103 -83q103 21 103 83zM299 -45q0 30 -23.5 52.5t-45.5 30.5t-40 10q-18 -2 -40.5 -10t-46 -30.5t-23.5 -52.5q0 -37 32.5 -60t77.5 -23q44 0 76.5 23t32.5 60z" />
    <glyph glyph-name="nineinferior" unicode="&#x2089;" horiz-adv-x="380" 
d="M46 134q0 51 37.5 88.5t100.5 37.5q77 0 113.5 -58.5t36.5 -148.5q0 -85 -38.5 -145.5t-116.5 -60.5q-69 0 -111 51l18 21q34 -46 93 -46q64 0 94 53t31 128v22q-17 -25 -51 -47.5t-73 -22.5q-59 0 -96.5 33t-37.5 95zM75 134q0 -49 30 -75.5t78 -26.5q35 0 67.5 20
t51.5 53q-5 52 -34 90.5t-84 38.5q-51 0 -80 -31.5t-29 -68.5z" />
    <glyph glyph-name="parenleftinferior" unicode="&#x208d;" horiz-adv-x="135" 
d="M125 -202l-16 -9q-81 119 -81 265q0 144 81 265l16 -9q-33 -68 -49.5 -125t-16.5 -131t16.5 -132t49.5 -124z" />
    <glyph glyph-name="parenrightinferior" unicode="&#x208e;" horiz-adv-x="135" 
d="M125 54q0 -144 -81 -265l-16 9q33 66 49.5 124t16.5 132t-16.5 131t-49.5 125l16 9q81 -121 81 -265z" />
    <glyph glyph-name="colonmonetary" unicode="&#x20a1;" horiz-adv-x="667" 
d="M398 -12q-11 0 -33 2l-29 -90h-31l31 94q-47 7 -91 29l-41 -123h-31l46 138q-71 45 -112.5 121.5t-41.5 173.5q0 151 96 248t237 97q12 0 36 -2l31 92h31l-33 -97q45 -9 90 -34l44 131h31l-50 -147q27 -20 52 -48l-25 -22q-18 21 -38 37l-191 -569q7 -1 22 -1
q62 0 116.5 26t90.5 71l26 -21q-94 -106 -233 -106zM100 333q0 -85 34.5 -154t95.5 -110l194 578q-8 1 -26 1q-127 0 -212.5 -88t-85.5 -227zM256 53q39 -22 90 -31l196 584q-42 27 -88 36z" />
    <glyph glyph-name="frenchfranc" unicode="&#x20a3;" horiz-adv-x="545" 
d="M132 0h-32v161h-88v27h88v479h408v-30h-376v-279h369v-30h-369v-140h243v-27h-243v-161z" />
    <glyph glyph-name="lira" unicode="&#x20a4;" horiz-adv-x="491" 
d="M17 323v30h90q-56 62 -56 136q0 75 58.5 131.5t149.5 56.5q55 0 103.5 -28.5t71.5 -75.5l-26 -18q-15 36 -56 64t-93 28q-73 0 -124 -42.5t-51 -115.5q0 -70 60 -136h202v-30h-174q43 -47 52 -85h122v-30h-118v-3l1 -2q0 -50 -22.5 -84t-63.5 -65q28 10 55 10
q35 0 83.5 -24t78.5 -24q32 0 62 14t42 29l18 -27q-48 -46 -124 -46q-46 0 -90 24t-88 24q-39 0 -119 -41l-14 33q76 32 114 78t38 99l-1 2v3h-181v30h177q-11 36 -58 85h-119z" />
    <glyph glyph-name="uni20A6" unicode="&#x20a6;" horiz-adv-x="714" 
d="M614 0h-32l-184 251h-266v-251h-32v251h-88v27h88v119h-88v27h88v243h32l179 -243h271v243h32v-243h88v-27h-88v-119h88v-27h-88v-251zM331 397l88 -119h163v119h-251zM132 397v-119h246l-87 119h-159zM439 251l143 -193v193h-143zM132 615v-191h140z" />
    <glyph glyph-name="peseta" unicode="&#x20a7;" horiz-adv-x="608" 
d="M604 462h-79q-5 -74 -57.5 -123.5t-136.5 -49.5h-199v-289h-32v462h-88v30h88v175h231q85 0 137 -50t57 -125h79v-30zM132 637v-145h358q-5 65 -48 105t-112 40h-198zM330 319q68 0 111.5 39.5t48.5 103.5h-358v-143h198z" />
    <glyph glyph-name="rupee" unicode="&#x20a8;" horiz-adv-x="973" 
d="M740 -12q-110 0 -177 77l24 22q54 -72 153 -72q65 0 104 31.5t39 80.5q0 41 -32 65t-77.5 35.5l-91 24t-77.5 40.5t-32 75q0 55 44 91.5t120 36.5q109 0 166 -73l-22 -20q-46 66 -144 66q-62 0 -98 -28.5t-36 -72.5q0 -37 32 -58.5t77.5 -32.5t91 -24t77.5 -43.5
t32 -81.5q0 -60 -44.5 -99.5t-128.5 -39.5zM524 0h-41l-203 288h-160v-288h-32v667h230q85 0 141 -50.5t56 -138.5t-56.5 -139t-140.5 -51zM318 318q73 0 117.5 45t44.5 115t-44.5 114.5t-117.5 44.5h-198v-319h198z" />
    <glyph glyph-name="uni20A9" unicode="&#x20a9;" horiz-adv-x="852" 
d="M637 0h-38l-72 251h-203l-71 -251h-38l-72 251h-116v27h109l-34 119h-75v27h67l-69 243h35l68 -243h212l69 243h34l69 -243h211l69 243h35l-70 -243h69v-27h-76l-34 -119h110v-27h-118zM136 397l33 -119h130l33 119h-196zM519 397l34 -119h129l34 119h-197zM366 397
l-34 -119h187l-34 119h-119zM560 251l58 -203l57 203h-115zM177 251l57 -203l57 203h-114zM426 607l-53 -183h105z" />
    <glyph glyph-name="afii57636" unicode="&#x20aa;" horiz-adv-x="800" 
d="M498 0h-215v399h32v-370h183q184 0 184 178v343h32v-343q0 -102 -55 -154.5t-161 -52.5zM301 550q106 0 161 -52.5t55 -154.5v-193h-32v193q0 178 -184 178h-183v-521h-32v550h215z" />
    <glyph glyph-name="dong" unicode="&#x20ab;" horiz-adv-x="569" 
d="M481 -119h-363v27h363v-27zM480 0h-30v81q-26 -40 -73 -66.5t-101 -26.5q-98 0 -157 69t-59 184q0 114 59.5 184t156.5 70q53 0 98.5 -25.5t75.5 -69.5v141h-166v27h166v99h30v-99h77v-27h-77v-541zM276 15q54 0 102 28t72 68v259q-24 40 -72 69t-102 29
q-86 0 -134.5 -64t-48.5 -163t48.5 -162.5t134.5 -63.5z" />
    <glyph glyph-name="Euro" unicode="&#x20ac;" horiz-adv-x="684" 
d="M418 -12q-119 0 -208.5 71t-115.5 188h-55v30h50q-4 24 -4 56q0 20 4 58h-50v30h55q27 116 116.5 186.5t207.5 70.5q141 0 232 -105l-25 -22q-36 45 -90.5 71t-116.5 26q-105 0 -184 -62t-104 -165h348v-30h-354q-4 -25 -4 -58q0 -20 4 -56h354v-30h-348
q25 -104 104 -166.5t184 -62.5q62 0 116.5 26t90.5 71l26 -21q-94 -106 -233 -106z" />
    <glyph glyph-name="afii61289" unicode="&#x2113;" horiz-adv-x="432" 
d="M116 312v-227q0 -70 52 -70q34 0 57 26l18 -23q-30 -30 -75 -30q-82 0 -82 97v436q0 65 44.5 110.5t113.5 45.5q65 0 106.5 -31.5t41.5 -78.5q0 -40 -25 -70t-71 -62zM116 350l165 111q41 28 61 52t20 54q0 37 -36 60t-82 23q-53 0 -90.5 -36t-37.5 -95v-169z" />
    <glyph glyph-name="afii61352" unicode="&#x2116;" horiz-adv-x="1095" 
d="M892 350q-68 0 -111 47.5t-43 117.5q0 71 43 118t111 47q69 0 112 -47t43 -118q0 -70 -43 -117.5t-112 -47.5zM892 376q58 0 92 40.5t34 98.5t-34 98t-92 40q-57 0 -90.5 -40t-33.5 -98t33.5 -98.5t90.5 -40.5zM602 0h-32l-450 615v-615h-32v667h32l450 -609v609h32v-667
z" />
    <glyph glyph-name="published" unicode="&#x2117;" horiz-adv-x="778" 
d="M734 334q0 -142 -101 -243.5t-244 -101.5t-244 101.5t-101 243.5t101 243.5t244 101.5t244 -101.5t101 -243.5zM708 334q0 131 -94 225t-225 94t-225 -94t-94 -225t94 -225t225 -94t225 94t94 225zM545 422q0 -52 -36 -82t-89 -30h-112v-179h-29v405h141q53 0 89 -30.5
t36 -83.5zM516 422q0 40 -26 62.5t-70 22.5h-112v-168h112q44 0 70 22t26 61z" />
    <glyph glyph-name="servicemark" unicode="&#x2120;" horiz-adv-x="476" 
d="M439 447h-28v182l-75 -182h-8l-75 182v-182h-28v220h43l64 -160l64 160h43v-220zM188 506q0 -31 -22.5 -49t-64.5 -18q-55 0 -86 36l18 21q28 -32 66 -32q56 0 56 39q0 19 -21.5 30t-46.5 15t-46.5 19t-21.5 42q0 28 22.5 46t57.5 18q55 0 82 -32l-18 -19q-22 27 -63 27
q-21 0 -34.5 -10t-13.5 -26q0 -17 21 -27t47 -14.5t47 -20.5t21 -45z" />
    <glyph glyph-name="trademark" unicode="&#x2122;" horiz-adv-x="454" 
d="M419 447h-28v182l-75 -182h-8l-75 182v-182h-28v220h43l64 -160l64 160h43v-220zM169 641h-62v-194h-28v194h-62v26h152v-26z" />
    <glyph glyph-name="Omega" unicode="&#x2126;" horiz-adv-x="764" 
d="M84 30h148q-167 95 -167 303q0 148 87 246.5t230 98.5t230 -98.5t87 -246.5q0 -209 -166 -303h148v-30h-215v30q78 19 138 98t60 205q0 139 -77 226.5t-205 87.5t-205 -87.5t-77 -226.5q0 -126 60.5 -205t138.5 -98v-30h-215v30z" />
    <glyph glyph-name="estimated" unicode="&#x212e;" horiz-adv-x="842" 
d="M811 324h-632q-5 0 -5 -5v-190q0 -14 9 -23q98 -103 240 -103q151 0 250 115h57q-54 -63 -135 -99.5t-174 -36.5q-161 0 -275.5 103t-114.5 248t114.5 248t275.5 103t275.5 -103t114.5 -248v-9zM668 349v191q0 14 -10 24q-97 99 -235 99q-140 0 -239 -102
q-10 -10 -10 -24v-188q0 -6 5 -6h485q4 0 4 6z" />
    <glyph glyph-name="onethird" unicode="&#x2153;" horiz-adv-x="755" 
d="M132 267h-30v360l-63 -69l-19 20l85 89h27v-400zM546 667l-427 -667h-36l426 667h37zM701 107q0 -51 -37 -82.5t-101 -31.5q-48 0 -84 18.5t-54 47.5l20 17q40 -57 118 -57q50 0 79 23.5t29 64.5q0 44 -33 65.5t-84 21.5q-30 0 -36 -1v27q6 -1 36 -1q48 0 79.5 20
t31.5 61q0 37 -30 58.5t-73 21.5q-67 0 -113 -52l-19 18q51 60 133 60q55 0 93 -28.5t38 -76.5q0 -43 -28 -66t-61 -28q33 -3 64.5 -28.5t31.5 -71.5z" />
    <glyph glyph-name="twothirds" unicode="&#x2154;" horiz-adv-x="881" 
d="M325 267h-271v24q119 86 179.5 149t60.5 120q0 44 -29.5 65.5t-70.5 21.5q-78 0 -114 -53l-20 18q43 61 135 61q50 0 89 -28t39 -84q0 -64 -57.5 -126t-167.5 -142h227v-26zM672 667l-427 -667h-36l426 667h37zM827 107q0 -51 -37 -82.5t-101 -31.5q-48 0 -84 18.5
t-54 47.5l20 17q40 -57 118 -57q50 0 79 23.5t29 64.5q0 44 -33 65.5t-84 21.5q-30 0 -36 -1v27q6 -1 36 -1q48 0 79.5 20t31.5 61q0 37 -30 58.5t-73 21.5q-67 0 -113 -52l-19 18q51 60 133 60q55 0 93 -28.5t38 -76.5q0 -43 -28 -66t-61 -28q33 -3 64.5 -28.5t31.5 -71.5z
" />
    <glyph glyph-name="oneeighth" unicode="&#x215b;" horiz-adv-x="755" 
d="M132 267h-30v360l-63 -69l-19 20l85 89h27v-400zM704 100q0 -47 -40 -77t-99 -30q-60 0 -99.5 29.5t-39.5 77.5q0 40 31 67.5t76 38.5q-43 10 -71.5 34t-28.5 62q0 50 39.5 77t92.5 27t92.5 -27t39.5 -77q0 -38 -28 -62t-71 -34q45 -11 75.5 -38.5t30.5 -67.5zM668 301
q0 37 -29.5 58t-73.5 21t-73.5 -21t-29.5 -58q0 -62 103 -83q103 21 103 83zM674 101q0 30 -23.5 52.5t-45.5 30.5t-40 10q-18 -2 -40.5 -10t-46 -30.5t-23.5 -52.5q0 -37 32.5 -60t77.5 -23q44 0 76.5 23t32.5 60zM546 667l-427 -667h-36l426 667h37z" />
    <glyph glyph-name="threeeighths" unicode="&#x215c;" horiz-adv-x="881" 
d="M830 100q0 -47 -40 -77t-99 -30q-60 0 -99.5 29.5t-39.5 77.5q0 40 31 67.5t76 38.5q-43 10 -71.5 34t-28.5 62q0 50 39.5 77t92.5 27t92.5 -27t39.5 -77q0 -38 -28 -62t-71 -34q45 -11 75.5 -38.5t30.5 -67.5zM794 301q0 37 -29.5 58t-73.5 21t-73.5 -21t-29.5 -58
q0 -62 103 -83q103 21 103 83zM800 101q0 30 -23.5 52.5t-45.5 30.5t-40 10q-18 -2 -40.5 -10t-46 -30.5t-23.5 -52.5q0 -37 32.5 -60t77.5 -23q44 0 76.5 23t32.5 60zM672 667l-427 -667h-36l426 667h37zM326 374q0 -51 -37 -82.5t-101 -31.5q-48 0 -84 18.5t-54 47.5
l20 17q40 -57 118 -57q50 0 79 23.5t29 64.5q0 44 -33 65.5t-84 21.5q-30 0 -36 -1v27q6 -1 36 -1q48 0 79.5 20t31.5 61q0 37 -30 58.5t-73 21.5q-67 0 -113 -52l-19 18q51 60 133 60q55 0 93 -28.5t38 -76.5q0 -43 -28 -66t-61 -28q33 -3 64.5 -28.5t31.5 -71.5z" />
    <glyph glyph-name="fiveeighths" unicode="&#x215d;" horiz-adv-x="881" 
d="M830 100q0 -47 -40 -77t-99 -30q-60 0 -99.5 29.5t-39.5 77.5q0 40 31 67.5t76 38.5q-43 10 -71.5 34t-28.5 62q0 50 39.5 77t92.5 27t92.5 -27t39.5 -77q0 -38 -28 -62t-71 -34q45 -11 75.5 -38.5t30.5 -67.5zM794 301q0 37 -29.5 58t-73.5 21t-73.5 -21t-29.5 -58
q0 -62 103 -83q103 21 103 83zM800 101q0 30 -23.5 52.5t-45.5 30.5t-40 10q-18 -2 -40.5 -10t-46 -30.5t-23.5 -52.5q0 -37 32.5 -60t77.5 -23q44 0 76.5 23t32.5 60zM327 388q0 -58 -40 -93t-97 -35q-93 0 -138 66l20 19q42 -59 118 -59q47 0 77.5 29t30.5 72
q0 47 -30.5 75t-77.5 28q-58 0 -103 -41l-23 11v207h236v-26h-206v-165q39 39 101 39q55 0 93.5 -33.5t38.5 -93.5zM672 667l-427 -667h-36l426 667h37z" />
    <glyph glyph-name="seveneighths" unicode="&#x215e;" horiz-adv-x="793" 
d="M742 100q0 -47 -40 -77t-99 -30q-60 0 -99.5 29.5t-39.5 77.5q0 40 31 67.5t76 38.5q-43 10 -71.5 34t-28.5 62q0 50 39.5 77t92.5 27t92.5 -27t39.5 -77q0 -38 -28 -62t-71 -34q45 -11 75.5 -38.5t30.5 -67.5zM706 301q0 37 -29.5 58t-73.5 21t-73.5 -21t-29.5 -58
q0 -62 103 -83q103 21 103 83zM712 101q0 30 -23.5 52.5t-45.5 30.5t-40 10q-18 -2 -40.5 -10t-46 -30.5t-23.5 -52.5q0 -37 32.5 -60t77.5 -23q44 0 76.5 23t32.5 60zM307 647l-181 -380h-33l180 374h-235v26h269v-20zM584 667l-427 -667h-36l426 667h37z" />
    <glyph glyph-name="arrowleft" unicode="&#x2190;" horiz-adv-x="582" 
d="M538 211h-269l12 -130l-281 205l281 204l-12 -129h269v-150z" />
    <glyph glyph-name="arrowup" unicode="&#x2191;" horiz-adv-x="582" 
d="M216 17v269l-130 -12l205 281l204 -281l-129 12v-269h-150z" />
    <glyph glyph-name="arrowright" unicode="&#x2192;" horiz-adv-x="582" 
d="M584 286l-281 -205l12 130h-268v150h268l-12 129z" />
    <glyph glyph-name="arrowdown" unicode="&#x2193;" horiz-adv-x="582" 
d="M366 555v-269l130 12l-205 -281l-204 281l129 -12v269h150z" />
    <glyph glyph-name="partialdiff" unicode="&#x2202;" horiz-adv-x="570" 
d="M285 -12q-100 0 -162.5 72.5t-62.5 181.5q0 108 62.5 180.5t162.5 72.5q95 0 156 -85q-32 66 -106 131.5t-169 109.5l18 27q64 -31 120 -72.5t103.5 -96t75 -123.5t27.5 -144q0 -109 -62 -181.5t-163 -72.5zM285 15q89 0 140.5 66.5t51.5 160.5q0 93 -51.5 159.5
t-140.5 66.5q-88 0 -140 -66.5t-52 -159.5q0 -94 52 -160.5t140 -66.5z" />
    <glyph glyph-name="Delta" unicode="&#x2206;" horiz-adv-x="636" 
d="M615 0h-594l278 667h38zM567 30l-249 600l-249 -600h498z" />
    <glyph glyph-name="product" unicode="&#x220f;" horiz-adv-x="639" 
d="M487 -90h-32v727h-272v-727h-32v727h-113v30h563v-30h-114v-727z" />
    </font>
</defs>
</svg>
