<svg fill="none" viewBox="0 0 49 40" xmlns="http://www.w3.org/2000/svg"><g fill="#000"><path d="m22.1358 4.01456-.2357-1.17363c.0141.06963.032.13837.0542.206l.2356 1.17362c-.0221-.06763-.0402-.13636-.0541-.20599z"/><path d="m21.9543 3.04693.2356 1.17362c-.0221-.06763-.0402-.13636-.0541-.20599l-.2357-1.17363c.0141.06963.032.13837.0542.206z"/><path d="m24.3763.203125c.5072 0 1.0024.152529 1.3954.466109.9083.725456.9254 2.037886.0386 2.931916-.4033.40534-.9232.65439-1.4553.73862l7.5043 8.13863c-1.6258-.8378-3.3039-1.6261-5.0752-2.199-1.0494-.3388-2.1704-.62825-3.3039-.62825-1.3863.00852-2.5027.57115-3.0166 1.72725-.6678 1.5034-.6142 3.2484-.5146 4.8248.0879 1.3902.9619 5.7558 1.0078 5.9856-.1171-.223-2.3414-4.4606-7.8262-7.4262-3.34042-1.806-8.01694-2.0866-10.60098-2.0866-1.16492 0-1.867751.0543-1.904742.057.561242-.1601 11.224822-3.20339 13.596822-4.19283 3.2973-1.3742 1.381-4.48587-6.28131-6.32717l14.01391.83393c-.2215-.67587-.0349-1.46961.5641-2.073414.5042-.507174 1.1915-.770391 1.8579-.770391z"/><path d="m38.2149 20.2463-.2389-1.3394c.0069.0389.015.0775.0245.1157l.239 1.3394c-.0095-.0382-.0176-.0768-.0246-.1157z"/><path d="m38.0005 19.0226.239 1.3394c-.0095-.0382-.0176-.0768-.0246-.1157l-.2389-1.3394c.0069.0389.015.0775.0245.1157z"/><path d="m25.1971 15.915 12.8034 3.1076c-.1135-.4612-.0491-.9733.2212-1.4482.3051-.5357.8128-.9214 1.3824-1.1086.5456-.1793 1.1479-.1767 1.6839.0503 1.0965.4631 1.5016 1.6887.9044 2.7375-.3048.5353-.813.9209-1.3826 1.1081-.1833.0602-.3728.0999-.5641.1174l7.8793 8.5053c-4.7767-2.7712-7.7456-3.3463-9.5887-2.741-2.1756.7147-2.7826 3.0744-2.9465 5.4102-.2285 3.2562.3696 8.092.4011 8.3465-.133-.2667-2.6611-5.3353-7.2851-8.1787-5.2399-3.2221-11.7664-3.5766-12.11-3.5952.2817-.0302 5.633-.6051 10.8519-2.2477.175-.0552.3521-.1116.5285-.1696 3.6064-1.1855 7.1652-3.0674-2.7791-9.8939z"/></g></svg>
