<?xml version="1.0" standalone="no"?>
<!DOCTYPE svg PUBLIC "-//W3C//DTD SVG 1.1//EN" "http://www.w3.org/Graphics/SVG/1.1/DTD/svg11.dtd" >
<svg xmlns="http://www.w3.org/2000/svg">
<metadata>
<json>
<![CDATA[
{
	"fontFamily": "icon",
	"fontURL": "http://skreets.ru",
	"designer": "Alexander Zharikov",
	"designerURL": "http://skreets.ru/about.html",
	"license": "GNU",
	"licenseURL": "http://www.gnu.org/licenses/gpl",
	"description": "Wed developer icons\nFont generated by IcoMoon.",
	"copyright": "2016 skreets",
	"majorVersion": 1,
	"minorVersion": 3.9,
	"version": "Version 1.3",
	"fontId": "icon",
	"psName": "icon",
	"subFamily": "Regular",
	"fullName": "icon"
}
]]>
</json>
</metadata>
<defs>
<font id="icon" horiz-adv-x="1024">
<font-face units-per-em="1024" ascent="960" descent="-64" />
<missing-glyph horiz-adv-x="1024" />
<glyph unicode="&#x20;" horiz-adv-x="512" d="" />
<glyph unicode="&#xe900;" glyph-name="cup" data-tags="cup" horiz-adv-x="819" d="M637.723 860.336c-6.406 0-12.64-0.754-18.604-2.179 0.197 12.444-0.164 19.497-0.164 19.497h-422.814c0 0-0.352-7.053-0.156-19.497-5.972 1.425-12.198 2.179-18.604 2.179-44.188 0-79.995-35.815-79.995-79.995 0-26.264 12.665-49.578 32.211-64.16l118.727-96.051c25.854-56.295 64.348-112.247 121.635-156.656v-44.646h-1.114c-7.029 0-12.739-5.702-12.739-12.739s5.702-12.73 12.739-12.73h1.114v-49.709c0 0-24.445-58.057-51.601-58.057 0 0-30.31-6.98-34.849-35.987-7.258-0.074-13.115-5.972-13.115-13.238 0-7.315 5.931-13.23 13.238-13.23h247.816c7.324 0 13.238 5.923 13.238 13.23 0 7.274-5.857 13.165-13.107 13.238-4.538 29.008-34.849 35.987-34.849 35.987-27.156 0-51.601 58.057-51.601 58.057v49.709h1.114c7.029 0 12.73 5.693 12.73 12.73s-5.693 12.739-12.73 12.739h-1.114v44.655c57.27 44.409 95.764 100.36 121.627 156.656l118.727 96.051c19.554 14.582 32.219 37.896 32.219 64.16 0.008 44.179-35.807 79.987-79.978 79.987zM218.137 694.661l-65.094 52.666c-9.961 7.422-16.409 19.3-16.409 32.686 0 22.503 18.252 40.747 40.755 40.747 7.668 0 14.828-2.114 20.955-5.792 2.703-30.212 8.339-69.009 19.8-111.034v-9.273zM662.053 747.327l-65.085-52.666v9.273c11.452 42.025 17.089 80.814 19.792 111.034 6.128 3.678 13.296 5.792 20.963 5.792 22.503 0 40.747-18.244 40.747-40.747-0.008-13.386-6.455-25.264-16.417-32.686z" />
<glyph unicode="&#xe901;" glyph-name="sd" data-tags="sd" horiz-adv-x="1379" d="M1035.474 935.325c21.585 0 42.658-6.8 59.382-20.781 38.655-32.344 39.386-90.857 1.643-130.717-17.164-18.072-39.287-29.175-61.933-32.931l319.365-362.851c-69.188 37.353-140.606 72.494-215.988 98.038-44.661 15.106-92.367 28.011-140.606 28.011-58.997-0.38-106.511-25.464-128.378-77.010-28.42-67.026-26.14-144.826-21.901-215.109 3.741-61.978 40.935-256.617 42.89-266.862-4.984 9.944-99.646 198.873-333.064 331.090-142.161 80.518-341.182 93.029-451.152 93.029-49.576 0-79.487-2.418-81.061-2.541 23.885 7.141 477.702 142.822 578.646 186.936 140.325 61.267 58.775 199.998-267.316 282.091l596.392-37.185c-9.426 30.133-1.48 65.526 24.013 92.446 21.457 22.612 50.707 34.347 79.068 34.347z" />
<glyph unicode="&#xe902;" glyph-name="fire" data-tags="fire" horiz-adv-x="856" d="M8.147 338.798c7.637 31.299 26.715 81.308 57.249 150.013s47.337 124.427 50.392 167.181c29.77-54.958 46.956-110.315 51.52-166.036 112.987 140.466 171.765 303.829 176.347 490.106 7.637-4.582 17.168-11.075 28.624-19.459 11.457-8.401 33.589-25.569 66.415-51.52s61.068-54.194 84.746-84.746c23.659-30.534 46.956-67.179 69.851-109.932s35.88-87.783 38.936-135.12c11.457 27.479 18.694 57.63 21.75 90.455s-0.381 63.359-10.311 91.601c11.457-9.166 27.096-24.041 46.956-44.665 19.84-20.604 41.227-49.247 64.124-85.873s44.282-74.435 64.124-113.371 31.68-83.982 35.499-135.12 0.381-99.621-10.311-145.431-38.171-94.275-82.454-145.431c-44.282-51.138-102.295-96.949-174.056-137.411 48.866 98.476 58.394 204.59 28.624 318.342s-88.545 201.152-176.347 262.22c7.637-32.825 3.436-86.638-12.602-161.454s-40.845-132.065-74.435-171.765c5.346 48.101 6.875 87.019 4.582 116.807-2.291 29.77-6.875 52.284-13.748 67.56l-11.457 19.459c-9.166-53.429-32.061-106.877-68.706-160.307-19.84-29.006-34.735-55.339-44.665-79.017-9.93-23.659-13.366-54.194-10.311-91.601s14.512-77.49 34.354-120.225c-103.059 58.013-172.146 116.807-207.262 176.347-35.062 59.522-44.209 128.992-27.425 208.391v0z" />
<glyph unicode="&#xe903;" glyph-name="bc" data-tags="bc" horiz-adv-x="673" d="M527.069 465.106v2.076c60.197 31.136 93.409 90.295 93.409 161.909 0 85.106-46.704 148.416-115.204 175.401-31.136 12.455-61.235 17.644-100.674 19.72v106.901c0 4.152-3.114 7.265-7.265 7.265h-60.197c-4.152 0-7.265-3.114-7.265-7.265v-105.863h-79.917v105.863c0 4.152-3.114 7.265-7.265 7.265h-60.197c-4.152 0-7.265-3.114-7.265-7.265v-105.863h-138.038c-8.303 0-15.568-6.227-15.568-15.568v-75.765c0-8.303 6.227-15.568 15.568-15.568h33.212c23.871 0 42.553-19.72 42.553-42.553v-461.855c0-23.871-19.72-42.553-42.553-42.553h-33.212c-8.303 0-15.568-6.227-15.568-15.568v-74.727c0-8.303 6.227-15.568 15.568-15.568h138.038v-105.863c0-4.152 3.114-7.265 7.265-7.265h60.197c4.152 0 7.265 3.114 7.265 7.265v105.863h79.917v-105.863c0-4.152 3.114-7.265 7.265-7.265h60.197c4.152 0 7.265 3.114 7.265 7.265v106.901c34.25 0 63.311 3.114 95.485 12.455 81.992 25.947 150.492 100.674 150.492 206.538-1.038 79.917-39.439 153.606-123.507 179.553zM250.993 712.12h117.28c26.985 0 48.78-4.152 65.386-11.417 30.098-15.568 43.591-48.78 43.591-86.144 0-59.159-33.212-99.636-93.409-99.636h-133.886v197.197h1.038zM447.152 186.954c-15.568-7.265-36.326-8.303-53.97-8.303h-141.151v225.219h146.341c69.538 0 110.015-44.629 110.015-110.015-1.038-47.742-22.833-91.333-61.235-106.901z" />
<glyph unicode="&#xe904;" glyph-name="star" data-tags="star" horiz-adv-x="819" d="M409.501 960l136.489-244.997 273.013-55.321-188.657-206.739 32.24-279.187-253.086 117.226-253.088-117.226 32.242 279.187-188.657 206.739 273.013 55.321z" />
<glyph unicode="&#xe905;" glyph-name="skyderby" data-tags="skyderby" horiz-adv-x="1170" d="M613.888 945.371c12.797 0 25.29-4.032 35.205-12.32 22.917-19.175 23.35-53.865 0.974-77.496-10.176-10.714-23.292-17.297-36.718-19.523l189.338-215.119c-41.019 22.145-83.359 42.979-128.050 58.122-26.478 8.956-54.761 16.606-83.359 16.606-34.977-0.225-63.146-15.097-76.11-45.656-16.849-39.737-15.498-85.861-12.984-127.529 2.218-36.744 24.269-152.137 25.427-158.211-2.955 5.895-59.076 117.903-197.459 196.289-84.281 47.736-202.272 55.153-267.469 55.153-29.392 0-47.124-1.434-48.058-1.507 14.16 4.234 283.209 84.673 343.055 110.826 83.193 36.323 34.845 118.57-158.48 167.24l353.575-22.045c-5.588 17.864-0.878 38.848 14.237 54.807 12.721 13.406 30.062 20.363 46.876 20.363zM576.082 588.592l323.013-82.142c-2.864 12.189-1.214 25.729 5.606 38.28 7.698 14.16 20.506 24.357 34.877 29.304 13.765 4.74 28.962 4.669 42.487-1.331 27.666-12.238 37.885-44.635 22.818-72.356-7.692-14.149-20.512-24.342-34.883-29.289-4.626-1.592-9.406-2.642-14.234-3.104l198.799-224.812c-120.519 73.248-195.426 88.45-241.927 72.449-54.892-18.888-70.208-81.262-74.342-143-5.767-86.069 9.324-213.887 10.12-220.616-3.356 7.051-67.142 141.022-183.808 216.181-132.204 85.165-296.872 94.536-305.541 95.027 7.107 0.799 142.122 15.995 273.8 59.412 4.415 1.457 8.882 2.949 13.332 4.482 90.993 31.331 180.783 81.074-70.118 261.515z" />
<glyph unicode="&#xe906;" glyph-name="dashboard" data-tags="dashboard" horiz-adv-x="819" d="M444.351 960h374.651v-264.288h-374.651v264.288zM-0.002 463.371h374.651v496.629h-374.651zM444.351 626.009h374.651v-496.629h-374.651v496.629zM-0.002 393.667h374.651v-264.288h-374.651v264.288z" />
<glyph unicode="&#xe907;" glyph-name="track" data-tags="track" horiz-adv-x="1034" d="M1019.769 945.982c-10.938 10.954-27.437 14.018-41.602 7.874l-945.832-412.492c-14.486-6.312-23.492-21.026-22.474-36.829 1.012-15.764 11.781-29.238 26.963-33.673l392.966-114.836 114.815-392.966c4.435-15.204 17.909-25.989 33.695-26.985 0.805-0.076 1.6-0.076 2.405-0.076 14.866 0 28.433 8.777 34.424 22.528l412.507 945.849c6.192 14.171 3.070 30.691-7.869 41.607z" />
<glyph unicode="&#xe908;" glyph-name="location" data-tags="location" horiz-adv-x="819" d="M409.646 715.317c-70.958 0-129.682-58.724-129.682-129.682s58.724-129.682 129.682-129.682c72.181 0 129.682 58.724 129.682 129.682s-58.724 129.682-129.682 129.682zM409.646 960c-214.099 0-389.047-174.948-389.047-389.047 0-28.138 2.447-56.277 8.563-83.192l2.447-12.234c48.937-183.513 286.28-451.441 376.813-539.527 89.309 88.086 326.652 351.122 376.813 532.186l3.671 13.457c6.118 28.138 9.787 57.5 9.787 88.086 0 215.322-174.948 390.27-389.047 390.27zM409.646 336.057c-138.247 0-249.577 112.554-249.577 249.577 0 138.247 112.554 249.577 249.577 249.577 138.247 0 249.577-112.554 249.577-249.577 0-138.247-111.332-249.577-249.577-249.577z" />
<glyph unicode="&#xe909;" glyph-name="wingsuit" data-tags="wingsuit" horiz-adv-x="1005" d="M998.685 856.138c0-57.362-46.5-103.862-103.862-103.862s-103.862 46.5-103.862 103.862c0 57.362 46.5 103.862 103.862 103.862s103.862-46.5 103.862-103.862zM919.15 600.551c-5.553 20.016-11.562 38.323-18.483 54.433-7.231 16.131-14.442 30.18-27.496 42.788-0.031 0.042-0.083 0.114-0.145 0.125-0.663 0.735-1.378 1.502-2.083 2.207l-130.063 122.033c-0.798 0.735-1.565 1.347-2.362 1.968-0.031 0.083-0.083 0.104-0.114 0.114-13.427 12.246-27.88 18.566-44.446 24.73-28.812 10.267-64.586 17.551-103.53 23.611-116.17 17.933-259.037 22.866-259.784 22.928-20.379 0.746-37.463-15.219-38.209-35.597-0.384-11.096 4.154-21.218 11.645-28.243 6.288-5.905 14.67-9.677 23.953-9.998 0.031 0 2.331-0.072 6.341-0.238 3.108-72.19 7.522-230.423-9.832-303.359l-278.401-137.771c-28.243-13.996-39.825-48.227-25.818-76.479 13.054-26.398 43.751-37.95 70.813-27.963 34.231-48.030 88.787-122.22 118.48-150.089 29.713-27.88 107.208-77.609 157.32-108.7-8.237-27.621 5.222-57.52 32.386-68.896 29.082-12.153 62.514 1.544 74.697 30.656l119.827 286.554c71.703 21.943 229.894 27.589 302.126 29.061 0.435-4.092 0.663-6.299 0.663-6.299 0.932-9.273 5.19-17.394 11.479-23.289 7.501-7.035 17.872-10.94 28.905-9.832 20.296 2.020 35.163 20.089 33.132 40.374-0.051 0.497-8.237 83.389-23.259 173.4-7.522 45.057-16.701 91.802-27.744 131.772z" />
<glyph unicode="&#xe90a;" glyph-name="bitcoin" data-tags="bitcoin" d="M573.44 421.053h-97.011v-148.749h92.699c11.857 0 25.869 1.078 35.57 5.389 25.869 10.779 39.882 38.804 39.882 70.063 1.078 43.115-25.869 73.297-71.141 73.297zM626.256 560.102c0 24.791-9.701 46.349-29.103 57.129-10.779 5.389-25.869 7.545-43.115 7.545h-77.609v-130.425h88.388c38.804 0 61.44 26.947 61.44 65.752zM512 960c-282.409 0-512-229.591-512-512s229.591-512 512-512 512 229.591 512 512c0 282.409-229.591 512-512 512zM640.27 206.552c-21.558-6.467-40.96-8.623-62.518-8.623v-70.063c0-3.234-2.156-5.389-5.389-5.389h-39.882c-3.234 0-5.389 2.156-5.389 5.389v70.063h-52.816v-70.063c0-3.234-2.156-5.389-5.389-5.389h-39.882c-3.234 0-5.389 2.156-5.389 5.389v70.063h-91.621c-5.389 0-9.701 4.312-9.701 9.701v49.583c0 5.389 4.312 9.701 9.701 9.701h21.558c16.168 0 28.025 12.935 28.025 28.025v305.044c0 16.168-12.935 28.025-28.025 28.025h-21.558c-5.389 0-9.701 4.312-9.701 9.701v49.583c0 5.389 4.312 9.701 9.701 9.701h91.621v70.063c0 3.234 2.156 5.389 5.389 5.389h39.882c3.234 0 5.389-2.156 5.389-5.389v-70.063h52.816v70.063c0 3.234 2.156 5.389 5.389 5.389h39.882c3.234 0 5.389-2.156 5.389-5.389v-71.141c25.869-1.078 46.349-4.312 66.83-12.935 45.271-17.246 76.531-59.285 76.531-115.335 0-47.427-21.558-86.232-61.44-106.712v-1.078c56.051-17.246 80.842-65.752 80.842-118.568-1.078-67.908-46.349-117.49-100.244-134.736z" />
<glyph unicode="&#xe90b;" glyph-name="notification" data-tags="notification" horiz-adv-x="819" d="M332.719 847.954c-132.466-34.077-230.345-154.28-230.345-297.443v-204.734c0-18.864-15.328-34.154-34.090-34.154-37.714 0-68.286-30.634-68.286-68.25 0-37.693 30.611-68.25 68.419-68.25h682.166c37.787 0 68.419 30.634 68.419 68.25 0 37.693-30.716 68.25-68.286 68.25-18.827 0-34.090 15.173-34.090 34.154v204.734c0 143.107-97.858 263.354-230.345 297.441v35.252c0 42.513-34.377 76.796-76.782 76.796-42.319 0-76.782-34.383-76.782-76.796v-35.25zM290.062 140.996h238.876c0-65.963-53.475-119.438-119.438-119.438s-119.438 53.475-119.438 119.438z" />
<glyph unicode="&#xe90c;" glyph-name="feed" data-tags="feed" horiz-adv-x="819" d="M115.67 368.040c30.339 0 55.965-10.774 76.886-32.306 21.239-20.931 31.85-46.419 31.85-76.441s-10.611-55.656-31.85-76.895c-20.921-20.931-46.547-31.386-76.886-31.386-30.039 0-55.51 10.456-76.441 31.386-20.921 21.239-31.386 46.865-31.386 76.895s10.465 55.519 31.386 76.441c20.939 21.539 46.401 32.306 76.441 32.306zM11.484 652.417c6.971 7.889 15.762 12.439 26.371 13.65v0.455h44.59c121.64 0 225.69-43.071 312.141-129.22 86.45-85.532 130.121-189.126 131.041-310.758v-43.225h-0.464c-0.91-9.701-4.85-18.046-11.839-25.025-6.971-6.979-15.461-11.075-25.471-12.294v-0.455h-75.985c-10.629 0.3-19.874 3.949-27.764 10.92-7.889 7.58-12.439 16.526-13.65 26.845h-0.464v43.225h0.464c-0.91 78.561-29.275 145.755-85.085 201.557-56.73 55.519-124.379 83.266-202.94 83.266h-1.784v-0.455h-42.789v0.455c-9.701 1.22-18.2 5.151-25.471 11.831-6.988 6.979-10.774 15.47-11.375 25.481h-0.901v75.994c0.601 10.62 4.387 19.874 11.375 27.756zM0.109 842.153v76.441c0.601 10.62 4.387 19.874 11.375 27.756 6.971 7.889 15.762 12.439 26.371 13.65h44.59c202.33 0 375.54-71.581 519.612-214.761 144.090-143.471 216.436-316.372 217.055-518.703v-43.225h-0.464c-1.211-9.701-5.151-18.046-11.839-25.025-6.971-6.979-15.461-11.075-25.471-12.294v-0.455h-75.976c-10.629 0.3-19.874 3.949-27.764 10.92-7.889 7.58-12.439 16.526-13.65 26.845h-0.464v43.225h0.464c-0.601 159.57-57.776 295.76-171.527 408.601-113.451 113.451-250.106 170.17-409.966 170.17h-1.811v-0.455h-42.789v0.455c-9.701 0.919-18.2 4.85-25.471 11.831-6.988 6.988-10.774 15.324-11.375 25.025h-0.901z" />
<glyph unicode="&#xe90d;" glyph-name="comments" data-tags="comments" horiz-adv-x="1076" d="M1057.702 834.99c-0.011 69.003-56.037 125.010-125.105 125.010h-796.634c-69.087 0-125.094-56.006-125.094-125.010v-484.481c0-69.121 56.006-125.054 125.094-125.054h107.191v-211.527c0-26.010 21.156-47.157 47.22-47.157 13.331 0 25.369 5.485 33.924 14.325l243.719 244.366h364.586c69.070 0 125.094 55.923 125.094 125.054v484.481l0.004-0.007z" />
<glyph unicode="&#xe90e;" glyph-name="dad" data-tags="dad" horiz-adv-x="819" d="M812.579 561.739l-130.559 106.31c-10.278 10.278-27.782 3.051-27.782-11.562v-65.36h-203.948v203.948h65.36c14.453 0 21.68 17.504 11.562 27.782l-105.989 130.719c-6.424 6.424-16.701 6.424-22.964 0l-106.31-130.559c-10.278-10.278-3.051-27.782 11.562-27.782h65.36v-203.948h-203.948v65.36c0 14.453-17.504 21.68-27.782 11.562l-130.719-105.989c-6.424-6.424-6.424-16.701 0-22.964l130.559-106.31c10.278-10.278 27.782-3.051 27.782 11.562v65.36h203.948v-203.948h-65.36c-14.453 0-21.68-17.504-11.562-27.782l105.828-130.559c6.424-6.424 16.701-6.424 22.964 0l106.31 130.559c10.278 10.278 3.051 27.782-11.562 27.782h-65.36v203.948h203.948v-65.36c0-14.453 17.504-21.68 27.782-11.562l130.559 105.828c6.745 6.424 6.745 16.701 0.321 22.964z" />
<glyph unicode="&#xe90f;" glyph-name="distance" data-tags="distance" horiz-adv-x="1035" d="M15.697-14.545v285.091c0 14.545 5.818 26.182 14.545 34.909 20.364 20.364 52.364 20.364 69.818 0l69.818-69.818 573.091 570.182-69.818 69.818c-20.364 20.364-20.364 52.364 0 69.818 8.727 8.727 23.272 14.545 34.909 14.545h285.091c14.545 0 26.182-5.818 34.909-14.545s14.545-23.272 14.545-34.909v-285.091c0-14.545-5.818-26.182-14.545-34.909-20.364-20.364-52.364-20.364-69.818 0l-69.818 69.818-570.182-570.182 69.818-69.818c20.364-20.364 20.364-52.364 0-69.818-8.727-8.727-23.272-14.545-34.909-14.545h-285.091c-14.545 0-26.182 5.818-34.909 14.545-11.637 8.727-17.455 20.364-17.455 34.909z" />
<glyph unicode="&#xe910;" glyph-name="setting" data-tags="setting" horiz-adv-x="819" d="M409.611 621.43c-38.694 0-69.336-32.27-69.336-70.973 0-38.677 30.64-70.919 69.336-70.919 38.713 0 70.947 32.242 70.947 70.919 0 38.704-32.233 70.973-70.947 70.973zM803.001 619.819l-98.356 19.329c-6.443 19.356-14.488 38.685-24.179 56.432l58.043 82.222c4.841 8.063 3.23 19.329-3.204 25.799l-70.947 70.947c-6.452 6.443-17.745 8.045-25.79 3.222l-82.24-56.432c-17.71 9.656-37.075 17.745-56.432 22.578l-17.719 99.931c-1.62 8.063-11.302 16.153-20.967 16.153h-98.348c-9.674 0-19.366-8.091-20.967-16.153l-17.727-98.32c-20.949-6.452-40.324-14.543-59.653-24.198l-83.833 56.432c-6.443 6.443-19.356 4.832-25.809-1.611l-69.308-70.928c-6.461-6.48-8.081-17.745-3.23-25.809l58.033-83.833c-11.284-17.745-17.719-37.075-24.171-56.432l-98.375-19.329c-9.665-1.647-17.71-9.701-17.71-19.356v-99.958c0-9.701 8.045-17.745 17.71-19.356l98.375-19.366c6.452-19.32 14.497-38.685 24.171-58.033l-56.422-82.213c-4.841-8.072-4.841-19.356 1.62-25.79l70.919-70.955c6.452-6.443 17.755-8.045 25.809-1.602l83.851 56.422c17.71-9.656 37.075-17.719 58.033-24.198l17.727-98.339c1.593-8.063 11.293-16.108 19.356-16.108h99.949c9.656 0 19.338 8.045 20.967 16.108l17.71 99.941c19.356 6.489 38.722 12.932 56.432 22.588l82.24-54.821c8.045-6.443 19.347-4.832 25.79 1.611l69.308 70.955c8.072 6.452 8.072 17.719 3.23 25.809l-56.432 82.203c9.691 17.736 17.745 37.102 24.179 56.422l98.365 19.366c9.682 1.611 16.108 9.656 16.108 19.356v99.958c0.009 9.656-6.415 17.71-16.108 19.356zM409.611 379.579c-93.515 0-170.877 77.371-170.877 170.877 0 95.117 77.362 170.914 170.877 170.914 95.144 0 170.905-75.797 170.905-170.914 0-93.506-75.76-170.877-170.905-170.877z" />
<glyph unicode="&#xe911;" glyph-name="remove" data-tags="remove" horiz-adv-x="1021" d="M124.673 939.878l369.842-370.615c10.018-10.159 28.4-10.159 38.421 0 123.273 123.673 246.601 247.396 369.842 371.037 29.243 19.651 63.331 10.305 87.814-9.741 23.54-31.025 37.056-58.16 10.134-88.945-123.385-123.783-246.849-247.647-370.265-371.46-9.873-10.021-9.873-28.096 0-38.116l369.842-371.037c13.827-16.201 27.346-43.335-9.71-88.52-30.478-29.088-71.735-26.083-88.24-9.319l-369.419 370.612c-10.018 10.159-28.4 10.159-38.421 0l-369.842-371.034c-16.214-16.44-58.792-19.807-88.238 9.741-28.865 28.975-25.956 72.22-9.71 88.526l369.842 371.458c9.876 10.021 9.876 28.098 0 38.122-121.735 125.223-249.206 245.504-369.842 371.458-16.474 16.355-20.088 59.045 9.287 88.523 27.876 22.418 59.101 29.432 88.664 9.313v0z" />
<glyph unicode="&#xe912;" glyph-name="check" data-tags="check" horiz-adv-x="1013" d="M936.316 959.451c-17.642-0.508-34.388-7.871-46.688-20.52l-566.647-566.647-201.264 174.024c-27.306 25.714-70.287 24.429-96.014-2.877-25.714-27.306-24.429-70.287 2.877-96.014 1.5-1.419 3.078-2.771 4.698-4.042l249.010-215.064c26.959-23.156 67.208-21.618 92.32 3.534l611.22 611.22c26.77 26.276 27.186 69.27 0.91 96.054-13.238 13.519-31.509 20.881-50.423 20.333v0z" />
<glyph unicode="&#xe913;" glyph-name="beer" data-tags="beer" horiz-adv-x="754" d="M654.772 565.365h-80.27v80.118c39.053 23.63 63.551 64.847 63.551 110.753 0 72.537-62.012 131.543-138.195 131.543-11.975 0-23.829-1.448-35.286-4.331-3.767-0.976-7.535 0.306-9.595 3.25-32.965 45.917-87.442 73.302-145.838 73.302-75.467 0-142.542-45.597-166.934-113.495-1.543-4.331-5.627-7.017-9.902-6.345-5.462 0.777-11.043 1.19-16.553 1.19-62.728 0-113.697-48.6-113.697-108.328 0-42.608 25.901-79.554 63.551-97.189v-583.867l-36.522-43.125c-11.504-13.564-13.927-33.071-6.193-49.777 6.711-14.447 19.451-23.064 34.096-23.064h526.082c14.704 0 27.444 8.619 34.155 23.11 7.687 16.659 5.264 36.169-6.193 49.731l-36.522 43.125v147.133h80.27c50.508 0 91.621 41.114 91.621 91.621v183.029c-0.005 50.506-41.131 91.617-91.626 91.617zM574.502 474.781h73.513c5.887 0 10.679-4.802 10.679-10.679v-163.734c0-5.887-4.793-10.679-10.679-10.679h-73.513v185.093zM27.826 733.030c0 45.504 39.417 82.544 87.9 82.544 4.285 0 8.619-0.306 12.892-0.929 16.306-2.32 32.188 7.429 37.863 23.218 20.687 57.618 77.999 96.365 142.635 96.365 50.096 0 96.777-23.37 124.845-62.576 8.301-11.551 22.806-16.765 36.885-13.21 9.384 2.379 19.144 3.556 28.997 3.556 61.953 0 112.412-47.459 112.412-105.749 0-40.653-24.241-76.809-61.857-94.506-5.369-2.531-10.984-4.639-16.87-6.391-1.084-0.365-2.166-0.623-3.203-0.929-0.976-0.26-2.014-0.517-2.99-0.719l-1.707-0.412c-0.365-0.047-0.719-0.152-1.084-0.211-27.032 0-49.012-21.982-49.012-49.012v-118.651c0-12.798-10.42-23.218-23.218-23.218s-23.218 10.42-23.218 23.218v139.292c0 27.032-21.982 49.012-49.012 49.012-25.278 0-46.176-19.237-48.754-43.844h-0.26v-51.59c0-12.798-10.42-23.218-23.218-23.218s-23.218 10.42-23.218 23.218v41.278h-0.106c-1.448 17.282-15.941 30.952-33.638 30.952l-132.733 0.152c-0.564-0.047-1.131-0.047-1.754-0.106l-0.719-0.047c-7.581 0-14.905 0.929-21.982 2.624-37.81 9.11-65.877 41.509-65.877 79.89z" />
<glyph unicode="&#xe914;" glyph-name="arrow-light" data-tags="arrow-light" horiz-adv-x="436" d="M433.419 449.244c0-9.656-3.010-19.32-9.029-27.499l-337.013-458.169c-15.172-20.657-44.231-25.060-64.876-9.888-20.682 15.196-25.026 44.275-9.911 64.876l316.81 430.694-316.81 430.694c-15.172 20.657-10.77 49.701 9.911 64.876 20.646 15.172 49.701 10.77 64.876-9.888l337.037-458.193c5.971-8.155 9.005-17.845 9.005-27.484z" />
<glyph unicode="&#xe915;" glyph-name="add" data-tags="add" horiz-adv-x="819" d="M675.751 745.617c-14.819 0-29.638-1.975-43.47-6.915 0 1.975 0 4.94 0 6.915 0 118.553-95.83 214.383-214.383 214.383-96.819 0-178.818-64.216-205.493-153.131-11.855 2.964-24.699 3.952-37.542 3.952-96.819 0-174.866-78.048-174.866-174.866 0-90.89 70.144-165.975 159.059-173.878 2.964 0 5.927-0.988 9.879-0.988h268.72c0 2.964 0 5.927 0 8.892 0 87.927 71.131 159.059 159.059 159.059 82.987 0 151.156-63.229 159.059-144.24 38.53 25.686 63.229 69.156 63.229 118.553-0.988 79.035-64.216 142.264-143.252 142.264zM595.728 590.51c-66.192 0-119.541-53.349-119.541-119.541 0-2.964 0-5.927 0-8.892 4.94-62.241 56.312-110.649 119.541-110.649 65.204 0 118.553 52.361 119.541 116.578 0 0.988 0 1.975 0 2.964 0.988 66.192-52.361 119.541-119.541 119.541zM655.005 484.799c-5.927-6.915-16.795-7.904-23.711-1.975l-17.783 14.819v-88.915c0-9.879-7.904-16.795-16.795-16.795-4.94 0-8.892 1.975-11.855 4.94s-4.94 6.915-4.94 11.855v87.927l-17.783-14.819c-6.915-5.927-17.783-4.94-23.711 1.975-2.964 2.964-3.952 6.915-3.952 10.867 0 4.94 1.975 9.879 5.927 12.844l45.445 37.542c0 0 3.952 3.952 10.867 3.952s10.867-3.952 10.867-3.952l45.445-37.542c3.952-2.964 5.927-7.904 5.927-12.844 0-2.964-1.975-6.915-3.952-9.879z" />
<glyph unicode="&#xe916;" glyph-name="speed" data-tags="speed" horiz-adv-x="1026" d="M611.847 448.575c0 54.021-44.825 98.845-98.845 98.845s-98.845-44.825-98.845-98.845 44.825-98.845 98.845-98.845c26.434 0 50.57 11.495 68.96 28.733l225.272-78.157 10.343 19.539-205.735 121.832c0.004 2.298 0.004 4.597 0.004 6.898zM513 392.829c-31.031 0-55.169 24.136-55.169 55.169 0 31.031 25.286 55.169 55.169 55.169s55.169-24.136 55.169-55.169c0-31.031-24.138-55.169-55.169-55.169zM513 960c-282.778 0-512-229.222-512-512s229.222-512 512-512 512 229.222 512 512-229.222 512-512 512zM952.053 426.737c-3.447-63.215-20.689-124.131-48.273-178.149l-56.319 32.181-21.837-37.929 56.319-33.332c-78.157-120.683-213.78-201.135-368.942-201.135s-290.788 80.455-368.942 202.285l56.319 32.183-21.837 37.929-56.319-32.183c-27.584 54.019-44.825 113.785-48.273 178.149h65.513v43.676h-65.513c3.447 63.215 20.689 124.131 48.273 178.149l56.319-32.183 21.837 37.929-56.319 32.183c34.482 52.872 79.306 97.696 131.026 131.026l32.183-56.319 37.929 21.837-32.183 56.319c54.021 27.584 113.785 44.825 178.149 48.273v-65.511h43.676v65.513c63.215-3.447 124.131-20.689 178.149-48.273l-32.183-56.319 37.929-21.837 32.183 56.319c52.869-34.482 97.696-79.306 131.026-131.026l-56.319-32.183 21.837-37.929 56.319 32.183c27.584-54.021 44.825-113.785 48.273-178.149h-65.513v-43.676h65.513z" />
<glyph unicode="&#xe917;" glyph-name="start" data-tags="start" d="M76.679 883.344c27.63 7.485 56.121-8.939 63.58-36.93l201.321-758.721c7.408-27.966-8.886-56.722-36.646-64.19-27.562-7.503-56.112 9.092-63.572 37.050l-201.244 758.695c-7.46 28.077 8.939 56.645 36.561 64.104zM187.225 823.295c13.46 23.282 138.987 216.705 354.507 80.511 215.94-136.143 356.456-233.446 449.611-70.584 0 0-23.272-131.836-63.245-201.716-39.92-69.888-165.079-165.596-320.051-124.84-143.361 37.712-248.831-20.428-291.768-149.962 0 0.002-118.833 430.197-129.052 466.585z" />
<glyph unicode="&#xe918;" glyph-name="time" data-tags="time" horiz-adv-x="1016" d="M507.913 960c-280.090 0-508.008-227.918-508.008-508.008s227.918-508.008 508.008-508.008 508.008 227.918 508.008 508.008c0 280.090-227.918 508.008-508.008 508.008zM507.913 879.788c236.739 0 427.796-191.057 427.796-427.796s-191.057-427.796-427.796-427.796-427.796 191.057-427.796 427.796c0 236.739 191.057 427.796 427.796 427.796zM507.913 812.945c-22.15 0-40.106-17.956-40.106-40.106v-320.847c0-14.834 8.082-27.737 20.053-34.674l254.839-147.052c19.181-11.073 43.655-4.562 54.728 14.622 11.076 19.181 4.562 43.655-14.622 54.728l-234.787 135.357v297.87c0 22.145-17.956 40.103-40.106 40.103z" />
<glyph unicode="&#xe919;" glyph-name="airglide" data-tags="airglide" horiz-adv-x="2048" d="M603.075 140.152c30.992 128.154-25.457 256.319-119.016 343.808-80.37 75.272-165.802 125.635-251.745 203.949-108.831 98.659-244.639 270.556-212.601 271.579 14.748 0.512 202.428-110.377 359.578-161.24 156.627-51.374 222.237-92.063 248.167-105.764 27.488-14.261 342.786-320.421 431.795-338.211 89.010-17.802 135.796-9.15 156.639 15.259 21.355 24.908 44.754 44.23 14.76 60.511-44.268 23.387-150.53 90.006-151.553 102.248-1.022 12.192 125.598-12.229 153.585-27.987 27.962-15.271 128.178-24.409 165.802-16.792 37.636 8.153 101.214 11.195 155.629 20.345 54.403 8.651 76.269 14.236 97.138 12.192 20.345-2.53 32.537-9.662 17.789-21.342-15.259-11.693-145.968-90.032-208.511-108.843-62.058-18.824-145.98-34.082-179.041-53.904-32.524-20.345-53.381-29.495-47.796-36.115 5.598-6.607 175.463-33.572 235.488-25.93 60.001 8.115 79.336 12.179 102.723 5.585 23.4-6.607 180.537-58.99 296.997-71.182 116.997-12.217 166.824 0.499 129.176-21.38-37.623-21.355-97.125-45.776-249.7-60.524-152.575-14.236-252.244 17.303-418.058 7.642-165.802-10.172-228.844-32.076-319.885-57.994-90.531-26.453-92.063-42.722-101.214-24.92-8.651 17.814-42.199 20.332-76.281 18.325-13.227-1.035-17.291-0.512-18.824 1.521 0.523 33.049-46.287 55.425-104.767 60.001-33.546 2.543-81.355 2.044-93.061 1.035-16.269-1.022-13.726 5.572-13.214 8.128v0z" />
<glyph unicode="&#xe91a;" glyph-name="phoenixfly" data-tags="phoenixfly" horiz-adv-x="1406" d="M508.789 468.499c-141.579 185.761-10.589 355.606-10.589 355.606-18.917-86.52 30.182-129.663 30.182-129.663-23.828 189.53 105.013 249.515 223.395 265.558-54.432-4.814-110.211-14.518-166.381-29.51-364.72-97.351-607.451-379.782-542.14-630.815 8.024-30.868 20.349-59.808 36.438-86.669 1.915 2.149 184.758 207.308 429.094 255.494zM961.899 247.514c0.018-0.079 0.036-0.133 0.046-0.213-73.751 0.265-156.602-0.222-222.757-51.125-64.937-49.975-57.225-111.967-201.513-184.419 0 0 116.073 146.328-42.684 236.876-110.24 62.868-335.143 11.779-415.272-35.667 114.814-191.642 422.283-276.967 742.142-191.642 270.601 72.267 474.003 246.375 534.315 433.949-47.014-115.496-206.975-209.008-394.276-207.761zM822.495 515.941c-0.106 1.503-0.283 2.993-0.265 4.518 0.335 40.16 45.040 72.337 99.844 71.854 54.794-0.473 98.952-33.411 98.599-73.57-0.344-39.511-43.662-71.218-97.254-71.771 4.403-2.123 8.86-4.199 13.405-6.211 254.456-112.687 410.27 26.269 427.292 42.552 13.679 56.258 14.333 113.325-0.116 168.857-43.751 168.173-214.597 279.588-432.27 305.578-231.644-66.307-260.999-297.207-109.235-441.808z" />
<glyph unicode="&#xe91b;" glyph-name="about" data-tags="about" d="M512 954.182c-279.133 0-506.182-227.095-506.182-506.182s227.049-506.182 506.182-506.182 506.182 227.049 506.182 506.182-227.049 506.182-506.182 506.182zM512 34.909c-227.793 0-413.091 185.297-413.091 413.091s185.297 413.091 413.091 413.091 413.091-185.344 413.091-413.091c0-227.747-185.297-413.091-413.091-413.091zM562.455 709.306c-17.92 0-33.28-5.958-46.127-17.92s-19.223-26.345-19.223-43.148 6.423-31.139 19.223-42.961c12.847-11.823 28.207-17.734 46.127-17.734s33.233 5.911 45.94 17.734 19.084 26.159 19.084 42.961-6.377 31.185-19.084 43.148-28.020 17.92-45.94 17.92zM579.77 233.472c-14.15 0-24.064 2.327-29.836 6.982-5.725 4.655-8.611 13.405-8.611 26.205 0 5.073 0.884 12.614 2.653 22.575s3.77 18.804 6.004 26.531l27.276 96.582c2.653 8.844 4.468 18.572 5.492 29.184 0.977 10.612 1.489 18.013 1.489 22.249 0 20.34-7.168 36.911-21.411 49.617-14.289 12.707-34.583 19.084-60.975 19.084-14.615 0-30.115-2.607-46.499-7.82-16.431-5.213-33.606-11.45-51.526-18.758l-7.308-29.882c5.306 2.001 11.683 4.096 19.13 6.284s14.662 3.305 21.783 3.305c14.429 0 24.157-2.42 29.277-7.308 5.073-4.887 7.68-13.498 7.68-25.879 0-6.842-0.838-14.429-2.467-22.714-1.676-8.285-3.724-17.082-6.144-26.391l-27.415-96.908c-2.42-10.193-4.189-19.316-5.306-27.369s-1.676-15.965-1.676-23.738c0-19.921 7.354-36.352 22.063-49.292s35.328-19.409 61.905-19.409c17.268 0 32.396 2.281 45.475 6.796 13.033 4.515 30.534 11.124 52.41 19.735l7.308 29.882c-3.77-1.769-9.868-3.817-18.246-6.144-8.425-2.234-15.919-3.398-22.528-3.398z" />
<glyph unicode="&#xe91c;" glyph-name="heart" data-tags="heart" horiz-adv-x="1195" d="M597.852-63.999c-11.135 0-21.091 3.985-29.831 11.94l-415.288 400.971c-3.985 3.985-9.939 9.939-17.91 17.91s-20.286 22.271-36.998 42.967-31.815 42.541-45.344 65.614-25.452 49.725-35.8 79.947-15.514 60.877-15.514 91.904c0 97.857 28.241 174.229 84.738 229.119s134.461 82.736 233.909 83.54c27.042 0 54.891-4.773 83.54-14.317s55.3-22.681 79.947-39.375c24.665-16.71 46.149-31.815 64.434-45.344 18.302-13.53 35.013-28.634 50.117-45.344 15.909 15.909 32.619 31.027 50.117 45.344s38.982 29.437 64.434 45.344c25.452 15.909 52.119 29.043 79.947 39.375 27.846 10.348 55.692 15.121 83.54 14.317 99.447 0 177.412-27.846 233.909-83.54 56.479-55.692 84.738-132.066 84.738-229.136 0-97.857-50.921-197.697-152.745-299.539l-414.108-399.774c-7.954-7.954-17.892-11.923-29.831-11.923v0z" />
<glyph unicode="&#xe91d;" glyph-name="youtube" data-tags="youtube" d="M850.721 855.343h-677.431c-95.702 0-173.29-89.162-173.29-199.146v-416.394c0-109.982 77.588-199.146 173.29-199.146h677.42c95.702 0 173.29 89.162 173.29 199.146v416.394c0.011 109.982-77.576 199.146-173.278 199.146zM712.553 440.037l-307.203-181.041c-3.859-2.296-8.611-0.566-10.614 3.87-0.566 1.267-0.871 2.67-0.882 4.097v362.082c0.034 5.002 3.586 9.019 7.943 8.984 1.244-0.011 2.456-0.362 3.564-1.018l307.203-181.041c3.87-2.275 5.397-7.74 3.417-12.186-0.758-1.686-1.946-3.066-3.417-3.926v0.181z" />
<glyph unicode="&#xe91e;" glyph-name="vimeo" data-tags="vimeo" d="M1023.468 685.687q-6.29-148.456-208.845-409.513-209.475-271.122-353.528-271.122-89.326 0-150.973 165.441-27.678 100.649-83.035 303.204-45.292 164.811-98.761 164.811-11.323 0-79.889-47.808l-48.437 61.647q15.097 13.21 67.937 60.704t81.777 72.656q98.132 86.809 151.601 91.842 59.76 5.662 96.245-34.912t50.954-128.012q27.678-180.538 41.517-234.637 34.598-156.634 75.486-156.634 32.082 0 96.874 101.277 63.534 101.277 68.567 154.746 8.178 87.439-68.567 87.439-35.856 0-76.115-16.355 75.486 247.217 288.735 240.298 157.893-5.032 148.456-205.071z" />
<glyph unicode="&#xe91f;" glyph-name="video_add" data-tags="video_add" d="M810.387 299.28c-85.438 0-154.298-68.861-154.298-154.298 0-3.826 0-7.651 0-11.477 6.376-80.337 72.686-142.822 154.298-142.822 84.163 0 153.024 67.586 154.298 150.473 0 1.275 0 2.551 0 3.826 1.275 85.438-67.586 154.298-154.298 154.298zM886.899 162.834c-7.651-8.926-21.678-10.202-30.605-2.551l-22.954 19.128v-114.767c0-12.752-10.202-21.678-21.678-21.678-6.376 0-11.477 2.551-15.303 6.376s-6.376 8.926-6.376 15.303v113.492l-22.954-19.128c-8.926-7.651-22.954-6.376-30.605 2.551-3.826 3.826-5.101 8.926-5.101 14.027 0 6.376 2.551 12.752 7.651 16.577l58.659 48.457c0 0 5.101 5.101 14.027 5.101s14.027-5.101 14.027-5.101l58.659-48.457c5.101-3.826 7.651-10.202 7.651-16.577 0-3.826-2.551-8.926-5.101-12.752zM1023.983 752.293c1.275 84.163-67.586 153.024-151.749 153.024h-719.21c-84.163 0-153.024-68.861-153.024-153.024v-446.319c0-84.163 68.861-153.024 153.024-153.024h472.515c0 101.243 82.067 183.31 183.31 183.31 83.413 0 153.772-55.742 175.977-131.99 24.245 27.097 39.164 62.7 39.164 101.705v446.319zM716.661 516.381c-2.551-3.826-5.101-6.376-8.926-8.926l-297.121-175.977c-12.752-7.651-28.054-2.551-34.431 8.926-2.551 3.826-3.826 7.651-3.826 12.752v351.954c0 14.027 11.477 25.504 25.504 25.504 3.826 0 8.926-1.275 12.752-3.826l297.121-175.977c11.477-7.651 16.577-22.954 8.926-34.431z" />
<glyph unicode="&#xe920;" glyph-name="video" data-tags="video" d="M512 960c-282.476 0-512-229.524-512-512s229.524-512 512-512 512 229.524 512 512c0 282.476-229.524 512-512 512zM512 911.238c256.121 0 463.238-207.108 463.238-463.238 0-256.121-207.117-463.238-463.238-463.238s-463.238 207.117-463.238 463.238c0 256.121 207.117 463.238 463.238 463.238zM382.476 679.619c-28.183-0.632-52.61-23.269-53.333-55.619v-351.619c0.96-43.131 44.031-69.295 81.905-48.762l304.762 176.381c16.587 9.638 27.81 27.314 27.81 48s-11.223 38.369-27.81 48l-304.762 176.381c-9.47 5.136-19.177 7.451-28.571 7.238z" />
<glyph unicode="&#xe921;" glyph-name="zoom_out" data-tags="zoom_out" horiz-adv-x="1025" d="M16.514-43.631c2.808-2.808 5.83-5.259 9.019-7.353 9.423-6.996 20.964-11.303 33.576-11.374l296.708-1.642c0.119 0 0.238 0 0.309 0 31.41 0 56.967 25.366 57.11 56.8 0.143 31.529-25.247 57.229-56.8 57.419l-164.404 0.904 292.378 292.378c22.32 22.32 22.32 58.442 0 80.763-11.16 11.16-25.771 16.705-40.405 16.705-14.611 0-29.245-5.568-40.405-16.705l-287.88-287.928-0.857 155.41c-0.143 31.458-25.699 56.8-57.11 56.8-0.071 0-0.19 0-0.262 0-31.553-0.19-56.967-25.89-56.8-57.419l1.547-278.814c-5.497-19.251-0.904-40.762 14.277-55.944zM549.157 488.75c22.32-22.32 58.442-22.32 80.763 0l279.885 279.885 0.904-164.357c0.143-31.458 25.699-56.8 57.11-56.8 0.071 0 0.19 0 0.309 0 31.553 0.19 56.991 25.89 56.8 57.419l-1.642 296.661c-0.19 31.291-25.509 56.61-56.8 56.8l-296.708 1.642c-0.119 0-0.238 0-0.309 0-31.41 0-56.919-25.366-57.157-56.8-0.143-31.529 25.247-57.229 56.8-57.419l155.433-0.857-275.388-275.411c-22.297-22.32-22.297-58.442 0-80.763z" />
<glyph unicode="&#xe922;" glyph-name="logout" data-tags="logout" d="M531.050 240.819c9.526-9.526 21.433-14.288 33.34-14.288s23.814 4.763 33.34 14.288l173.841 173.841c19.051 19.051 19.051 48.818 0 67.869l-173.841 172.651c-19.051 19.051-48.818 19.051-67.869 0s-19.051-48.818 0-67.869l92.875-92.875h-289.34c-26.195 0-47.628-21.433-47.628-47.628s21.433-47.628 47.628-47.628h289.34l-92.875-92.875c-17.86-16.67-17.86-47.628 1.19-65.488zM893.022 602.791c26.195 0 47.628 21.433 47.628 47.628v138.12c0 95.256-76.205 171.461-171.461 171.461h-514.38c-95.256 0-171.461-76.205-171.461-171.461v-682.269c0-94.065 76.205-170.27 171.461-170.27h515.572c94.065 0 170.27 76.205 170.27 171.461v138.12c0 26.195-21.433 47.628-47.628 47.628s-47.628-21.433-47.628-47.628v-138.12c0-41.674-34.53-76.205-76.205-76.205h-514.38c-41.674 0-76.205 34.53-76.205 76.205v681.078c0 41.674 34.53 76.205 76.205 76.205h515.572c41.674 0 76.205-34.53 76.205-76.205v-138.12c-1.19-26.195 20.241-47.628 46.437-47.628z" />
</font>
</defs>
</svg>
