<svg width="1024" height="1024" viewBox="0 0 1024 1024" fill="none" xmlns="http://www.w3.org/2000/svg">
<g clip-path="url(#clip0_82410_83)">
<rect width="1024" height="1024" rx="200" fill="#F8F9FA"/>
<path d="M855 -1V1024" stroke="#E1E4E8" stroke-width="6"/>
<path d="M684 -1V1024" stroke="#E1E4E8" stroke-width="6"/>
<path d="M513 -1V1024" stroke="#E1E4E8" stroke-width="6"/>
<path d="M342 -1V1024" stroke="#E1E4E8" stroke-width="6"/>
<path d="M171 -1V1024" stroke="#E1E4E8" stroke-width="6"/>
<path d="M1024 854L-1 854" stroke="#E1E4E8" stroke-width="6"/>
<path d="M1024 683L-1 683" stroke="#E1E4E8" stroke-width="6"/>
<path d="M1024 512L-1 512" stroke="#E1E4E8" stroke-width="6"/>
<path d="M1024 341L-1 341" stroke="#E1E4E8" stroke-width="6"/>
<path d="M1024 170L-1 170" stroke="#E1E4E8" stroke-width="6"/>
<circle cx="512" cy="511" r="337" stroke="#D1D5DA" stroke-width="12"/>
<circle cx="512" cy="512" r="166" stroke="#D1D5DA" stroke-width="12"/>
<circle cx="512" cy="512" r="438" stroke="#D1D5DA" stroke-width="12"/>
<rect x="-1" y="-1" width="1025" height="1025" fill="#252F3C"/>
<rect x="-16" y="-15" width="1061" height="1055" rx="24" fill="url(#paint0_radial_82410_83)"/>
<path d="M473.502 236.474L469.514 214.41C469.753 215.719 470.056 217.011 470.431 218.282L474.417 240.346C474.043 239.075 473.737 237.783 473.502 236.474Z" fill="white"/>
<path d="M470.431 218.282L474.417 240.346C474.043 239.075 473.737 237.783 473.502 236.474L469.514 214.41C469.753 215.719 470.056 217.011 470.431 218.282Z" fill="white"/>
<path d="M511.407 164.819C519.988 164.819 528.366 167.686 535.015 173.582C550.382 187.22 550.671 211.894 535.668 228.702C528.845 236.322 520.049 241.004 511.047 242.588L638.007 395.594C610.502 379.843 582.111 365.023 552.143 354.253C534.389 347.883 515.424 342.442 496.247 342.442C472.793 342.602 453.905 353.179 445.211 374.914C433.913 403.178 434.82 435.984 436.505 465.62C437.992 491.756 452.778 573.829 453.555 578.15C451.574 573.957 413.942 494.29 321.148 438.537C264.634 404.584 185.515 399.309 141.797 399.309C122.089 399.309 110.198 400.33 109.572 400.381C119.067 397.371 299.478 340.157 339.608 321.555C395.393 295.72 362.972 237.221 233.339 202.604L470.431 218.282C466.684 205.576 469.841 190.654 479.975 179.302C488.505 169.767 500.133 164.819 511.407 164.819Z" fill="white"/>
<path d="M745.534 541.631L741.492 516.45C741.609 517.181 741.746 517.907 741.907 518.625L745.95 543.806C745.789 543.088 745.652 542.362 745.534 541.631Z" fill="white"/>
<path d="M741.907 518.625L745.95 543.806C745.789 543.088 745.652 542.362 745.534 541.631L741.492 516.45C741.609 517.181 741.746 517.907 741.907 518.625Z" fill="white"/>
<path d="M525.294 460.202L741.906 518.625C739.986 509.954 741.076 500.327 745.649 491.399C750.811 481.328 759.4 474.076 769.037 470.557C778.267 467.186 788.457 467.235 797.526 471.503C816.077 480.209 822.93 503.25 812.827 522.968C807.67 533.031 799.072 540.281 789.435 543.8C786.334 544.932 783.128 545.678 779.892 546.007L913.197 705.907C832.383 653.808 782.154 642.996 750.971 654.376C714.164 667.812 703.894 712.175 701.121 756.088C697.256 817.304 707.374 908.217 707.907 913.002C705.657 907.988 662.886 812.698 584.655 759.242C496.005 698.667 385.587 692.002 379.774 691.653C384.54 691.085 475.075 680.277 563.37 649.396C566.331 648.358 569.327 647.298 572.312 646.207C633.326 623.92 693.535 588.54 525.294 460.202Z" fill="white"/>
</g>
<defs>
<radialGradient id="paint0_radial_82410_83" cx="0" cy="0" r="1" gradientUnits="userSpaceOnUse" gradientTransform="translate(-16 422.5) rotate(23.9825) scale(1161.25 1167.86)">
<stop offset="0.01" stop-color="#293F70"/>
<stop offset="0.682692" stop-color="#252F3C"/>
<stop offset="1" stop-color="#252F3C"/>
</radialGradient>
<clipPath id="clip0_82410_83">
<rect width="1024" height="1024" rx="200" fill="white"/>
</clipPath>
</defs>
</svg>
