<svg viewBox="0 0 20 19" xmlns="http://www.w3.org/2000/svg">
<path d="M17.6421 0H2.35789C1.05263 0 0 1.03037 0 2.30803V16.692C0 17.9696 1.05263 19 2.35789 19H17.6421C18.9474 19 20 17.9696 20 16.692V2.30803C20 1.03037 18.9474 0 17.6421 0ZM2.35789 1.19523H4.52632V2.39046C4.10526 2.59653 3.83158 3.02928 3.83158 3.52386C3.83158 4.22451 4.42105 4.80152 5.13684 4.80152C5.85263 4.80152 6.4421 4.22451 6.4421 3.52386C6.4421 3.02928 6.14737 2.61714 5.74737 2.39046V1.19523H9.38947V2.39046C8.96842 2.59653 8.69474 3.02928 8.69474 3.52386C8.69474 4.22451 9.28421 4.80152 10 4.80152C10.7158 4.80152 11.3053 4.22451 11.3053 3.52386C11.3053 3.02928 11.0316 2.61714 10.6105 2.39046V1.19523H14.2526V2.39046C13.8316 2.59653 13.5579 3.02928 13.5579 3.52386C13.5579 4.22451 14.1474 4.80152 14.8632 4.80152C15.5789 4.80152 16.1684 4.22451 16.1684 3.52386C16.1684 3.02928 15.8737 2.61714 15.4737 2.39046V1.19523H17.6421C18.2737 1.19523 18.7789 1.68981 18.7789 2.30803V5.70824H1.22105V2.30803C1.22105 1.68981 1.72632 1.19523 2.35789 1.19523ZM17.6421 17.8048H2.35789C1.72632 17.8048 1.22105 17.3102 1.22105 16.692V6.90347H18.7789V16.692C18.7789 17.3102 18.2737 17.8048 17.6421 17.8048Z" fill="black"/>
<path d="M6.29474 9.06725H4C3.70526 9.06725 3.47368 9.29393 3.47368 9.58243V10.9013C3.47368 11.1898 3.70526 11.4165 4 11.4165H6.29474C6.58947 11.4165 6.82105 11.1898 6.82105 10.9013V9.58243C6.82105 9.29393 6.58947 9.06725 6.29474 9.06725Z" fill="black"/>
<path d="M11.1368 9.06725H8.86316C8.56842 9.06725 8.33684 9.29393 8.33684 9.58243V10.9013C8.33684 11.1898 8.56842 11.4165 8.86316 11.4165H11.1579C11.4526 11.4165 11.6842 11.1898 11.6842 10.9013V9.58243C11.6842 9.29393 11.4316 9.06725 11.1368 9.06725Z" fill="black"/>
<path d="M16 9.06725H13.7053C13.4105 9.06725 13.1789 9.29393 13.1789 9.58243V10.9013C13.1789 11.1898 13.4105 11.4165 13.7053 11.4165H16C16.2947 11.4165 16.5263 11.1898 16.5263 10.9013V9.58243C16.5263 9.29393 16.2947 9.06725 16 9.06725Z" fill="black"/>
<path d="M6.29474 13.2505H4C3.70526 13.2505 3.47368 13.4772 3.47368 13.7657V15.0846C3.47368 15.3731 3.70526 15.5998 4 15.5998H6.29474C6.58947 15.5998 6.82105 15.3731 6.82105 15.0846V13.7657C6.82105 13.4978 6.58947 13.2505 6.29474 13.2505Z" fill="black"/>
<path d="M11.1368 13.2505H8.86316C8.56842 13.2505 8.33684 13.4772 8.33684 13.7657V15.0846C8.33684 15.3731 8.56842 15.5998 8.86316 15.5998H11.1579C11.4526 15.5998 11.6842 15.3731 11.6842 15.0846V13.7657C11.6842 13.4978 11.4316 13.2505 11.1368 13.2505Z" fill="black"/>
<path d="M16 13.2505H13.7053C13.4105 13.2505 13.1789 13.4772 13.1789 13.7657V15.0846C13.1789 15.3731 13.4105 15.5998 13.7053 15.5998H16C16.2947 15.5998 16.5263 15.3731 16.5263 15.0846V13.7657C16.5263 13.4978 16.2947 13.2505 16 13.2505Z" fill="black"/>
</svg>
