<svg fill="none" viewBox="0 0 13 16" xmlns="http://www.w3.org/2000/svg"><g fill="#000"><path d="m6.78887 11.2372c.14445.1488.325.2233.50556.2233.18055 0 .36111-.0745.50555-.2233l2.63612-2.71628c.2889-.29767.2889-.76279 0-1.06046l-2.63612-2.69768c-.28889-.29767-.74027-.29767-1.02916 0-.28889.29768-.28889.76279 0 1.06047l1.40833 1.45116h-4.3875c-.39722 0-.72222.33489-.72222.74419s.325.74418.72222.74418h4.3875l-1.40833 1.45112c-.27084.2605-.27084.7442.01805 1.0233z"/><path d="m12.2778 5.5814c.3972 0 .7222-.33489.7222-.74419v-2.15814c0-1.48837-1.1556-2.67907-2.6-2.67907h-7.8c-1.44444 0-2.6 1.1907-2.6 2.67907v10.66043c0 1.4698 1.15556 2.6605 2.6 2.6605h7.8181c1.4263 0 2.5819-1.1907 2.5819-2.6791v-2.1581c0-.4093-.325-.7442-.7222-.7442s-.7222.3349-.7222.7442v2.1581c0 .6512-.5237 1.1907-1.1556 1.1907h-7.8c-.63194 0-1.15556-.5395-1.15556-1.1907v-10.64183c0-.65116.52362-1.1907 1.15556-1.1907h7.8181c.6319 0 1.1555.53954 1.1555 1.1907v2.15814c-.018.4093.307.74419.7042.74419z"/></g></svg>
