<svg viewBox="0 0 15 20" xmlns="http://www.w3.org/2000/svg">
<path d="M7.5 0C3.37265 0 0 3.41698 0 7.59857C0 8.14813 0.0471895 8.69775 0.165115 9.22341L0.212305 9.46236C1.15571 13.0466 5.73116 18.2796 7.47645 20C9.19815 18.2796 13.7737 13.1422 14.7406 9.60574L14.8113 9.34289C14.9293 8.79332 15 8.21985 15 7.62247C15 3.41698 11.6273 0 7.5 0ZM7.5 12.1864C4.8349 12.1864 2.68869 9.98807 2.68869 7.31185C2.68869 4.61173 4.8585 2.43732 7.5 2.43732C10.1651 2.43732 12.3113 4.63563 12.3113 7.31185C12.3113 10.012 10.1651 12.1864 7.5 12.1864Z" />
</svg>
