<svg viewBox="0 0 20 20" xmlns="http://www.w3.org/2000/svg"><g><path d="m17.8898 4.08783c1.1655 0 2.1104-.91509 2.1104-2.04391 0-1.128828-.9449-2.04392-2.1104-2.04392s-2.1104.915092-2.1104 2.04392c0 1.12882.9449 2.04391 2.1104 2.04391z"/><path d="m6.30229 8.6974-5.656842 2.7114c-.5738523.2755-.809203.9491-.524593 1.5051.265244.5195.888985.7468 1.438845.5503.69552.9452 1.80407 2.4052 2.4074 2.9536.60374.5486 2.17836 1.5273 3.1966 2.1391-.16735.5436.1061 1.132.65806 1.3558.5909.2392 1.27022-.0303 1.51778-.6032l2.43476-5.6392c1.457-.4318 4.6712-.543 6.1389-.5719.0089.0805.0135.124.0135.124.0189.1824.1055.3423.2332.4583.1525.1384.3632.2153.5874.1935.4124-.0398.7144-.3954.6732-.7946-.0011-.0097-.1676-1.641-.4726-3.41233-.1528-.88709-.3396-1.80701-.5638-2.59358-.1128-.3939-.2349-.75416-.3755-1.0712-.1469-.31744-.2935-.59391-.5587-.84203l-.003-.00245c-.0134-.01447-.028-.02956-.0423-.04342l-2.6429-2.40153c-.0162-.01447-.0318-.0265-.048-.03874l-.0023-.00224c-.2729-.24099-.5665-.36536-.9031-.48646-.5857-.20205-1.3124-.34538-2.1037-.46465-2.36021-.35292-5.26316-.45017-5.27831-.45119-.41408-.01468-.76121.2995-.77637.70054-.00779.21836.08421.41755.23662.55578.12778.11621.29808.19043.4867.19675 0 0 .04736.00142.12883.00469.06315 1.42065.15283 4.53453-.19978 5.96986z"/></g></svg>
