<svg viewBox="0 0 507.989 507.989" xmlns="http://www.w3.org/2000/svg">
  <g>
    <path d="m28.994 402.989c-5.51 0-10-4.49-10-10s4.49-10 10-10 10 4.49 10 10-4.49 10-10 10zm451.322-354.912s-269.896-36.808-360-48c-5.93-.737-11.322 3.936-11.322 9.912v6.795l-35.936 50.31c-5.697-7.642-14.942-12.49-25.274-12.082-16.199.64-28.79 14.418-28.79 30.629v29.347c0 5.523 4.477 10 10 10h10v133h-10c-5.523 0-10 4.477-10 10v80c0 5.739 4.871 10.372 10.693 9.977 5.307-.361 9.307-5.016 9.307-10.334v-69.642h20v210h-20v-50c0-5.74-4.872-10.373-10.694-9.976-5.306.361-9.306 5.016-9.306 10.334v59.642c0 5.523 4.477 10 10 10h40c5.523 0 10-4.477 10-10v-230c0-5.523-4.477-10-10-10h-10v-133h10c3.855 0 7.201-2.182 8.869-5.378l31.131 43.583v6.796c0 5.976 5.211 10.649 11.144 9.934.448-.054 360.178-48.022 360.178-48.022 4.969-.662 8.679-4.9 8.679-9.912v-64c-.001-5.013-3.711-9.251-8.679-9.913zm-421.322 56.912h-20v-20c0-5.514 4.486-10 10-10s10 4.486 10 10zm50 23.795-27.711-38.795 27.711-38.795zm72 22.849-52 6.934v-137.156l52 6.934zm72-9.599-52 6.933v-117.956l52 6.933zm72-9.6-52 6.933v-98.756l52 6.933zm72-9.601-52 6.933v-79.555l52 6.933zm72-9.6-52 6.933v-60.355l52 6.933z"/>
  </g>
</svg>
