<svg width="19" height="20" viewBox="0 0 19 20" fill="none" xmlns="http://www.w3.org/2000/svg">
  <path d="M10 9.55C9.43168 9.55 8.88663 9.31295 8.48477 8.89099C8.08291 8.46903 7.85714 7.89674 7.85714 7.3C7.85714 6.70326 8.08291 6.13097 8.48477 5.70901C8.88663 5.28705 9.43168 5.05 10 5.05C10.5683 5.05 11.1134 5.28705 11.5152 5.70901C11.9171 6.13097 12.1429 6.70326 12.1429 7.3C12.1429 7.59547 12.0874 7.88806 11.9797 8.16104C11.8721 8.43402 11.7142 8.68206 11.5152 8.89099C11.3162 9.09992 11.08 9.26566 10.82 9.37873C10.5601 9.4918 10.2814 9.55 10 9.55ZM10 1C8.4087 1 6.88258 1.66375 5.75736 2.84523C4.63214 4.02671 4 5.62914 4 7.3C4 12.025 10 19 10 19C10 19 16 12.025 16 7.3C16 5.62914 15.3679 4.02671 14.2426 2.84523C13.1174 1.66375 11.5913 1 10 1Z" fill="black"/>
</svg>
