<svg viewBox="0 0 20 20" xmlns="http://www.w3.org/2000/svg" id="icon"><path d="M17.89 4.088c1.165 0 2.11-.915 2.11-2.044S19.055 0 17.89 0s-2.11.915-2.11 2.044.944 2.044 2.11 2.044zM6.302 8.697L.645 11.41c-.573.275-.809.949-.524 1.505.265.52.889.747 1.439.55.695.945 1.804 2.405 2.407 2.954.604.548 2.178 1.527 3.197 2.139a1.11 1.11 0 00.658 1.356c.59.239 1.27-.03 1.518-.604l2.434-5.639c1.457-.432 4.672-.543 6.14-.572l.013.124a.717.717 0 00.233.459.763.763 0 00.587.193.733.733 0 00.673-.794c0-.01-.167-1.641-.472-3.413-.153-.887-.34-1.807-.564-2.593a8.309 8.309 0 00-.375-1.072c-.147-.317-.294-.593-.56-.842l-.002-.002a1.145 1.145 0 00-.042-.043l-2.643-2.402a.731.731 0 00-.048-.039l-.003-.002c-.273-.24-.566-.365-.903-.486-.585-.202-1.312-.346-2.103-.465-2.36-.353-5.264-.45-5.279-.451a.74.74 0 00-.776.7.714.714 0 00.237.556.76.76 0 00.486.197l.13.005c.062 1.42.152 4.534-.2 5.97z"></path></svg>
